<?xml version="1.0" encoding="utf-8"?>
<!-- Generator: Adobe Illustrator 19.0.1, SVG Export Plug-In . SVG Version: 6.00 Build 0)  -->
<svg version="1.1" id="Layer_1" xmlns="http://www.w3.org/2000/svg" xmlns:xlink="http://www.w3.org/1999/xlink" x="0px" y="0px"
	 viewBox="0 0 405.8 66.5" enable-background="new 0 0 405.8 66.5" xml:space="preserve">
<g>
	<path fill="#FFFFFF" d="M125.4,27.6l0-0.3c0-0.1,0-0.2,0-0.2c0-0.1,0-0.1,0-0.2c-0.1,0-0.2-0.1-0.3-0.1c-0.1-0.1-0.2-0.1-0.4,0
		c-0.2-0.1-0.5-0.1-0.9-0.2c-0.3,0-0.6,0-0.9,0c-0.1,0-0.2,0-0.2,0c-0.1,0-0.2,0-0.3,0c-0.1,0-0.2,0-0.4,0c-0.1,0-0.2,0-0.2,0
		c0,0-0.1,0.1-0.2,0.2c-0.1,0.1-0.1,0.2-0.1,0.3c-0.1,0.2-0.1,0.3,0,0.4c0.1,0.1,0.1,0.2,0.2,0.3c0.1,0.2,0.1,0.5,0.2,0.8
		c0,0.3,0,0.6-0.1,0.9c0-0.1,0-0.2-0.1-0.3c-0.1-0.1-0.2-0.1-0.2-0.2c-0.1,0-0.1-0.1-0.1-0.2c0-0.1-0.1-0.1-0.1-0.2
		c-0.1-0.1-0.2-0.2-0.3-0.2c-0.1-0.1-0.1-0.1-0.2-0.2c-0.1-0.1-0.1-0.1-0.2-0.2c0-0.1-0.1-0.1-0.1-0.1c0,0-0.1-0.1-0.1-0.1
		c0,0-0.1-0.1-0.2-0.2c-0.1-0.1-0.3-0.2-0.5-0.3c-0.2-0.1-0.4-0.2-0.6-0.4c-0.1-0.1-0.2-0.1-0.2-0.2c0,0-0.1-0.1-0.3-0.2
		c0,0-0.1,0-0.2,0c-0.1,0-0.2,0-0.4-0.1c-0.1,0-0.2-0.1-0.3,0c-0.1,0-0.1,0-0.2,0c-0.2-0.1-0.3-0.1-0.5,0c-0.1-0.1-0.1-0.1-0.2-0.1
		c-0.1,0-0.2,0-0.3,0c-0.1,0-0.3,0-0.4,0c-0.2,0-0.3,0-0.5,0c-0.4,0-0.7,0-1,0c-0.3,0-0.6,0-1,0c-0.1,0.1-0.2,0.2-0.3,0.2
		c-0.1,0.1-0.3,0.1-0.5,0c-0.1,0.1-0.2,0.1-0.4,0.1c-0.1,0-0.3,0-0.4,0c-0.2,0.1-0.4,0.2-0.6,0.3c-0.2,0.1-0.4,0.1-0.6,0.1
		c0,0.1-0.1,0.2-0.2,0.2c-0.1,0-0.2,0.1-0.2,0.2c-0.1,0.1-0.2,0.1-0.2,0.2c-0.1,0.1-0.2,0.1-0.2,0.2c-0.1,0.2-0.3,0.4-0.4,0.6
		c-0.1,0.2-0.2,0.4-0.4,0.7c-0.1,0-0.2,0.1-0.2,0.1c0,0-0.1,0.1-0.2,0.1c0,0.1,0,0.2-0.1,0.3c-0.1,0.1-0.1,0.1-0.2,0.2
		c-0.1,0.1-0.1,0.2-0.2,0.3c0,0,0,0,0,0l0.5,3.8v4.2l-0.6,2.4c0,0,0.1,0.1,0.1,0.2c0,0.1,0.1,0.2,0.2,0.3c0,0.1,0.1,0.1,0.1,0.2
		c0.1,0.1,0.2,0.1,0.4,0.3c0,0.1,0,0.2,0.1,0.3c0.1,0.1,0.2,0.2,0.3,0.3c0.1,0.1,0.1,0.2,0.2,0.2c0.1,0.1,0.1,0.1,0.3,0.3
		c0,0,0.1,0,0.1,0c0.1,0,0.1,0,0.2,0.1c0,0,0,0,0.1,0.1c0,0,0.1,0.1,0.2,0.3c0.1,0,0.2,0,0.2,0.1c0.1,0,0.1,0.1,0.2,0.1
		c0,0.1,0.1,0.1,0.2,0.2c0.1,0.1,0.1,0.1,0.2,0.2c0.1,0,0.2,0,0.2,0.1c0,0.1,0.1,0.1,0.2,0.1c0,0.1,0.1,0.2,0.1,0.2
		c0.1,0,0.1,0.1,0.2,0.2c0.5,0.1,1,0.2,1.5,0.2c0.1,0,0.1,0.1,0.1,0.1c0,0.1,0.1,0.1,0.2,0.1c0.2,0,0.3,0.1,0.5,0.1
		c0.1,0,0.3,0,0.5,0c0.1,0,0.2,0.1,0.4,0.1c0.2,0,0.3,0,0.3-0.1c0.2,0.1,0.4,0.1,0.5,0.1c0.1,0,0.1,0,0.2,0c0.1,0,0.2,0,0.3,0
		c0.2,0,0.5,0,0.7,0c0.2-0.1,0.4-0.1,0.5-0.2c0.2,0,0.4-0.1,0.5-0.1c0.1,0,0.3-0.1,0.4-0.1c0.1,0,0.2-0.1,0.3-0.1
		c0.1,0,0.2,0,0.3-0.1c0-0.1,0.1-0.1,0.2-0.2c0.1,0,0.2-0.1,0.3-0.1c0.1,0,0.1-0.1,0.2-0.2c0-0.1,0.1-0.1,0.2-0.2
		c0.1-0.1,0.3-0.2,0.4-0.3c0.1-0.1,0.3-0.2,0.5-0.3c0.1,0.3,0.1,0.7,0,1c-0.1,0.3,0,0.6,0.1,0.9c-0.1,0.1-0.1,0.3-0.1,0.5
		c0.1,0.2,0.2,0.4,0.3,0.5c0,0,0.1,0,0.2,0c0.1,0,0.2-0.1,0.4-0.2c0.1,0,0.2,0,0.3-0.1c0.1-0.1,0.2-0.1,0.4-0.1c0.1,0,0.2-0.1,0.4,0
		c0.1,0,0.3,0,0.4,0c0.1,0,0.2,0,0.3,0c0.1,0,0.2,0,0.3,0c0.1,0,0.2,0,0.2,0c0.1,0,0.1,0,0.2,0c0.1,0,0.2-0.1,0.3-0.1
		c0.1-0.1,0.2-0.1,0.3-0.1c0,0,0-0.1,0-0.1c0-0.1,0.1-0.2,0.1-0.3c0-0.2-0.1-0.3-0.2-0.5c-0.1-0.1-0.1-0.3-0.1-0.5
		c0-0.2-0.1-0.4-0.1-0.6c0-0.2-0.1-0.5,0-0.7c0-0.1,0-0.2,0-0.3c0-0.1,0-0.3,0-0.6c0-0.2,0-0.3,0-0.4c0-0.1,0-0.2,0-0.3
		c0.1-0.1,0.1-0.3,0.1-0.6c0-0.2,0-0.4,0-0.5c0.1-0.2,0.2-0.3,0.2-0.5c0-0.1,0-0.3,0-0.6c0,0,0-0.1,0.1-0.2c0-0.1,0-0.2,0-0.4
		c0-0.1,0-0.1,0-0.2c0-0.1,0-0.1,0-0.2c0-0.1,0-0.2,0-0.3c0-0.1,0-0.2-0.1-0.3c0-0.3,0-0.6,0.1-0.9c0.1-0.3,0.1-0.6,0-0.9
		c0.1-0.1,0.1-0.2,0.2-0.4c-0.1-0.1-0.1-0.2-0.1-0.4c0-0.2,0-0.3,0-0.4c0-0.2,0.1-0.3,0.1-0.4c0-0.1,0.1-0.3,0.1-0.4
		c0-0.1,0-0.2,0-0.3c0-0.1,0-0.2,0-0.3c0-0.2,0-0.5,0-0.7c0-0.3,0-0.5,0-0.7c0-0.1,0-0.1,0-0.2c0-0.1,0-0.1,0-0.2c0-0.1,0-0.3,0-0.4
		c0-0.1,0-0.2,0-0.3c0,0,0-0.1,0-0.2c0-0.1,0-0.2,0.1-0.4c0-0.1,0-0.1,0-0.2c0-0.1,0-0.1,0-0.2c0,0,0-0.1,0-0.2c0-0.1,0-0.2,0-0.3
		c0,0,0-0.1,0-0.1c0,0,0-0.1,0-0.2c0,0,0-0.1,0-0.1c0,0,0-0.1,0-0.3c0-0.1,0-0.2,0.1-0.3C125.4,27.7,125.4,27.7,125.4,27.6z
		 M120.6,35.6c0,0.4,0,0.7-0.1,0.9c0,0.3-0.1,0.5-0.2,0.8c0,0.1-0.1,0.2-0.1,0.3c-0.1,0.1-0.1,0.2,0,0.3c-0.1,0.1-0.2,0.2-0.2,0.3
		c-0.1,0.1-0.1,0.3-0.2,0.4c0,0-0.1,0.1-0.1,0.2s-0.1,0.2-0.1,0.2c-0.1,0.1-0.1,0.2-0.2,0.2c-0.1,0.1-0.2,0.2-0.3,0.4
		c0,0.2-0.1,0.3-0.2,0.4c-0.1,0.1-0.2,0.2-0.3,0.3c-0.1,0.1-0.2,0.2-0.3,0.2c-0.1,0.1-0.2,0.2-0.3,0.3c-0.1-0.1-0.2-0.1-0.3-0.1
		c-0.1,0-0.2,0.1-0.2,0.1c0,0-0.1,0-0.1,0c0,0-0.1,0-0.3,0.1c-0.1,0-0.1,0-0.2,0s-0.2,0-0.3,0c-0.1,0-0.1,0-0.2,0
		c-0.1,0-0.2,0-0.2,0c-0.2,0-0.5,0-0.8-0.1c-0.3-0.1-0.6-0.1-1-0.2c0,0-0.1,0-0.2-0.1c-0.1,0-0.2-0.1-0.2-0.1c-0.1,0-0.2,0-0.3-0.1
		c-0.1,0-0.3-0.1-0.5-0.2c-0.2-0.1-0.4-0.2-0.6-0.4c-0.2-0.2-0.4-0.3-0.6-0.5c-0.2-0.2-0.4-0.4-0.5-0.6c-0.2-0.1-0.3-0.2-0.4-0.3
		c-0.1-0.1-0.3-0.2-0.4-0.3c0-0.2,0-0.3,0-0.4c-0.1-0.1-0.1-0.3-0.1-0.4c0,0,0-0.1,0-0.2c0-0.1,0-0.2,0-0.4c0-0.1,0-0.2,0-0.3
		c0-0.1,0-0.2,0-0.3c0-0.2,0.1-0.3,0.1-0.5c0.1-0.1,0.1-0.4,0-0.6c0-0.1,0.1-0.2,0.1-0.3c0-0.1,0.1-0.2,0.1-0.3
		c0-0.2,0.1-0.3,0.1-0.5c0-0.1,0-0.3,0.1-0.4c0-0.1,0.1-0.2,0.1-0.3c0-0.1,0.1-0.2,0.2-0.3c0-0.2,0.1-0.4,0.2-0.5
		c0.1-0.1,0.2-0.3,0.2-0.5c0.2-0.1,0.3-0.2,0.4-0.3c0,0,0.1-0.1,0.2-0.2c0.1-0.1,0.2-0.2,0.3-0.3c0-0.1,0.1-0.1,0.1-0.2
		c0,0,0.1-0.1,0.1-0.2c0,0,0.1,0,0.1,0c0,0,0.1-0.1,0.3-0.1c0.1,0,0.1-0.1,0.2-0.2c0.1-0.1,0.2-0.1,0.4-0.3c0,0,0.1,0,0.1-0.1
		c0.1,0,0.2-0.1,0.4-0.2c0.1-0.1,0.3-0.2,0.3-0.2c0.1-0.1,0.2-0.1,0.4-0.1c0,0,0.1,0,0.2,0c0.1,0.1,0.3,0.1,0.5,0c0,0,0.1,0,0.2,0
		c0.1,0,0.1,0,0.2,0c0.1,0,0.2,0,0.3,0c0.1,0,0.1,0,0.2,0c0.1,0,0.1,0,0.2,0.1c0.1,0,0.1,0.1,0.3,0.1c0.2,0,0.3,0.1,0.4,0.1
		c0.1,0,0.3,0,0.4,0.1s0.3,0.1,0.4,0.2c0.1,0.1,0.3,0.2,0.5,0.3c0.2,0.1,0.4,0.2,0.6,0.4c0.1,0.1,0.2,0.2,0.3,0.3
		c0.1,0.1,0.2,0.2,0.4,0.4c0,0,0.1,0.1,0.1,0.2c0,0.1,0.1,0.1,0.2,0.2c0,0.1,0,0.2,0,0.4c0,0.1,0,0.2,0.1,0.3c0,0.1,0.1,0.2,0.1,0.2
		c0.1,0.1,0.1,0.2,0,0.4c0,0.1,0.1,0.2,0.1,0.3c0.1,0.1,0.1,0.2,0.1,0.4c0,0,0.1,0.1,0.1,0.1c0.1,0,0.1,0.1,0.1,0.1
		c0,0.1,0,0.2,0,0.3c0,0.1,0,0.2,0.1,0.3C120.8,35.3,120.7,35.5,120.6,35.6z"/>
	<path fill="#FFFFFF" d="M50.4,30.9c-0.1,0.2-0.1,0.5,0,0.8c0.1,0.3,0.1,0.5,0.1,0.8c0,0.3,0,0.6,0,0.9c0,0.3,0,0.6,0,0.9
		c0,0.1,0,0.2,0,0.3c0,0.1,0,0.2,0,0.3c0,0.1-0.1,0.3-0.1,0.4c0,0.1-0.1,0.2-0.1,0.3c0,0.2,0,0.5,0,0.7c0,0.2,0,0.5,0,0.7
		c-0.1,0.2-0.1,0.4-0.2,0.5c0,0.1,0,0.2,0,0.2c-0.1,0.3-0.2,0.6-0.4,1c-0.1,0.4-0.2,0.7-0.2,1.1c-0.1,0.4-0.2,0.8-0.4,1
		c-0.2,0.3-0.3,0.6-0.5,0.8c-0.2,0.2-0.3,0.5-0.5,0.7c-0.2,0.2-0.3,0.5-0.4,0.7c-0.1,0.1-0.3,0.2-0.4,0.3c-0.1,0.1-0.2,0.2-0.2,0.3
		c-0.2,0.1-0.3,0.2-0.4,0.3c-0.1,0.1-0.2,0.2-0.4,0.2c-0.1,0.1-0.1,0.2-0.2,0.2c-0.1,0.1-0.2,0.1-0.2,0.2c-0.3,0.2-0.6,0.4-0.8,0.5
		c-0.2,0.1-0.4,0.3-0.6,0.4c-0.2,0-0.4,0-0.5,0.1c-0.1,0.1-0.2,0.2-0.4,0.3c-0.1,0.1-0.2,0.1-0.4,0.1c-0.1,0-0.3,0.1-0.5,0.1
		c-0.2,0.1-0.3,0.1-0.5,0.1c-0.1,0-0.2,0-0.2,0.2c-0.3,0-0.4,0-0.5,0.1c0,0.1-0.1,0.1-0.2,0.1C41.2,47,41,47,40.8,47.1
		s-0.4,0.1-0.5,0.3c-0.1,0-0.2,0-0.3,0.1c-0.1,0-0.2,0-0.4,0c-0.1,0-0.1,0-0.2,0c-0.1,0-0.2,0-0.2,0c-0.2,0.1-0.3,0.1-0.4,0.1
		c-0.1,0-0.1,0-0.2,0c-0.1,0-0.2,0-0.2,0.1c-0.1,0.1-0.2,0.1-0.2,0.1c-0.2,0-0.3,0-0.5,0c-0.2,0-0.3,0-0.5,0c-0.1,0-0.2,0-0.2,0
		c-0.1,0-0.1,0.1-0.2,0.1c-0.1,0-0.2,0-0.3,0c-0.1,0-0.2,0-0.2-0.1c-0.2,0-0.4,0-0.6,0.1c-0.2,0-0.4,0.1-0.6,0c-0.1,0-0.2,0-0.3-0.1
		c-0.1-0.1-0.2-0.1-0.3-0.1c-0.2,0.1-0.4,0.1-0.6,0c-0.2-0.1-0.4-0.1-0.5-0.2c-0.1,0-0.3,0-0.4,0c-0.1,0-0.3,0-0.4,0
		c-0.4-0.1-0.6-0.3-0.7-0.4c-0.1,0-0.2,0.1-0.3,0c-0.1,0-0.2,0-0.3,0c-0.2-0.1-0.4-0.2-0.5-0.3c-0.2-0.1-0.4-0.1-0.6-0.2
		c0-0.1-0.1-0.2-0.3-0.2c-0.1,0-0.2-0.1-0.3-0.1c-0.2-0.1-0.4-0.2-0.5-0.3c-0.1-0.1-0.1-0.1-0.2-0.2c-0.1,0-0.1,0-0.2,0
		c-0.1,0-0.2,0-0.2,0c-0.2-0.1-0.3-0.2-0.5-0.2c-0.2,0-0.3-0.1-0.3-0.2c-0.3,0-0.5-0.1-0.7-0.2c-0.2-0.1-0.4-0.2-0.6-0.4
		c-0.1,0-0.2,0.1-0.3,0c-0.1,0-0.1,0-0.2,0c0-0.1-0.1-0.2-0.2-0.2c-0.1,0-0.2-0.1-0.2-0.2c-0.2,0-0.4,0-0.5-0.2s-0.3-0.2-0.5-0.2
		c-0.1-0.1-0.1-0.1-0.2-0.2C24,44,23.9,44,23.7,44c-0.1-0.3-0.3-0.5-0.6-0.6c-0.2-0.1-0.5-0.3-0.7-0.5c-0.1,0-0.2-0.1-0.2-0.2
		c-0.1-0.1-0.1-0.1-0.2-0.2c-0.2-0.3-0.3-0.5-0.3-0.7c-0.1-0.2-0.2-0.3-0.3-0.3c0-0.1,0-0.2,0-0.3c-0.1-0.1-0.1-0.2-0.2-0.3
		c0-0.1-0.1-0.2-0.1-0.3c0-0.1-0.1-0.2-0.2-0.3c0-0.2,0-0.4-0.1-0.7c-0.1-0.2-0.2-0.5-0.3-0.6c0-0.2,0-0.4-0.1-0.5
		c0-0.1-0.1-0.3-0.2-0.4c0-0.2,0-0.4-0.1-0.6c-0.1-0.2-0.1-0.4-0.2-0.7c0-0.3-0.1-0.7-0.1-1c-0.1-0.3-0.1-0.6-0.1-1
		c0-0.2,0-0.3,0-0.4c0-0.1,0-0.2,0-0.2c0-0.2,0-0.4,0-0.4c0-0.1,0-0.1,0-0.2c0-0.2,0-0.4,0-0.6c0-0.2,0-0.4,0-0.5
		c0-0.2,0.1-0.5,0.2-0.6c0-0.1-0.1-0.2-0.1-0.2c-0.1,0-0.1-0.1-0.1-0.2c0.2-0.2,0.2-0.4,0.1-0.6c-0.1-0.3-0.1-0.5-0.1-0.8
		c0-0.1,0-0.3,0.1-0.4c0-0.1,0.1-0.2,0.1-0.4c0.1-0.3,0.1-0.5,0.2-0.6L20,28.1c0.1-0.2,0.2-0.4,0.2-0.6c0-0.3,0.1-0.5,0.3-0.6
		c-0.1-0.1,0-0.3,0-0.3c0.1-0.1,0.1-0.2,0-0.3c0.1-0.2,0.2-0.4,0.3-0.5c0.1-0.1,0.1-0.1,0.1-0.2c0-0.1,0.1-0.2,0.1-0.3
		c0-0.1,0.1-0.2,0.1-0.2c0.1-0.2,0.2-0.4,0.4-0.6c0.2-0.2,0.3-0.4,0.3-0.6c0.1,0,0.2-0.1,0.3-0.2c0-0.1,0.1-0.2,0.2-0.3
		c0.3-0.3,0.5-0.4,0.5-0.4c0.1-0.1,0.1-0.1,0.1-0.2c0-0.1,0.1-0.2,0.1-0.2c0.2-0.2,0.4-0.4,0.6-0.6c0.1-0.2,0.3-0.4,0.4-0.6
		c0.2-0.3,0.5-0.4,0.7-0.5c0.2-0.1,0.4-0.1,0.6-0.2c0.1,0,0.2-0.1,0.4-0.3c0.4-0.2,0.8-0.4,1.2-0.6c0.4-0.2,0.7-0.4,1-0.6
		c0.1-0.1,0.3-0.2,0.6-0.3c0.2-0.1,0.5-0.2,0.7-0.3c0.1,0,0.2-0.1,0.2-0.1c0.1,0,0.2-0.1,0.2-0.1c0.1-0.1,0.1-0.1,0.2-0.1
		c0,0,0.1-0.1,0.2-0.1c0,0,0.1-0.1,0.2-0.1c0.1,0,0.2,0,0.3-0.1c0.3-0.1,0.6-0.2,1-0.3c0.4-0.1,0.8-0.2,1.2-0.2
		c0.4,0,0.6-0.1,0.8-0.1c0.2,0,0.3-0.1,0.5-0.1c0,0,0.1,0,0.3,0c0.1,0,0.2,0,0.3,0c0.1,0,0.2,0,0.3-0.1c0.1,0,0.2-0.1,0.3-0.1
		c0.1,0,0.2,0,0.3,0c0.1,0,0.2,0,0.3,0c0.5-0.1,1-0.2,1.5-0.3c0.5-0.1,1-0.1,1.4,0c0.1,0,0.2,0.1,0.3,0.1c0.1,0,0.3,0.1,0.4,0.1
		c0.1,0,0.1,0,0.2,0c0.1,0,0.2,0,0.2,0c0.1,0,0.2,0,0.3,0.1c0.1,0,0.2,0.1,0.2,0.1c0.3,0,0.5,0.1,0.7,0.2c0.2,0.1,0.3,0.2,0.4,0.2
		c0.1,0,0.1,0,0.2,0.1c0.3,0.1,0.5,0.2,0.8,0.4c0.3,0.2,0.5,0.3,0.8,0.4c0.2,0,0.3,0.1,0.3,0.2c0,0.1,0.1,0.1,0.1,0.1
		c0.2,0,0.3,0.1,0.4,0.2c0.1,0.1,0.2,0.1,0.3,0.2c0.2,0,0.3,0.1,0.4,0.2c0.1,0.1,0.3,0.2,0.4,0.3c0.2,0.1,0.4,0.1,0.4,0.1
		c0.1,0,0.1,0,0.1,0c0.1,0.1,0.2,0.1,0.3,0.3c0.1,0.1,0.2,0.2,0.3,0.3c0.1,0,0.2,0.1,0.3,0.1c0.1,0,0.2,0.1,0.3,0.1
		c0.1,0.1,0.2,0.2,0.4,0.4c0.2,0,0.4,0,0.6,0.1s0.3,0.2,0.4,0.3c0,0.1,0,0.3,0,0.4c0,0.1,0,0.1,0,0.1c-0.1,0.2-0.2,0.4-0.4,0.5
		c-0.2,0.1-0.3,0.3-0.3,0.5c-0.2,0.2-0.3,0.3-0.4,0.4c-0.1,0.1-0.1,0.2-0.2,0.2c0,0.1-0.1,0.2-0.3,0.4c-0.1,0.2-0.2,0.3-0.2,0.3
		c0,0-0.1,0-0.1,0.1c-0.1,0.1-0.2,0.2-0.3,0.4c-0.1,0.2-0.2,0.3-0.4,0.4c-0.1,0.2-0.2,0.5-0.3,0.6c-0.1,0.2-0.4,0.3-0.8,0.3
		c-0.1,0-0.1-0.1-0.2-0.2c0-0.1-0.1-0.2-0.2-0.2c-0.1,0-0.2,0-0.3-0.1c-0.1-0.1-0.1-0.1-0.2-0.1c-0.1,0-0.2-0.1-0.2-0.1
		c0,0-0.1-0.1-0.1-0.1c0,0,0,0-0.1-0.1c-0.2-0.1-0.4-0.2-0.5-0.3c-0.1-0.1-0.2-0.2-0.3-0.3c-0.2,0-0.4-0.1-0.6-0.2
		c-0.2-0.1-0.4-0.2-0.6-0.3c-0.2,0-0.4-0.1-0.5-0.2c-0.1-0.1-0.2-0.2-0.3-0.2c-0.1-0.1-0.2-0.1-0.3-0.2c-0.1,0-0.2,0-0.4,0
		C39.4,23,39.3,23,39.2,23c-0.1,0-0.1,0-0.2,0c-0.2-0.1-0.4-0.2-0.5-0.2c-0.1,0-0.2-0.1-0.2-0.1c-0.1,0-0.2-0.1-0.4-0.1
		c-0.1,0-0.3,0-0.5,0c-0.1,0-0.2-0.1-0.3-0.1s-0.2-0.1-0.3-0.1c-0.1,0-0.2-0.1-0.3-0.1c-0.1,0-0.2-0.1-0.3-0.1
		c-0.1,0.1-0.2,0.1-0.4,0c-0.1-0.1-0.2-0.1-0.4-0.1c-0.2,0-0.4,0-0.4,0c-0.1,0-0.1,0-0.2-0.1c-0.1,0-0.2,0-0.2,0c-0.1,0-0.1,0-0.2,0
		c-0.1,0-0.2,0-0.4-0.1c-0.2,0-0.3-0.1-0.5-0.1c-0.2,0-0.3,0.1-0.5,0.2c-0.1,0.1-0.3,0-0.3-0.2c-0.1,0-0.1,0.1-0.1,0.2
		c0,0.1,0,0.1-0.1,0.2c-0.1,0-0.2,0-0.3,0c-0.1,0-0.2,0-0.3,0.1c-0.1,0-0.1,0-0.2,0.1c-0.1,0-0.1,0.1-0.2,0.1c-0.1,0-0.2,0-0.3,0
		c-0.1,0-0.2,0.1-0.3,0.1c-0.1,0.1-0.3,0.1-0.4,0.1c-0.1,0-0.3,0-0.4,0.1c-0.3,0.2-0.5,0.4-0.7,0.4c-0.1,0.1-0.3,0.2-0.5,0.3
		c-0.4,0.2-0.7,0.5-0.9,0.7c-0.2,0.2-0.4,0.3-0.6,0.5c-0.1,0.1-0.1,0.3-0.2,0.4c-0.1,0.1-0.2,0.2-0.3,0.3c-0.1,0.1-0.2,0.2-0.3,0.3
		c-0.1,0.1-0.2,0.2-0.3,0.3c0,0.1,0,0.2-0.1,0.3c0,0.1-0.1,0.2-0.1,0.3c-0.1,0-0.2,0.1-0.2,0.1c0,0.1-0.1,0.1-0.2,0.1
		c0,0.1,0.1,0.2,0,0.3c0,0.1,0,0.1,0,0.2c-0.1,0.2-0.3,0.5-0.3,0.7c-0.1,0.3-0.2,0.5-0.4,0.8c0.1,0.1,0,0.3,0,0.4
		c-0.1,0.1-0.1,0.3-0.2,0.5c0,0.1-0.1,0.3-0.1,0.4c0,0.1-0.1,0.3-0.2,0.5c0,0.2,0,0.4,0,0.4c0,0,0,0.1-0.1,0.1c0,0.1,0,0.2,0,0.3
		c0,0.1,0,0.2,0.1,0.2c0,0.3,0,0.5-0.1,0.8c0,0.2-0.1,0.5-0.1,0.8c0,0.2,0,0.5,0,0.8c0,0.3,0,0.5,0,0.8c0,0.2,0,0.3,0,0.5
		c0,0.2,0.1,0.3,0.1,0.5c0.2,0.4,0.3,0.7,0.3,0.9c0,0.2,0.1,0.4,0.3,0.5c0,0.1,0,0.2,0.1,0.3c0.1,0.1,0.1,0.2,0,0.2
		c0.1,0.1,0.1,0.1,0.2,0.2s0.1,0.1,0.1,0.2c0.1,0.2,0.2,0.3,0.2,0.4c0,0.1,0,0.1,0.1,0.2c0.1,0.2,0.3,0.3,0.5,0.4
		c0.2,0.1,0.4,0.3,0.6,0.4c0,0.2,0.1,0.3,0.2,0.4c0.1,0.1,0.2,0.2,0.3,0.3c0.1,0.1,0.2,0.2,0.3,0.3s0.2,0.3,0.2,0.5
		c0.1,0.1,0.3,0.1,0.4,0.2c0.1,0.1,0.3,0.2,0.4,0.2c0.1,0.1,0.3,0.1,0.4,0.2c0.1,0,0.3,0.1,0.4,0.2c0.3,0.2,0.4,0.4,0.6,0.5
		c0.1,0.1,0.3,0.2,0.3,0.4c0.2,0,0.3,0,0.4,0.1c0.1,0.1,0.2,0.1,0.3,0.1c0.1,0,0.2,0.1,0.3,0.1c0.1,0,0.2,0.1,0.3,0.2
		c0.4,0,0.8,0,1.1,0.1c0.3,0.1,0.7,0.2,1.1,0.2c0.1,0,0.3,0.1,0.4,0.1c0.1,0,0.2,0,0.4,0c0.1,0.1,0.3,0.2,0.5,0.2
		c0.2,0,0.4,0,0.5,0.2c0.3-0.1,0.4-0.1,0.5-0.1c0.1,0,0.2,0,0.4,0.1c0.2-0.1,0.4-0.1,0.7-0.2c0.2-0.1,0.4,0,0.6,0
		c0.2-0.2,0.4-0.2,0.7-0.2c0.3,0,0.6,0,0.8-0.1c0.1,0,0.2-0.1,0.2-0.1c0.1,0,0.2-0.1,0.2-0.1c0.2,0,0.3-0.1,0.3-0.1
		c0,0,0.1-0.1,0.1-0.1c0.2,0,0.5-0.1,0.7-0.2c0.2-0.1,0.4-0.2,0.5-0.2c0.1,0,0.2-0.1,0.3-0.2c0.1-0.1,0.3-0.1,0.4-0.2
		c0.2-0.1,0.3-0.2,0.4-0.2c0.1,0,0.1,0,0.2-0.1c0.2-0.2,0.3-0.3,0.4-0.4c0.1-0.1,0.1-0.1,0.2-0.2c0.1-0.2,0.2-0.3,0.3-0.3
		c0.1,0,0.1-0.1,0.1-0.1c0.1-0.2,0.2-0.3,0.2-0.4c0-0.1,0-0.1,0-0.2c0.1-0.2,0.2-0.3,0.2-0.3c0.1,0,0.1,0,0.1-0.1
		c0-0.2,0.1-0.4,0.2-0.5c0.1-0.2,0.2-0.3,0.3-0.4c0-0.1,0.1-0.2,0.2-0.2c-0.1-0.7,0-1.2,0.2-1.6c0-0.1,0-0.2-0.1-0.2
		c0-0.1,0-0.1-0.1-0.2c0-0.1,0-0.1,0-0.2c0-0.1,0-0.1,0-0.2c0-0.1,0-0.2-0.1-0.3c0-0.1,0-0.2,0-0.3c-0.3,0-0.5,0-0.6,0
		c-0.1,0-0.2,0.1-0.2,0.1s-0.2,0-0.4,0c-0.3,0-0.5,0.1-0.8,0.2C43,36,42.7,36,42.5,36c-0.1,0-0.2,0-0.2,0c0-0.1-0.1-0.1-0.1-0.2
		c-0.3,0.2-0.5,0.4-0.7,0.4c-0.2,0-0.4,0-0.6,0c-0.3,0.2-0.6,0.3-1,0.3c-0.4,0-0.7,0.1-1,0.3c-0.1,0-0.3-0.1-0.4-0.1
		c-0.1,0-0.3,0-0.5,0c-0.2-0.2-0.2-0.4-0.3-0.7c0-0.2,0-0.5-0.1-0.8c0-0.1-0.1-0.3-0.1-0.4c-0.1-0.1-0.1-0.3-0.1-0.5
		c0-0.2,0-0.3-0.1-0.4c0-0.1-0.1-0.1-0.1-0.2c-0.1-0.2-0.1-0.3-0.2-0.4c-0.1-0.1-0.1-0.2-0.1-0.3c0.1-0.1,0.2-0.2,0.3-0.3
		c0.1-0.1,0.2-0.2,0.4-0.2c0.1-0.1,0.2-0.1,0.3,0c0.1,0.1,0.2,0.1,0.3,0.1c0.3,0,0.5-0.1,0.6-0.2c0.1-0.1,0.2-0.1,0.3,0
		c0.1-0.1,0.2-0.2,0.3-0.2c0.1,0,0.2,0,0.3-0.1c0.2,0,0.3,0,0.4,0c0.1,0,0.2,0,0.3,0c0.1,0,0.1,0,0.2,0c0.1,0,0.2-0.1,0.3-0.1
		c0.1,0,0.3,0,0.4,0c0.1,0,0.3,0,0.4,0c0.2-0.1,0.3-0.1,0.3-0.1c0,0,0.1,0,0.2,0c0.2-0.1,0.3-0.1,0.4-0.1c0,0,0.1,0,0.1,0
		c0.1,0,0.2-0.1,0.3-0.2c0.1-0.1,0.2-0.1,0.3-0.1c0.1,0,0.1,0,0.2,0c0.1,0,0.2,0,0.2,0c0.2,0,0.3,0,0.5-0.1c0.1-0.1,0.3-0.1,0.5-0.1
		c0.2,0,0.4,0,0.5,0c0.2,0,0.4,0,0.6-0.1c0.1,0,0.2-0.1,0.4-0.1c0.1,0,0.2-0.1,0.4-0.1c0.2,0,0.3,0,0.5,0c0.2,0,0.3,0,0.5,0
		c0.1,0,0.2,0,0.2-0.1c0.1,0,0.1-0.1,0.2-0.1c0.2,0,0.5-0.1,0.9-0.1c0.3,0,0.7-0.1,1-0.2c0.1,0.1,0.2,0.2,0.3,0.3
		C50.1,30.9,50.2,30.9,50.4,30.9z"/>
	<path fill="#FFFFFF" d="M134.4,45.8c0,0.2-0.1,0.3-0.4,0.2c0,0-0.1,0.1,0,0.2c0,0.1,0,0.2-0.1,0.2c-0.2,0.1-0.4,0.1-0.6,0
		c-0.2-0.1-0.3-0.1-0.4-0.2c-0.5-0.1-1-0.2-1.6-0.1c-0.5,0-1.1,0-1.6-0.1c-0.1-0.2-0.2-0.2-0.2-0.2c0,0.1,0,0.1-0.1,0
		c-0.1-0.1-0.2-0.2-0.2-0.4c0-0.1,0-0.3,0-0.4l0-0.6c0-0.2,0-0.3,0.1-0.5c0-0.2,0-0.3,0-0.5c0-0.4,0-0.8,0-1.3
		c0-0.5,0.1-0.9,0.3-1.2c-0.1-0.1-0.1-0.3-0.1-0.5c0.1-0.2,0.1-0.4,0.1-0.6c0-0.1,0-0.2,0-0.4c0-0.1,0-0.3,0.1-0.4
		c-0.1-0.1-0.1-0.2-0.1-0.4c0-0.1,0.1-0.3,0.1-0.5c0-0.1,0-0.2,0-0.2c0-0.1,0-0.1,0.1-0.2c0-0.2,0-0.3-0.1-0.5c0-0.1,0-0.3,0-0.6
		c0-0.1,0-0.1,0-0.2c0-0.1,0-0.1,0-0.2c0-0.1,0-0.3,0-0.3c0-0.1,0-0.1,0-0.2c0-0.1,0-0.2,0-0.3c0-0.1,0-0.2,0-0.4
		c0-0.2,0.1-0.3,0.1-0.3c0-0.1,0-0.2,0-0.3c0-0.1,0-0.2-0.1-0.3c0-0.3,0-0.6,0-0.8c0-0.2,0-0.4-0.1-0.7c0-0.1,0-0.3,0-0.5
		c0-0.2,0-0.4,0-0.6c0-0.2,0-0.4,0-0.5c0-0.1,0-0.2-0.1-0.4c0-0.1,0-0.2,0-0.3c0-0.1,0-0.2,0-0.3c0-0.2,0-0.3,0-0.4
		c0-0.1,0-0.1,0-0.2c0-0.1,0-0.2,0-0.4c0-0.1,0-0.3-0.1-0.5c0-0.2,0-0.4,0-0.7c0-0.2,0-0.5,0-0.7c0-0.1,0-0.2,0-0.2
		c0-0.1,0-0.1,0-0.2c0-0.1,0.1-0.2,0-0.3c0,0-0.1-0.1-0.1-0.1c0-0.1,0.1-0.2,0-0.3c0-0.1,0-0.1,0-0.1c0.1-0.2,0.1-0.4,0-0.4
		c0-0.1,0-0.2,0-0.2c0-0.1,0-0.3,0-0.4c0-0.1,0-0.3,0-0.4c0.1-0.1,0.2-0.2,0.1-0.3c0-0.1-0.1-0.3,0-0.4c0-0.1,0-0.2,0.1-0.4
		c0.1-0.1,0.1-0.2,0-0.3c0.1,0,0.1-0.1,0.1-0.2c0-0.1,0.1-0.2,0.1-0.2c0-0.2,0-0.4,0.1-0.6c0.1-0.2,0.2-0.5,0.2-0.7
		c0-0.1,0-0.2,0-0.2c-0.1,0-0.1-0.1-0.1-0.1c0-0.2,0.1-0.3,0.1-0.5c0-0.2,0.1-0.3,0.3-0.3c0.4,0.1,0.8,0.1,1.2,0.2
		c0.4,0,0.7,0.1,1.1,0.1c0.1,0,0.2-0.1,0.3-0.1c0.1,0,0.2-0.1,0.3-0.1c0.1,0,0.2,0.1,0.4,0.2c0.2,0.1,0.3,0.2,0.4,0.2
		c0.1,0.1,0.1,0.2,0.1,0.3c0,0.1,0.1,0.2,0.1,0.3c0,0.1,0,0.2-0.1,0.2c-0.1,0-0.1,0.1-0.2,0.1l0,0.4c-0.1,0.2-0.1,0.4,0,0.5
		c0,0.1,0.1,0.2,0.1,0.2c0,0.1,0,0.3,0,0.4s-0.1,0.3-0.1,0.4c0,0.1,0,0.1,0,0.2c0,0.1,0,0.2,0.1,0.2c0,0.1,0,0.1,0,0.2
		c0,0.1,0,0.1,0.1,0.2c0,0.2,0,0.4-0.1,0.6c0,0.2-0.1,0.4-0.1,0.6c0,0.2,0,0.4,0,0.4c0,0.1,0,0.1,0,0.2c0.1,0.2,0.1,0.4,0.1,0.5
		c0,0.1,0,0.1,0,0.2c0,0.2,0,0.4,0,0.6c0,0.1,0,0.3,0,0.4c0,0.3,0,0.6,0,0.9c0,0.3,0,0.6,0.1,0.8c-0.1,0.2-0.1,0.3-0.1,0.5
		c0,0.2,0.1,0.4,0.1,0.6c0,0.1,0,0.3,0,0.4c0,0.1,0,0.3-0.1,0.4c0,0.1,0,0.2,0,0.3c-0.1,0.1-0.1,0.2-0.1,0.3c0,0.3,0,0.5,0,0.8
		c0,0.3,0,0.5,0,0.8c0,0.3,0,0.6-0.1,0.9c0,0.3,0,0.6,0,0.9c0,0.2-0.1,0.3,0,0.4c0,0.1,0,0.1,0,0.2c0,0.2-0.1,0.3-0.1,0.4
		c0,0.1-0.1,0.3-0.1,0.4c0,0.1,0,0.2,0,0.3c0,0.1,0,0.2,0,0.4s0,0.3,0,0.4c0,0.1,0,0.3,0,0.4c0,0.3,0,0.6,0,0.9c0,0.3,0,0.6,0,0.9
		c0,0.2,0,0.5-0.1,0.7c0,0.2,0,0.4,0,0.7c0,0.1,0,0.3,0,0.5c0,0.2,0,0.3,0,0.5c0,0.1,0,0.2,0.1,0.2c0,0.1,0,0.2,0,0.2
		c0,0.4,0,0.7-0.1,1.1c-0.1,0.4-0.1,0.7,0,1.1c0.1,0.1,0.2,0.2,0.4,0.2c0.2,0,0.3,0.1,0.4,0.2L134.4,45.8z"/>
	<path fill="#FFFFFF" d="M199.4,36.3c0,0.5,0,0.9,0,1.3c0,0.4,0,0.7-0.1,1c-0.1,0.2-0.1,0.4-0.1,0.5s0,0.2,0,0.2
		c-0.1,0.4-0.1,0.6-0.1,0.9c0,0.2,0,0.4,0,0.6c0,0.2,0,0.4-0.1,0.5c0,0.2,0,0.4,0,0.5c0,0.1,0,0.2,0,0.3c0,0.1,0,0.2,0,0.3
		c0,0.3,0,0.6-0.1,0.8c-0.1,0.3-0.1,0.5,0,0.8c0,0.2,0.1,0.3,0.2,0.5c0.1,0.2,0.1,0.3,0.1,0.5c0,0.2-0.2,0.3-0.4,0.4
		c-0.2,0.1-0.5,0.2-0.7,0.2c0,0-0.1,0-0.1,0c-0.1,0-0.1,0-0.2,0c-0.5,0-1,0-1.4-0.1c-0.4-0.1-0.8-0.2-1.2-0.3
		c-0.1-0.1-0.1-0.2-0.2-0.3c-0.1-0.1-0.2-0.2-0.2-0.3c0-0.2,0-0.4,0-0.6c0-0.2,0-0.4,0-0.7c0.1-0.4,0.2-0.6,0.1-0.7
		c0-0.1,0-0.2,0.1-0.4c0.1-0.2,0.1-0.3,0.2-0.3c-0.1-0.2-0.2-0.3-0.1-0.5c0.1-0.2,0.1-0.3,0.1-0.5c0-0.2,0-0.3,0-0.4
		c0-0.1,0-0.3,0-0.4c0-0.2,0.1-0.3,0.1-0.3c0-0.1,0-0.1,0-0.1c0-0.3,0.1-0.5,0.1-0.6c0-0.1,0-0.3,0-0.4c0-0.1,0-0.2,0-0.2
		c0-0.1,0-0.1,0-0.2c0-0.3,0-0.5,0-0.7c0-0.2,0-0.3-0.1-0.4c0.1-0.1,0.1-0.2,0.1-0.3c0-0.1,0-0.2,0.1-0.3c0-0.1,0.1-0.2,0.1-0.3
		c0-0.1,0-0.2,0-0.3c0-0.5,0-0.9,0-1.3c0-0.4,0-0.8,0-1.1c0-0.1,0-0.2,0-0.2c0-0.1-0.1-0.2-0.1-0.2c0-0.2,0-0.3,0-0.3
		c0,0,0-0.1,0-0.1c0-0.1,0-0.1,0-0.2c0-0.1,0-0.2,0-0.2c0-0.1,0-0.2,0-0.3c0-0.1,0-0.2,0-0.2c0-0.1-0.1-0.2-0.1-0.3
		c-0.1-0.1-0.1-0.2-0.1-0.2c0-0.1-0.1-0.2,0-0.3c0-0.1,0-0.2,0-0.3c0,0-0.1-0.1-0.2-0.1c-0.1,0-0.1-0.1-0.2-0.2
		c-0.1,0-0.1-0.1-0.2-0.1c0,0-0.1-0.1-0.2-0.1c-0.2-0.1-0.3-0.3-0.5-0.4c-0.1-0.1-0.4-0.2-0.7-0.1c-0.4,0.1-0.7,0.1-0.9,0.1
		c-0.3,0-0.5,0-0.7,0c-0.4,0-0.7,0.1-1,0.1c-0.3,0.1-0.5,0.2-0.6,0.3c-0.1,0.1-0.2,0.2-0.3,0.3c-0.1,0-0.1,0.1-0.2,0.1
		c-0.1,0-0.1,0.1-0.1,0.1c-0.1,0-0.1,0.1-0.2,0.1c0,0.1-0.1,0.1-0.2,0.1c0,0.1-0.1,0.2-0.1,0.3c0,0.1-0.1,0.1-0.2,0.1
		c0,0.2-0.1,0.5-0.2,0.6c-0.1,0.2-0.2,0.4-0.3,0.5c-0.1,0.2-0.2,0.4-0.2,0.6c-0.1,0.1-0.1,0.3-0.1,0.4c0,0.1-0.1,0.3-0.1,0.4
		c0,0.2-0.1,0.4-0.1,0.5c-0.1,0.3-0.1,0.6-0.1,0.7c0,0.2-0.1,0.3-0.2,0.4c0.1,0.7,0.1,1.2,0,1.8c0,0.2-0.1,0.4-0.1,0.5
		c0,0.2-0.1,0.3-0.1,0.5c0,0.2-0.1,0.5-0.1,0.8c0,0.3,0,0.5,0,0.7c0,0.2,0,0.5,0,0.7c0,0.2-0.1,0.5-0.2,0.7c0,0.1,0.1,0.2,0.1,0.3
		c0,0.1,0,0.2,0.1,0.3c0,0.1,0,0.2-0.1,0.2c-0.1,0-0.1,0.1-0.1,0.2c0,0,0.1,0.1,0,0.2c0,0.1,0,0.1,0.1,0.1c0.1,0.1,0.1,0.2,0.1,0.4
		c0,0.1,0,0.3,0,0.5c0.1,0.4,0.2,0.7,0.1,0.9c0,0.2,0.1,0.3,0.2,0.4c0.1,0.1,0.2,0.2,0.2,0.4c0,0.1,0,0.1-0.1,0.2
		c-0.1,0.1-0.1,0.2-0.1,0.2c0,0-0.1,0.1-0.2,0.1c-0.1,0.1-0.2,0.1-0.2,0.1c-0.1,0-0.2,0-0.2,0c-0.1,0-0.2-0.1-0.3-0.1
		c-0.2,0-0.4-0.1-0.5-0.1c-0.2,0-0.5,0-0.7,0c-0.2,0-0.4,0.1-0.7,0.1c-0.2,0-0.3,0-0.5,0c-0.2,0-0.4,0-0.5,0
		c-0.1-0.1-0.1-0.1-0.1-0.2c0-0.1-0.1-0.2-0.2-0.2c0-0.4,0.1-0.8,0-1.1c0-0.3,0-0.6,0.1-0.9c-0.1-0.2-0.1-0.4-0.1-0.5
		c0-0.1,0.1-0.3,0-0.5c0-0.2-0.1-0.3-0.1-0.4c0-0.1,0-0.1,0-0.2c0-0.1,0-0.2-0.1-0.3c0-0.1,0-0.1,0-0.2c0-0.4-0.1-0.8,0-1.2
		c0-0.5,0-1,0-1.5c0-0.2,0-0.4,0-0.5c-0.1-0.1-0.1-0.2-0.1-0.3c0-0.2,0-0.4,0-0.5c0-0.1,0-0.2,0-0.3c0-0.2,0-0.3,0-0.4
		c0-0.1,0-0.3,0-0.4c0,0,0-0.1,0-0.2c0-0.1,0-0.2,0.1-0.3c0-0.2,0-0.4,0-0.6c0-0.2,0-0.5,0-0.7c0-0.2,0-0.3,0-0.5c0-0.2,0-0.4,0-0.6
		c0-0.1,0-0.3,0-0.5c0-0.2,0-0.4,0-0.6c0-0.2,0-0.4,0-0.6c0-0.2,0-0.3,0.1-0.4c0-0.2,0.1-0.4,0-0.7c0-0.3,0-0.5,0-0.8v-0.5
		c0-0.2,0-0.4,0-0.6c0-0.2,0-0.4,0-0.5c0-0.1,0-0.1,0-0.2c0-0.1,0-0.2,0-0.2c0-0.1,0-0.3,0-0.4c0-0.1-0.1-0.3-0.1-0.4
		c0-0.1,0-0.2,0-0.2c0-0.1,0-0.2,0-0.2c0-0.1,0-0.2,0-0.2c0-0.1,0-0.1-0.1-0.2c0-0.3,0-0.6,0-0.9c0-0.3,0-0.6-0.2-0.8
		c0-0.4,0.1-0.8,0-1.2c0-0.4,0-0.8,0-1.2c0-0.3,0-0.6,0-1c0-0.3,0-0.7,0-1c0.2-0.2,0.4-0.3,0.7-0.3c0.3,0,0.6,0,0.9,0
		c0.2,0,0.3,0,0.4-0.1c0.1,0,0.3,0,0.4,0c0.2,0,0.3,0,0.6,0s0.4,0,0.4,0c0.1,0,0.2,0,0.2,0.1c0,0.1,0.1,0.1,0.2,0.1
		c0.1,0.2,0.1,0.5,0.2,0.7c0.1,0.2,0.1,0.4,0,0.6c-0.1,0.2-0.1,0.2-0.1,0.3c0,0,0,0.1,0,0.1c0,0.2-0.1,0.5-0.1,1
		c0,0.4-0.1,0.8-0.1,1.1c0,0.3,0,0.7,0,1c0,0.3,0,0.6,0,0.8c0,0.3,0,0.7,0,1c0,0.4,0,0.7,0,1c0,0.1,0,0.2,0.1,0.3c0,0.1,0,0.2,0,0.3
		c0,0.1-0.1,0.2-0.1,0.3c0,0.1,0,0.2,0,0.3c0.1,0,0.2,0,0.3-0.1c0.1-0.1,0.2-0.3,0.3-0.4c0.2-0.1,0.3-0.2,0.4-0.3
		c0.1-0.1,0.2-0.2,0.2-0.2c0.2-0.1,0.3-0.2,0.3-0.2c0.1-0.1,0.1-0.1,0.2-0.1c0.1,0,0.2-0.1,0.3-0.2c0.1-0.1,0.2-0.1,0.2-0.2
		c0,0,0.1-0.1,0.1-0.1c0,0,0.1-0.1,0.1-0.1c0.2,0,0.2-0.1,0.3-0.1c0,0,0.1,0,0.1,0c0.2-0.1,0.4-0.2,0.6-0.2c0.2-0.1,0.4-0.1,0.7-0.2
		c0.2-0.1,0.3-0.1,0.4-0.1c0.1,0,0.2,0,0.4-0.1c0.1,0,0.3,0,0.4-0.1c0.2,0,0.3,0,0.4-0.1c0.1,0,0.3,0,0.5,0c0.2,0,0.4,0,0.5,0
		c0.2,0,0.5,0,0.8,0c0.3,0,0.5,0,0.8,0.1c0,0,0.1,0,0.2,0.1c0.1,0,0.1,0,0.2,0.1c0.2,0,0.4,0.1,0.5,0.2c0.1,0.1,0.3,0.2,0.4,0.3
		c0.1,0.1,0.2,0.3,0.3,0.4c0.1,0.1,0.2,0.2,0.2,0.2c0,0.1,0,0.1,0,0.1c0.1,0.1,0.2,0.3,0.2,0.4c0,0.1,0.1,0.2,0.3,0.2
		c0,0.1,0.1,0.2,0.2,0.3c0.1,0.1,0.1,0.2,0.2,0.3c0,0.1,0.1,0.2,0.1,0.3c0,0.1,0.1,0.2,0.1,0.3c0,0.1,0.1,0.2,0.1,0.3
		c0,0.1,0.1,0.2,0.1,0.3c0,0.1,0,0.1,0,0.2c0,0.1,0,0.1,0,0.2c0.1,0.2,0.2,0.4,0.3,0.6c0.1,0.1,0.1,0.3,0.2,0.4c0,0.2,0,0.3,0,0.3
		c0,0,0,0.1,0.1,0.1c0,0,0,0.1,0,0.2c0,0.1,0,0.1,0,0.2c0,0.2,0.1,0.5,0.2,0.7c0.1,0.3,0.1,0.5,0.1,0.7c0,0.3,0,0.5,0,0.8
		c0,0.3-0.1,0.5,0,0.8c0,0.1,0,0.2,0.1,0.3c0,0.1,0,0.2,0,0.3c0,0.1,0,0.4,0,0.7C199.4,35.9,199.5,36.1,199.4,36.3z"/>
	<path fill="#FFFFFF" d="M247.1,45.6c0,0.2-0.1,0.3-0.4,0.3c0,0-0.1,0.1,0,0.2c0,0.1,0,0.2-0.1,0.2c-0.2,0.1-0.4,0.1-0.6,0
		c-0.2,0-0.4-0.1-0.5-0.2c-0.5-0.1-1.1-0.1-1.7,0c-0.6,0.1-1.1,0.1-1.7,0c-0.2-0.2-0.2-0.2-0.2-0.1c0,0.1,0,0.1-0.1,0
		c-0.1-0.1-0.2-0.2-0.2-0.4c0-0.1,0-0.3,0-0.4v-0.6c0-0.2,0-0.3,0-0.5c0-0.2,0-0.3,0-0.5c0-0.4,0-0.8-0.1-1.3c0-0.5,0-0.9,0.2-1.3
		c-0.1-0.1-0.1-0.3-0.1-0.5c0.1-0.2,0.1-0.4,0.1-0.6c0-0.1,0-0.2,0-0.4c0-0.1,0-0.3,0.1-0.4c-0.1-0.1-0.1-0.2-0.1-0.4
		c0-0.2,0.1-0.3,0.1-0.5c0-0.1,0-0.2,0-0.2c0-0.1,0-0.1,0.1-0.2c0-0.2-0.1-0.3-0.1-0.5c-0.1-0.2-0.1-0.4,0-0.6c0-0.1,0-0.1,0-0.2
		c0-0.1,0-0.1,0-0.2c0-0.2-0.1-0.3,0-0.3c0-0.1,0-0.1,0-0.2c0-0.1,0-0.2,0-0.3c0-0.1,0-0.2,0-0.4c0-0.2,0.1-0.3,0.1-0.4
		c0-0.1,0-0.2,0-0.3c0-0.1-0.1-0.2-0.1-0.3c0-0.4,0-0.6,0-0.9c0-0.2-0.1-0.5-0.1-0.7c0-0.2,0-0.3-0.1-0.5c0-0.2,0-0.4,0-0.6
		c0-0.2,0-0.4,0-0.5c0-0.1-0.1-0.2-0.1-0.4c0-0.1,0-0.2,0-0.3c0-0.1,0-0.2,0-0.3c0-0.2-0.1-0.3,0-0.4c0-0.1,0-0.1,0-0.2
		c0-0.1,0-0.2,0-0.4c0-0.2-0.1-0.3-0.1-0.5c0-0.2-0.1-0.5-0.1-0.7c0-0.2,0-0.5,0-0.7c0-0.1,0-0.2,0-0.2c0-0.1,0-0.1,0-0.2
		c0-0.1,0-0.2,0-0.3c0,0-0.1-0.1-0.1-0.1c0-0.2,0.1-0.3,0-0.3c0-0.1,0-0.1,0-0.1c0-0.2,0-0.4,0-0.5c0-0.1,0-0.2,0-0.2
		c0-0.1,0-0.3,0-0.4c0-0.1,0-0.3-0.1-0.4c0.1-0.1,0.2-0.2,0.1-0.3c0-0.1-0.1-0.3-0.1-0.4c0-0.1,0-0.3,0.1-0.4c0.1-0.1,0.1-0.2,0-0.3
		c0.1,0,0.1-0.1,0.1-0.2c0-0.1,0.1-0.2,0.1-0.2c0-0.2,0-0.4,0.1-0.6c0.1-0.3,0.2-0.5,0.2-0.7c0-0.1,0-0.2,0-0.2
		c-0.1,0-0.1-0.1-0.1-0.1c0-0.2,0.1-0.4,0.1-0.5c0-0.2,0.1-0.3,0.3-0.4c0.4,0.1,0.8,0.1,1.2,0.1c0.4,0,0.7,0,1.1,0
		c0.1,0,0.2-0.1,0.3-0.1c0.1-0.1,0.2-0.1,0.3-0.1c0.1,0,0.3,0,0.4,0.1c0.2,0.1,0.3,0.2,0.4,0.2c0.1,0.1,0.1,0.2,0.1,0.3
		c0,0.1,0.1,0.2,0.1,0.3c0,0.1,0,0.2-0.1,0.2c-0.1,0-0.2,0.1-0.2,0.1v0.4c0,0.2,0,0.4,0,0.5c0,0.1,0.1,0.2,0.1,0.2
		c0,0.2,0,0.3,0,0.4c0,0.1,0,0.3,0,0.4c0,0.1,0,0.1,0,0.2c0,0.1,0,0.2,0.1,0.2c0,0.1,0,0.1,0,0.2c0,0.1,0,0.1,0.1,0.2
		c0,0.2,0,0.4,0,0.6c0,0.2,0,0.4,0,0.6c0,0.2,0,0.4,0,0.5c0,0.1,0,0.2,0,0.2c0.1,0.2,0.1,0.4,0.1,0.5c0,0.1,0,0.1,0,0.2
		c0,0.2,0,0.4,0,0.6c0,0.1,0,0.3,0.1,0.4c0,0.3,0.1,0.6,0.1,0.9s0.1,0.6,0.2,0.9c-0.1,0.2-0.1,0.4,0,0.5c0.1,0.2,0.1,0.4,0.1,0.6
		c0,0.2,0,0.3,0,0.4c0,0.1,0,0.3,0,0.5c0,0.1,0,0.2,0,0.3c-0.1,0.1-0.1,0.2-0.1,0.3c0,0.3,0,0.5,0.1,0.8c0,0.3,0.1,0.5,0.1,0.8
		c0,0.3,0,0.6,0,0.9c0,0.3,0,0.6,0,0.9c0,0.2-0.1,0.3,0,0.4c0,0.1,0,0.1,0,0.2c0,0.2,0,0.3-0.1,0.5c0,0.1,0,0.3,0,0.4
		c0,0.1,0,0.2,0,0.3c0,0.1,0,0.2,0,0.4c0,0.1,0,0.3,0,0.4c0,0.1,0,0.3,0,0.4c0,0.3,0,0.6,0.1,0.9c0,0.3,0,0.6,0,0.9
		c0,0.2,0,0.5,0,0.7c0,0.2,0,0.5,0,0.7c0,0.2,0,0.3,0.1,0.5c0,0.2,0,0.3,0.1,0.5c0,0.1,0,0.2,0.1,0.2c0,0.1,0,0.2,0,0.2
		c0,0.4,0,0.7-0.1,1.1c-0.1,0.4-0.1,0.7,0.1,1.1c0.1,0.1,0.2,0.2,0.4,0.2c0.2,0,0.3,0.1,0.4,0.2L247.1,45.6z"/>
	<path fill="#FFFFFF" d="M261.4,39.4c-0.1,0.2-0.1,0.4-0.1,0.6c0,0.2,0,0.4,0,0.6c0,0.3-0.1,0.5-0.2,0.6c-0.1,0.1-0.1,0.3-0.2,0.4
		c-0.1,0.2-0.2,0.4-0.3,0.6c-0.1,0.2-0.2,0.5-0.2,0.7c-0.1,0-0.2,0.1-0.2,0.2c-0.1,0.1-0.1,0.2-0.2,0.3c0,0.1-0.1,0.2-0.2,0.2
		c-0.1,0.1-0.1,0.1-0.2,0.3c-0.1,0-0.2,0.1-0.3,0.2c-0.1,0.1-0.1,0.2-0.2,0.2c-0.2,0.2-0.3,0.3-0.4,0.3s-0.1,0.1-0.2,0.1
		c0,0.1-0.1,0.2-0.2,0.2c-0.1,0-0.2,0.1-0.3,0.1c-0.1,0-0.2,0.1-0.3,0.2c-0.1,0.1-0.2,0.1-0.3,0.2c0,0-0.1,0-0.2,0
		c-0.1,0-0.1,0-0.2,0c-0.3,0.1-0.5,0.2-0.6,0.2c-0.2,0-0.3,0-0.4,0.1c-0.2,0-0.4,0.1-0.6,0.1c-0.2,0-0.4,0-0.6,0
		c-0.3-0.1-0.6-0.1-0.7-0.2c-0.1,0-0.2,0-0.3-0.1c-0.2-0.1-0.4-0.1-0.5-0.2c-0.1-0.1-0.3-0.1-0.4-0.1c-0.1,0-0.2,0.1-0.3,0
		c0,0-0.1-0.1-0.1-0.1c-0.1,0-0.2,0-0.4-0.1c-0.1,0-0.2-0.1-0.4-0.1c-0.1,0-0.1,0-0.2-0.1c-0.1,0-0.2,0-0.3,0
		c-0.1-0.2-0.3-0.3-0.7-0.3c0-0.1-0.1-0.2-0.2-0.2c-0.1-0.1-0.1-0.2-0.2-0.2c0,0-0.1-0.1-0.2-0.1c-0.1,0-0.2-0.1-0.2-0.2
		c-0.1,0-0.2,0-0.2,0c0,0-0.1,0-0.2-0.1c-0.1-0.1-0.2-0.2-0.3-0.2c-0.1-0.1-0.2-0.2-0.4-0.2c0-0.2-0.1-0.3-0.3-0.4
		c-0.1,0-0.2-0.2-0.3-0.3c0-0.1,0-0.2,0-0.3c0-0.1,0-0.2,0-0.3c0-0.2,0.1-0.5,0.4-0.7c0.1-0.1,0.2-0.2,0.3-0.3
		c0.1-0.1,0.2-0.2,0.3-0.3c0.1-0.2,0.2-0.3,0.3-0.4c0.1-0.1,0.2-0.1,0.2-0.2c0.1-0.1,0.1-0.2,0.1-0.4c0-0.1,0.1-0.2,0.1-0.3
		c0.1-0.2,0.2-0.4,0.2-0.5c0-0.1,0-0.2,0.1-0.2c0.2-0.2,0.4-0.3,0.6-0.3c0.3,0,0.5,0.1,0.7,0.3c0.2,0.2,0.3,0.3,0.5,0.4
		c0.1,0.3,0.2,0.4,0.2,0.5c0,0.1,0,0.2,0.1,0.2c0.1,0.2,0.3,0.4,0.5,0.5c0.2,0.1,0.4,0.3,0.6,0.5c0.3,0.1,0.6,0.2,0.9,0.2
		c0.3,0,0.7,0,1,0c0.1,0,0.2,0,0.3,0c0.1,0,0.2,0,0.2,0c0.2,0,0.3-0.1,0.4-0.2c0.1-0.1,0.2-0.2,0.3-0.2c0-0.1,0.1-0.3,0.1-0.4
		c0-0.1,0.1-0.2,0.1-0.4c0,0,0-0.1,0-0.2c0-0.1,0-0.1,0-0.2c0-0.2,0.1-0.3,0.1-0.4c0-0.1,0-0.3-0.1-0.5c-0.1-0.2-0.2-0.3-0.2-0.3
		c0,0,0-0.1-0.1-0.1c-0.2-0.2-0.4-0.4-0.6-0.6c-0.2-0.2-0.4-0.4-0.5-0.6c-0.1,0-0.2-0.1-0.4-0.1c-0.1,0-0.2-0.1-0.3-0.3
		c-0.3,0-0.5-0.1-0.7-0.2c-0.2-0.1-0.5-0.2-0.7-0.3c-0.1,0-0.2-0.1-0.2-0.1c-0.1,0-0.2,0-0.2-0.1c-0.1,0-0.1-0.1-0.2-0.2
		c-0.1-0.1-0.2-0.1-0.3-0.1c0-0.2-0.1-0.3-0.3-0.4c-0.1-0.1-0.3-0.2-0.3-0.3c-0.1,0-0.3,0-0.4-0.1c-0.2-0.1-0.4-0.1-0.4-0.2
		c0,0-0.1,0,0-0.1c-0.1,0-0.3-0.1-0.4-0.2c-0.1-0.1-0.3-0.2-0.3-0.3c0-0.2-0.1-0.3-0.2-0.4c-0.1-0.1-0.2-0.2-0.2-0.3
		c0-0.1-0.1-0.2-0.1-0.4c0-0.1-0.1-0.2-0.2-0.3c0-0.1,0.1-0.2,0-0.3c0-0.1-0.1-0.2-0.1-0.3c0-0.1-0.1-0.2-0.1-0.3
		c0-0.1-0.1-0.2-0.1-0.3c0-0.1,0-0.2,0.1-0.4c0-0.1,0.1-0.3,0.1-0.4c0-0.2,0-0.3,0-0.5c0-0.2,0-0.3,0-0.5c0-0.2,0-0.3,0.1-0.4
		c0-0.1,0.1-0.1,0.1-0.2c0-0.2,0-0.4,0-0.5c0-0.1,0-0.3,0.1-0.4c0-0.1,0.1-0.2,0.1-0.3c0-0.1,0.1-0.1,0.2-0.3
		c0.1-0.2,0.2-0.3,0.3-0.6c0.1-0.2,0.3-0.4,0.5-0.5c0.1-0.3,0.2-0.5,0.4-0.6c0.2-0.1,0.3-0.3,0.5-0.6c0.1,0,0.2,0,0.3-0.1
		c0.1,0,0.2-0.1,0.3-0.1c0.1-0.1,0.2-0.1,0.4-0.2c0.2,0,0.4-0.1,0.5-0.1c0.1,0,0.2-0.1,0.3-0.2c0.1-0.1,0.1-0.1,0.2-0.2
		c0.3,0,0.4-0.1,0.5-0.1c0.1,0,0.1,0,0.2,0c0.3-0.1,0.6-0.2,0.8-0.2c0.2,0,0.5,0,0.8,0c0.2,0.1,0.4,0.2,0.4,0.2c0.1,0,0.2,0,0.3,0
		c0.2,0.1,0.3,0.2,0.4,0.2c0.1,0,0.2,0.1,0.2,0.1c0.1,0,0.1,0.1,0.2,0.1c0,0,0.1,0.1,0.2,0.1c0.1,0,0.2,0.1,0.3,0.1
		c0.1,0,0.2,0.1,0.3,0.1c0.1,0,0.2,0.1,0.3,0.2c0.1,0.1,0.3,0.2,0.4,0.3c0.1,0.1,0.2,0.1,0.2,0.2c0,0.1,0.1,0.1,0.1,0.1
		c0,0,0.1,0.1,0.1,0.1c0,0,0.1,0.1,0.1,0.2c0,0.1,0.1,0.2,0.1,0.3c0,0.1,0.1,0.2,0.2,0.2c0.2,0,0.3,0.1,0.5,0.1
		c0.2,0,0.3,0.1,0.4,0.3c0,0.1,0,0.1,0,0.2c0,0.1,0,0.2-0.1,0.3c-0.1,0.3-0.3,0.5-0.5,0.7c-0.2,0.2-0.3,0.3-0.3,0.4
		c0,0.1-0.1,0.1-0.1,0.2c-0.2,0.3-0.4,0.5-0.6,0.7c-0.2,0.2-0.3,0.3-0.4,0.4c-0.4,0.2-0.6,0.3-0.7,0.2c-0.1-0.1-0.2-0.1-0.3-0.3
		c0-0.1-0.1-0.2-0.2-0.2c-0.1,0-0.1-0.1-0.1-0.3c-0.1,0-0.3-0.1-0.3-0.2c-0.1-0.1-0.2-0.2-0.3-0.3c-0.1-0.1-0.2-0.2-0.3-0.2
		c0,0-0.1,0-0.1-0.1c-0.1,0-0.2-0.1-0.2-0.1c-0.1,0-0.2-0.1-0.3-0.1c-0.3-0.1-0.6-0.2-0.7-0.2c-0.2,0-0.3-0.1-0.5-0.2
		c-0.1,0.1-0.3,0.2-0.4,0.2c-0.1,0-0.3,0.1-0.4,0.1c0,0-0.1,0.1-0.2,0.3c-0.1,0.1-0.2,0.3-0.2,0.5c0,0.2-0.1,0.3-0.1,0.5
		c0,0.2,0,0.3,0.1,0.5c0.1,0.2,0.2,0.3,0.2,0.4c0,0.1,0.1,0.1,0.2,0.3c0.3,0.2,0.6,0.4,0.9,0.5c0.3,0.2,0.5,0.3,0.7,0.4
		c0,0.1,0.1,0.2,0.2,0.3c0.1,0.1,0.1,0.2,0.1,0.3c0.2,0.1,0.4,0.2,0.5,0.2c0.1,0,0.2,0.1,0.3,0.1c0.2,0.1,0.4,0.2,0.5,0.4
		c0.1,0.1,0.2,0.2,0.3,0.3c0.1,0,0.2,0.1,0.3,0.1c0.1,0,0.2,0.1,0.2,0.1c0.3,0.2,0.7,0.4,1,0.8c0.1,0,0.2,0,0.3,0.1
		c0.1,0.1,0.1,0.1,0.2,0.2c0.1,0.1,0.2,0.1,0.3,0.2c0.1,0,0.2,0.1,0.3,0.2c0.1,0.1,0.2,0.3,0.5,0.4c0.1,0.2,0.3,0.4,0.4,0.6
		c0.2,0.2,0.3,0.4,0.4,0.6c0,0.1,0,0.2,0,0.2c0,0.1,0,0.1-0.1,0.2c0.2,0.1,0.3,0.3,0.3,0.5c0,0.2,0,0.4,0.1,0.6
		c0,0.2,0.1,0.3,0.2,0.5C261.4,38.9,261.5,39.1,261.4,39.4z"/>
	<path fill="#FFFFFF" d="M291.8,26.2c0,0.2-0.1,0.3,0,0.3c0,0,0,0.1,0,0.1c0,0.1,0,0.2,0,0.4c0,0.1,0,0.2-0.1,0.4
		c-0.1,0.4-0.1,0.7-0.2,1.1c-0.1,0.4-0.2,0.7-0.4,1c-0.1,0.2-0.2,0.4-0.3,0.4c0,0.1-0.1,0.2-0.1,0.3c-0.3,0.5-0.5,0.8-0.5,1
		c-0.1,0.1-0.2,0.3-0.4,0.4c-0.1,0.1-0.3,0.3-0.5,0.4c-0.2,0.2-0.4,0.3-0.6,0.5c-0.2,0.1-0.4,0.2-0.6,0.1c-0.1,0.1-0.2,0.2-0.4,0.3
		c-0.1,0-0.3,0.1-0.4,0.1c-0.2,0.1-0.3,0.2-0.4,0.3c-0.1,0-0.2,0.1-0.3,0.1c-0.1,0.1-0.2,0.1-0.3,0.1c-0.1,0-0.1,0-0.2,0.1
		c-0.1,0.2-0.2,0.2-0.3,0.2c-0.3,0.1-0.5,0.2-0.7,0.3c-0.2,0.1-0.4,0.1-0.6,0.1c-0.2,0-0.4,0-0.4,0c-0.1,0-0.1,0.1-0.2,0.1
		c-0.3,0-0.6,0.1-0.7,0.1c-0.2,0-0.3,0-0.5,0c-0.1,0.1-0.2,0.1-0.3,0.1c-0.1,0-0.2,0.1-0.3,0.1c-0.1,0.1-0.2,0.1-0.3,0
		c-0.1,0-0.2,0-0.4,0c-0.3,0.1-0.5,0.1-0.7,0.1c-0.2,0-0.3,0-0.4,0c-0.3,0-0.6,0-0.9,0.1c-0.3,0-0.6,0.1-0.8,0.2
		c0,0.5,0.1,0.9,0.1,1.4c0,0.4,0.1,0.9,0.1,1.3c0,0.1,0,0.2,0,0.3c0,0.1,0,0.2,0,0.3c0,0.3,0,0.6,0.1,0.8c0,0.3,0,0.5,0.1,0.8
		c0,0.1,0,0.3,0,0.4c0,0.1,0,0.3,0,0.4c0,0.1,0,0.2,0.1,0.4c0,0.1,0,0.2,0,0.4c0.1,0.3,0.2,0.7,0.2,1c0,0.4,0,0.7,0,1.1
		c0,0.1,0.1,0.2,0.1,0.3c0,0.1,0,0.1,0,0.2c0.1,0.2,0.1,0.4,0,0.6c0,0.2,0,0.4,0,0.6c-0.2,0.1-0.4,0.1-0.6,0.3
		c-0.2,0.1-0.5,0.1-0.8,0c-0.3,0-0.6,0-0.9,0.1c-0.2,0.1-0.5,0.1-0.7,0.2c-0.4,0.1-0.7,0.1-1.1,0c-0.4-0.1-0.7-0.2-1-0.3
		c0-0.1,0-0.3,0-0.4c-0.1-0.1-0.1-0.2-0.1-0.3c0-0.1,0-0.2,0.1-0.3c0,0,0.1-0.1,0.1-0.2c0-0.1-0.1-0.1,0-0.2c0-0.1,0.1-0.1,0.1-0.2
		c0-0.1,0-0.3,0-0.4c0-0.1,0-0.3,0-0.4c0-0.1,0-0.2,0-0.3c0-0.1,0-0.2,0-0.3c0-0.2,0-0.4-0.1-0.7c-0.1-0.2-0.1-0.4-0.1-0.7
		c0-0.1,0-0.2,0.1-0.4c0-0.1,0-0.3,0.1-0.4c0,0,0-0.1,0-0.2c0-0.1,0-0.1,0-0.2c0.1-0.2,0.1-0.3,0.1-0.4c0-0.1,0-0.1,0-0.2
		c0-0.1,0-0.2,0-0.4c0-0.1,0-0.2,0-0.4c0-0.3,0-0.5,0-0.7c0.1-0.1,0.1-0.3,0.1-0.4c0-0.1,0-0.2-0.1-0.3c0-0.1-0.1-0.2-0.1-0.3
		c0-0.1-0.1-0.2-0.1-0.4c0-0.2,0-0.3,0-0.5c0-0.1,0-0.3,0.1-0.4c0-0.1,0.1-0.2,0.1-0.4c-0.1-0.2-0.1-0.3-0.1-0.4c0-0.1,0-0.1,0-0.2
		c-0.1-0.1-0.1-0.2,0-0.3c0,0,0-0.1,0-0.1c0-0.2,0-0.3,0-0.4c0-0.1,0-0.2,0.1-0.3c0-0.1,0-0.2,0-0.2c0-0.1,0-0.2,0-0.2
		c0-0.1,0-0.3,0-0.5c0-0.2,0-0.4,0-0.5c0,0,0-0.1,0-0.2c0-0.1-0.1-0.1-0.1-0.2c0-0.1-0.1-0.3-0.1-0.7c0-0.3,0-0.6,0-0.8
		c0-0.2,0-0.4,0-0.5c0-0.1,0-0.2,0-0.4c0-0.1,0-0.2,0-0.3c0-0.1-0.1-0.2-0.1-0.3c0-0.2,0-0.4-0.1-0.6c0-0.2,0-0.4,0.1-0.6
		c-0.1-0.3-0.1-0.5,0-0.7c0-0.2,0.1-0.4,0.1-0.6c0-0.1,0-0.3,0-0.5c-0.1-0.2,0-0.4,0.1-0.5c-0.1-0.2-0.2-0.5-0.2-0.9
		c0-0.4,0-0.7,0-0.9c-0.1-0.1-0.1-0.3-0.2-0.4c0-0.2,0-0.4,0-0.7c0-0.2,0-0.5,0-0.8c0-0.3,0-0.5,0.1-0.7c-0.1-0.3-0.2-0.6-0.3-1
		c0-0.4,0-0.8,0.1-1.1c0.2-0.1,0.4-0.1,0.7-0.1c0.3,0,0.6,0,0.9,0c0.4-0.1,0.9-0.1,1.3-0.3c0.4-0.1,0.9-0.2,1.3-0.3
		c0.2,0,0.5,0,0.7-0.1c0.2,0,0.5,0,0.7-0.1c0.3-0.1,0.6-0.1,0.9-0.2c0.3,0,0.6,0,1,0c0.2,0,0.3,0,0.3,0c0,0,0,0.1,0.1,0.1
		c0,0,0.1,0,0.2,0c0.1,0,0.2,0,0.4,0c0.5,0,0.9,0.1,1.4,0.2c0.4,0.1,0.9,0.2,1.3,0.4c0.2,0.1,0.3,0.1,0.4,0.1c0.1,0,0.1,0,0.2,0.1
		c0.2,0,0.4,0.1,0.6,0.1c0.2,0,0.3,0.1,0.4,0.1c0.4,0.1,0.6,0.2,0.7,0.3c0.1,0.1,0.3,0.2,0.4,0.3c0.1,0.1,0.3,0.2,0.3,0.2
		c0.1,0,0.2,0.1,0.2,0.1c0.1,0,0.1,0.1,0.2,0.2c0.1,0.1,0.1,0.1,0.2,0.2c0.2,0.1,0.3,0.2,0.5,0.3c0.1,0.1,0.3,0.2,0.5,0.3
		c0.1,0,0.1,0.1,0.2,0.1c0.1,0,0.1,0.1,0.2,0.1c0.1,0.2,0.2,0.3,0.3,0.3c0,0,0.1,0,0.1,0.1c0.1,0.1,0.2,0.2,0.3,0.4
		c0.1,0.2,0.2,0.3,0.3,0.4c0.1,0.2,0.2,0.3,0.2,0.4c0,0.1,0.1,0.1,0.1,0.2c0.1,0.2,0.2,0.4,0.2,0.5c0,0.1,0.1,0.3,0.1,0.4
		c0.1,0.1,0.1,0.2,0.1,0.3c0,0.1,0.1,0.2,0.1,0.3c0.1,0.1,0.1,0.3,0.1,0.4c0,0.1,0,0.3,0,0.4c0,0.1,0.1,0.3,0.1,0.4
		C291.8,25.9,291.8,26.1,291.8,26.2z M287.4,26.2c0-0.3,0-0.5-0.1-0.7c-0.1-0.2-0.2-0.4-0.2-0.6c-0.1-0.1-0.1-0.2-0.2-0.3
		c-0.1-0.1-0.1-0.2-0.2-0.2c-0.1-0.2-0.3-0.3-0.4-0.5c-0.1-0.1-0.2-0.3-0.3-0.4c-0.1-0.1-0.3-0.3-0.3-0.5c-0.2,0-0.3,0-0.4-0.1
		c-0.1-0.1-0.2-0.1-0.4-0.1c-0.1-0.1-0.3-0.2-0.4-0.3c-0.1-0.1-0.3-0.1-0.4-0.2c-0.3-0.1-0.5-0.1-0.7-0.1c-0.2,0-0.4,0-0.5,0l-1.1,0
		c-0.2,0-0.4,0-0.5,0c-0.1,0-0.3,0-0.5,0c-0.1,0-0.2,0-0.4,0c-0.1,0-0.2,0-0.4,0c-0.3,0.1-0.5,0.1-0.7,0.1c-0.2,0-0.3,0-0.4,0
		c-0.2,0.1-0.3,0.2-0.5,0.3c-0.2,0.1-0.4,0.1-0.5,0.2c0.1,0.6,0.1,1.3,0.2,2c0,0.7,0.1,1.4,0.2,2c0,0.1,0,0.2,0,0.3
		c0,0.1,0,0.2,0.1,0.3c0,0.3,0,0.5,0,0.7c0,0.1-0.1,0.3,0,0.4c0,0.1,0.1,0.1,0.1,0.2c0,0.1,0.1,0.2,0.1,0.3c0,0.1,0,0.2,0,0.3
		c0,0.1,0,0.2,0,0.3c0.1,0.1,0.1,0.3,0.1,0.3c0,0.1,0,0.2,0,0.2c0,0.1,0.1,0.1,0.1,0.2c0,0.1,0.1,0.2,0.1,0.3c0,0.2,0.1,0.5,0.2,0.6
		c0.3,0,0.5,0,0.8-0.1c0.2-0.1,0.4-0.1,0.6-0.2c0.3-0.1,0.4-0.1,0.5-0.2c0.1-0.1,0.2-0.1,0.2-0.2c0.2-0.1,0.3-0.1,0.5-0.1
		c0.2,0,0.3,0,0.5-0.1c0.3-0.1,0.5-0.2,0.6-0.3c0.2,0,0.3-0.1,0.5-0.1c0.2-0.1,0.4-0.2,0.5-0.2c0.2-0.1,0.3-0.1,0.5-0.2
		c0.1,0,0.1,0,0.2,0c0.1,0,0.1,0,0.2,0c0.2-0.1,0.3-0.1,0.4-0.1c0.1,0,0.1,0,0.2,0c0.2-0.1,0.3-0.2,0.4-0.3c0.1-0.1,0.2-0.1,0.3-0.1
		c0.1-0.2,0.2-0.3,0.2-0.4c0-0.1,0.1-0.1,0.1-0.2c0-0.1,0.1-0.1,0.2-0.1c0.1,0,0.2,0,0.2-0.1c0.1-0.2,0.1-0.4,0.2-0.5
		c0.1-0.1,0.2-0.3,0.3-0.5c0-0.2,0-0.4,0.1-0.6C287.3,26.6,287.4,26.4,287.4,26.2z"/>
	<path fill="#FFFFFF" d="M304.4,31c-0.1,0.2-0.2,0.2-0.2,0.2s-0.1,0-0.1,0.1c-0.3,0.2-0.4,0.2-0.4,0.2c-0.2,0-0.3-0.1-0.3-0.3
		c-0.1-0.2-0.2-0.3-0.3-0.4c-0.1,0-0.2,0.1-0.3,0c-0.1,0-0.2,0-0.3,0c-0.1,0-0.2,0.1-0.3,0.1c-0.1,0-0.2,0.1-0.3,0.1
		c-0.3,0.1-0.5,0.2-0.6,0.2c-0.1,0.1-0.2,0.1-0.3,0.2c-0.1,0.1-0.1,0.2-0.2,0.2c0,0.1-0.1,0.2-0.2,0.3c-0.1,0.1-0.3,0.2-0.4,0.3
		s-0.3,0.2-0.4,0.3c0,0.1-0.1,0.1-0.1,0.2c0,0.1-0.1,0.2-0.1,0.3c-0.1,0.1-0.2,0.2-0.3,0.3c0,0,0,0.1-0.1,0.1
		c-0.1,0.1-0.1,0.2-0.1,0.3c0,0.1,0,0.1,0,0.2c0,0-0.1,0.1-0.1,0.2c-0.1,0.1-0.1,0.2,0,0.3c-0.1,0.2-0.2,0.3-0.2,0.4
		c0,0.1,0,0.1,0,0.2c-0.1,0.1-0.2,0.2-0.2,0.3c0,0.1,0,0.1-0.1,0.2c-0.1,0.2-0.2,0.3-0.1,0.4c0,0.1,0,0.2,0,0.3
		c-0.1,0.2-0.1,0.4-0.1,0.5c0,0.1,0,0.2,0,0.3c0,0.2-0.1,0.3-0.1,0.4c0,0.1-0.1,0.3-0.1,0.5c0,0.1,0,0.2,0,0.3c0,0.1,0,0.3,0,0.4
		c0,0.1,0,0.1,0,0.2c0,0.1,0,0.2,0,0.3c0,0.2,0,0.3,0,0.5c0,0.2,0,0.3-0.2,0.4c0.1,0.1,0.1,0.3,0.1,0.6c0,0.3,0,0.4-0.1,0.5
		c0.1,0.2,0.1,0.5,0.1,0.8c0,0.3,0,0.6,0,0.9c0,0.3,0,0.6,0,0.9c0,0.3,0,0.6,0.1,0.8c0,0.2,0.1,0.2,0.3,0.2c0.1,0,0.3,0.1,0.4,0.1
		c0,0.1,0,0.1,0.1,0.2c0.1,0.1,0.1,0.1,0.1,0.2c0,0.2,0,0.3-0.1,0.5c-0.1,0.2-0.2,0.3-0.3,0.3c-0.1,0-0.2,0-0.3,0
		c-0.1,0-0.2,0-0.4,0c-0.1,0-0.2,0.1-0.3,0.1c-0.1,0.1-0.2,0.1-0.3,0.1c-0.2,0.1-0.4,0.1-0.6,0.2c-0.2,0.1-0.5,0.1-0.7,0.1
		c-0.1,0-0.2,0-0.3,0c-0.1,0-0.2,0-0.3,0c-0.1,0-0.3,0.1-0.4,0.1c-0.1,0.1-0.2,0.1-0.3,0c-0.2,0-0.4-0.2-0.4-0.4
		c-0.1-0.2-0.1-0.4-0.1-0.7c0-0.1,0-0.2,0-0.3c0-0.1,0-0.2,0-0.3c0-0.1,0-0.2,0-0.3s-0.1-0.2-0.1-0.3c0-0.3-0.1-0.6,0-0.9
		c0-0.3,0-0.6,0-0.9c0-0.1,0-0.2,0-0.2c0-0.1,0-0.1,0-0.2c0-0.1,0-0.2-0.1-0.2c0-0.1,0-0.2,0-0.2c0-0.2-0.1-0.3-0.1-0.5
		c0-0.1,0-0.3-0.1-0.5c0-0.1,0-0.1,0-0.2c0-0.1,0-0.2,0-0.2c0-0.2,0-0.3,0-0.4c0-0.1,0.1-0.2,0.1-0.4c0-0.2,0-0.5,0-0.7
		c0-0.2,0-0.4,0-0.5c0-0.1,0-0.3-0.1-0.4c0-0.1-0.1-0.3-0.1-0.4c0-0.1,0-0.1,0-0.2c0-0.1,0-0.2,0-0.2c-0.1-0.3-0.1-0.5-0.1-0.7
		c0-0.2,0-0.3,0-0.4c0-0.2,0-0.4,0-0.5c0-0.1,0.1-0.2,0.1-0.3c0-0.2,0-0.4,0-0.7c0-0.2,0-0.5,0-0.7c0-0.2,0.1-0.3,0.1-0.5
		c0.1-0.2,0.1-0.3,0.1-0.5c0-0.1,0-0.1,0-0.2c0-0.1,0-0.1,0-0.2s0-0.1,0-0.2c0-0.1,0-0.1,0-0.2c0,0,0-0.1-0.1-0.2c0-0.1,0-0.1,0-0.2
		c0-0.2,0-0.3,0-0.4c0-0.1,0.1-0.3,0.1-0.5c0-0.1,0-0.2,0-0.3c0-0.1,0-0.2-0.1-0.3c0,0,0-0.1,0-0.2c0-0.1,0-0.1,0-0.2
		c0-0.2,0-0.4,0-0.5c0-0.1,0-0.3,0-0.4c0-0.2,0-0.3,0-0.5c0-0.2,0-0.3,0.1-0.5c0-0.1,0-0.2-0.1-0.3c-0.1-0.1-0.1-0.2-0.2-0.2
		c0.1-0.2,0.1-0.4,0-0.5c-0.1-0.2-0.1-0.4,0-0.5c0.2-0.2,0.3-0.3,0.5-0.2c0.2,0,0.3,0,0.3,0.1c0.1,0.1,0.1,0.2,0.2,0.2
		c0.2,0.1,0.4,0.1,0.6,0c0.2,0,0.4,0,0.6,0c0.1,0,0.2,0,0.4,0c0.1,0,0.2,0,0.3,0c0.2,0,0.3-0.1,0.5-0.1c0.1-0.1,0.3-0.1,0.6,0
		c0.1,0,0.1,0.1,0.1,0.2c0,0.1,0,0.2,0.1,0.3c0,0.2,0,0.3,0.1,0.3c0,0,0,0.1,0,0.1c0,0.2-0.1,0.4-0.1,0.6c0,0.2,0,0.4,0,0.6
		c0.1,0,0.2,0,0.3-0.1c0.1-0.1,0.2-0.2,0.2-0.2c0,0,0.1-0.1,0.1-0.1c0.1-0.1,0.1-0.1,0.1-0.1c0.2-0.2,0.3-0.3,0.4-0.4
		c0.1-0.1,0.1-0.2,0.2-0.2c0.1-0.1,0.1-0.1,0.2-0.2c0.1,0,0.1-0.1,0.2-0.2c0.2,0,0.4-0.1,0.6-0.2c0.2-0.1,0.4-0.1,0.6,0
		c0.1-0.1,0.3-0.2,0.5-0.3c0.2-0.1,0.4,0,0.5,0.1c0.4,0,0.7-0.1,1-0.2c0.3-0.1,0.6-0.2,0.8-0.1c0.1,0,0.2,0.1,0.2,0.1
		c0.1,0.1,0.1,0.1,0.2,0.1c0.1,0,0.1,0,0.2,0.1c0.1,0,0.1,0.1,0.2,0.1c0.1,0.2,0.2,0.5,0.1,0.8c-0.1,0.3-0.1,0.6-0.1,0.8
		c0,0.3,0,0.5,0,0.6c0,0.1,0,0.3,0,0.4c0,0.2,0,0.5,0,0.7C304.4,30.5,304.4,30.8,304.4,31z"/>
	<path fill="#FFFFFF" d="M321.7,36.5c0,0.2,0,0.4,0,0.6c0,0.2,0,0.3-0.1,0.4c0.1,0.1,0.2,0.2,0.1,0.4c0,0.2-0.1,0.3-0.1,0.5
		c0,0.1,0,0.2,0,0.3c0,0.1,0,0.2,0,0.3c-0.1,0.2-0.2,0.3-0.2,0.4c0,0.1-0.1,0.1-0.1,0.1c0,0.1,0,0.3,0,0.4c0,0.1-0.1,0.3-0.1,0.4
		c0,0.2-0.1,0.3-0.1,0.3c0,0,0,0.1,0,0.1c0,0.2,0,0.4-0.1,0.4c0,0.1-0.1,0.1-0.1,0.2c-0.1,0.2-0.1,0.4-0.2,0.5
		c-0.1,0.2-0.1,0.4-0.2,0.5c-0.1,0.2-0.2,0.4-0.3,0.6c-0.1,0.2-0.2,0.4-0.3,0.5c0,0.1,0,0.2,0,0.2c0,0,0,0.1,0,0.2
		c-0.1,0.1-0.2,0.2-0.3,0.3c-0.1,0.1-0.2,0.2-0.2,0.4c-0.1,0.2-0.2,0.4-0.3,0.5c-0.1,0.1-0.2,0.2-0.3,0.2c-0.1,0.1-0.2,0.1-0.3,0.2
		c-0.1,0-0.2,0-0.2,0c0,0-0.1,0-0.1,0c-0.2,0.2-0.3,0.3-0.4,0.4c-0.1,0.1-0.3,0.2-0.6,0.3c-0.1,0-0.2,0.1-0.2,0.1c0,0-0.1,0-0.1,0
		c-0.1,0-0.2,0.1-0.4,0.1c-0.1,0.1-0.3,0.1-0.4,0.1c-0.2,0-0.4,0-0.4,0s-0.2,0.1-0.3,0.1c-0.2,0-0.3,0.1-0.5,0c-0.2,0-0.3,0-0.5,0
		c-0.2,0-0.2,0-0.3,0c0,0-0.1,0-0.1,0c-0.2,0-0.3,0-0.3,0c-0.1,0-0.1,0-0.2,0c-0.1,0-0.2,0.1-0.3,0.1c-0.1,0.1-0.3,0.1-0.5,0
		c-0.3,0.1-0.7,0.1-1,0.1c-0.3,0-0.6-0.1-0.8-0.2c-0.1,0.1-0.2,0.1-0.4,0c-0.1,0-0.2-0.1-0.3-0.1c0,0-0.1,0-0.1,0
		c-0.2,0-0.4-0.1-0.6-0.2c-0.2-0.1-0.4-0.2-0.5-0.3c-0.3-0.1-0.5-0.2-0.6-0.3c-0.1-0.1-0.3-0.1-0.5-0.2c-0.1-0.1-0.2-0.2-0.3-0.3
		c-0.1-0.1-0.1-0.2-0.1-0.2c0,0-0.1-0.1-0.1-0.1c-0.1,0-0.1,0-0.1-0.1c-0.2-0.2-0.3-0.2-0.3-0.3c-0.1,0-0.1-0.1-0.2-0.1
		c0,0-0.1-0.1-0.1-0.1c0-0.1-0.1-0.1-0.1-0.2c-0.2-0.2-0.3-0.4-0.4-0.5c-0.1-0.1-0.2-0.2-0.2-0.2c0-0.1,0-0.2-0.1-0.2
		c0,0,0-0.1,0-0.2c-0.1-0.1-0.2-0.2-0.2-0.3c0,0,0-0.1-0.1-0.1c-0.1-0.2-0.2-0.4-0.3-0.5c0-0.1-0.1-0.1-0.1-0.2c0-0.1,0-0.2-0.1-0.4
		c0-0.2-0.1-0.4-0.1-0.5c0-0.1,0-0.2,0-0.3c0-0.1-0.1-0.1-0.1-0.2c0,0-0.1-0.1-0.1-0.2c0-0.2-0.1-0.3,0-0.5c0-0.2,0-0.3,0-0.5
		c0-0.1-0.1-0.2-0.1-0.3c0-0.1-0.1-0.2,0-0.3c-0.1-0.1-0.1-0.1-0.1-0.2s-0.1-0.2-0.1-0.2c0-0.1,0-0.3,0-0.4c0-0.1-0.1-0.3-0.1-0.5
		c0-0.1,0-0.2,0-0.2c0-0.1,0-0.2,0-0.3v-0.6c0-0.1,0-0.3,0.1-0.4c0-0.1,0.1-0.2,0.1-0.3c0-0.1,0-0.2,0-0.3s0-0.2,0.1-0.2
		c-0.1-0.3-0.1-0.6,0-0.8c0.1-0.2,0.1-0.5,0.1-0.8c0,0,0.1-0.1,0.1-0.2c0-0.1,0-0.1,0.1-0.2c0-0.2,0-0.4,0.1-0.6
		c0.1-0.2,0.1-0.3,0.2-0.5c0.1,0,0.2-0.1,0.2-0.2c0-0.1,0.1-0.2,0.2-0.3c0.1-0.1,0.2-0.2,0.2-0.3c0-0.1,0.1-0.2,0.2-0.1
		c0.1-0.2,0.2-0.4,0.3-0.5c0.1-0.1,0.2-0.2,0.3-0.3c0.2-0.1,0.2-0.1,0.3-0.2c0,0,0.1-0.1,0.1-0.1c0.1-0.1,0.1-0.1,0.1-0.2
		c0-0.1,0.1-0.1,0.1-0.1c0.2-0.2,0.3-0.3,0.5-0.4c0.1-0.1,0.1-0.2,0.2-0.2s0.2-0.1,0.3-0.2c0.2-0.1,0.3-0.2,0.3-0.2
		c0.1,0,0.1,0,0.1,0c0.1,0,0.1-0.1,0.2-0.2c0.1-0.1,0.2-0.1,0.3,0c0.2-0.3,0.6-0.4,1.2-0.4c0.3-0.1,0.5-0.2,0.7-0.2
		c0.2,0,0.4-0.1,0.6,0c0.1,0,0.1,0,0.2,0c0.1,0,0.1,0,0.2,0c0.1,0,0.2,0,0.3,0c0.1,0,0.2,0,0.3-0.1c0.2,0,0.4-0.1,0.6-0.1
		c0.1,0,0.3,0,0.4,0c0.2,0.1,0.4,0.1,0.4,0.1c0.1,0,0.1,0,0.2,0c0.1,0,0.1,0,0.2,0.1c0.1,0,0.1,0,0.1,0.1c0.2,0.1,0.4,0.1,0.5,0.1
		c0.1,0,0.2,0,0.2,0c0.1,0,0.2,0,0.2,0c0.1,0,0.2,0.1,0.2,0.1c0.1,0,0.2,0,0.2,0.1c0.1,0,0.2,0.1,0.2,0.1c0.3,0.1,0.5,0.1,0.7,0.1
		c0.2,0,0.5,0,0.7,0.2c0,0,0.1,0.1,0.1,0.1c0.1,0,0.1,0.1,0.2,0.1c0.1,0,0.2,0.1,0.2,0.1c0,0,0.1,0.1,0.1,0.1
		c0.3,0.2,0.6,0.4,0.8,0.6c0.2,0.2,0.4,0.4,0.5,0.5c0,0.1,0,0.2,0.1,0.3c0,0.1,0.1,0.2,0.1,0.2c0.1,0.1,0.2,0.2,0.2,0.2
		c0.1,0.1,0.1,0.2,0.2,0.2c0,0,0.1,0.1,0,0.2c0,0.1,0,0.1,0,0.2c0,0.1,0.1,0.2,0.2,0.4c0.1,0.1,0.1,0.3,0.2,0.4c0,0.2,0,0.3,0,0.3
		c0,0,0.1,0.1,0.1,0.3c0,0.1,0.1,0.2,0.1,0.4s0.2,0.3,0.3,0.3c0,0.1,0,0.2,0.1,0.3c0.1,0.1,0.1,0.2,0.1,0.4c0,0.2,0,0.3,0,0.5
		c0,0.2,0,0.3,0,0.4c0,0.2,0,0.4,0,0.5C321.7,36.3,321.7,36.4,321.7,36.5z M318.3,36.1c0-0.2,0-0.3,0-0.3c0,0,0-0.1,0-0.2
		c0-0.2-0.1-0.4-0.2-0.6c-0.1-0.2-0.1-0.4-0.2-0.7c0-0.1,0-0.3,0-0.4c0-0.1,0-0.3,0-0.4c-0.1,0-0.1-0.1-0.1-0.2c0-0.1,0-0.2-0.1-0.2
		c0-0.1-0.1-0.2-0.2-0.2c-0.1,0-0.1-0.1-0.1-0.2c-0.2-0.1-0.4-0.2-0.5-0.3c-0.2,0-0.4,0-0.6-0.1c-0.1,0-0.2-0.1-0.2-0.1
		c0,0-0.1-0.1-0.2-0.1c-0.2,0-0.3,0-0.3,0.1c-0.1,0.1-0.2,0.1-0.3,0c-0.1,0-0.2-0.1-0.2-0.2c0-0.1-0.1-0.2-0.2-0.3
		c-0.1,0-0.2-0.1-0.2,0c0,0-0.1,0-0.2,0c-0.1,0-0.1-0.1-0.1-0.1c0-0.1-0.1-0.1-0.2,0c-0.2,0-0.4,0.1-0.6,0.2c-0.2,0.1-0.4,0.1-0.6,0
		c-0.1,0-0.2,0.1-0.2,0.1c0,0-0.1,0.1-0.2,0.1c0-0.1,0-0.1-0.1-0.1c-0.1,0-0.1,0-0.2,0c-0.2,0.1-0.3,0.2-0.5,0.3
		c-0.2,0.1-0.4,0.2-0.5,0.3c-0.2,0.1-0.3,0.1-0.3,0.2c-0.1,0.1-0.1,0.2-0.2,0.2c-0.1,0.1-0.1,0.1-0.2,0.2c0,0.1-0.1,0.1-0.2,0.2
		c-0.3,0.2-0.5,0.3-0.6,0.5c-0.1,0.2-0.3,0.3-0.4,0.4c0,0.2-0.1,0.3-0.2,0.4c-0.1,0.1-0.2,0.2-0.2,0.4c0,0.1-0.1,0.2-0.1,0.4
		c0,0.2-0.1,0.3-0.1,0.4c-0.1,0.4-0.2,0.7-0.2,1c0,0.3,0,0.5-0.2,0.7c0.1,0,0.1,0.1,0.1,0.2c0,0.1,0,0.2,0,0.3
		c0,0.1,0.1,0.2,0.1,0.3c0,0.1,0,0.2,0,0.4c0,0.2,0,0.4,0,0.5c0.1,0.2,0.1,0.3,0.1,0.3c0,0,0,0.1,0,0.1c0,0.1,0.1,0.1,0.1,0.2
		c0,0.1,0.1,0.2,0,0.3c0.1,0,0.1,0.1,0.2,0.2c0,0.1,0.1,0.2,0.1,0.2c0,0.1,0,0.3,0.1,0.4s0.1,0.3,0.1,0.5c0.1,0.1,0.1,0.2,0.1,0.2
		c0,0,0,0.1,0,0.1c0,0,0.1,0.1,0.1,0.1c0,0.1,0.1,0.1,0.1,0.2c0.1,0,0.2,0.1,0.2,0.2c0.1,0.1,0.1,0.2,0.2,0.3c0,0,0.1,0.1,0.1,0.1
		c0,0,0.1,0.1,0.1,0.1c0.1,0.1,0.2,0.1,0.2,0.2c0.1,0.1,0.1,0.1,0.2,0.2c0.1,0.1,0.2,0.2,0.3,0.2c0.1,0,0.1,0,0.2,0.1
		c0.1,0,0.1,0.1,0.2,0.1c0,0,0.1,0.1,0.1,0.1c0.2,0.1,0.3,0.1,0.5,0.1c0.2,0,0.3,0.1,0.5,0.3c0.2,0,0.3,0,0.4,0.1
		c0.1,0.1,0.3,0.1,0.5,0c0.1,0,0.1,0,0.2,0.1c0,0.1,0.1,0.1,0.2,0.1c0.1,0,0.2,0,0.2-0.1c0,0,0.1,0,0.2,0c0.1,0,0.2,0,0.3,0
		c0.1,0,0.2,0,0.2,0c0.1,0,0.2-0.1,0.3-0.1c0.1-0.1,0.2-0.1,0.3-0.2c0.1-0.1,0.2-0.1,0.3-0.2c0.1-0.1,0.2-0.1,0.3-0.1
		c0-0.1,0.1-0.2,0.1-0.2c0.1-0.1,0.1-0.1,0.2-0.2c0.1-0.1,0.2-0.2,0.3-0.3c0.1-0.1,0.1-0.2,0.2-0.3c0-0.1,0.1-0.2,0.1-0.2
		c0.1-0.1,0.1-0.1,0.1-0.2c0.1-0.2,0.2-0.4,0.3-0.6c0.1-0.2,0.2-0.4,0.3-0.6c0.1-0.1,0.1-0.2,0.2-0.3c0.1-0.1,0.1-0.2,0.1-0.4
		c0-0.2,0-0.4,0.1-0.4c0-0.1,0-0.1,0-0.1c0-0.2,0.1-0.3,0.1-0.4c0-0.1,0-0.2,0-0.4c0.1-0.1,0.1-0.2,0.1-0.4c0-0.2,0-0.3,0.1-0.5
		c0-0.1,0-0.2,0.1-0.3c0-0.1,0.1-0.2,0.1-0.3c0-0.2,0.1-0.4,0.1-0.6C318.3,36.4,318.3,36.2,318.3,36.1z"/>
	<path fill="#FFFFFF" d="M329.5,29.7c0,0.3,0,0.6-0.1,0.9c0,0.3-0.1,0.6-0.1,0.9c0,0.1,0,0.2,0,0.3c0,0.1,0,0.2,0,0.3
		c0,0.2,0.1,0.4,0.1,0.6c0,0.2,0.1,0.4,0.1,0.6c0,0.1,0,0.1-0.1,0.2c0,0.1,0,0.1-0.1,0.2c0,0.1,0,0.2,0,0.4c0,0.1,0,0.3,0,0.4
		c-0.1,0.2-0.1,0.4-0.1,0.6c0,0.2,0,0.4,0,0.6c0,0.2,0,0.4-0.1,0.6c0,0.2-0.1,0.4-0.1,0.6v0.8c0,0.2,0,0.5,0,0.7c0,0.2,0,0.5,0,0.7
		c0,0.1,0,0.3-0.1,0.5c0,0.2,0,0.3-0.1,0.3c0,0,0,0.1-0.1,0.2c0,0.2,0.1,0.3,0,0.4c0,0.1,0,0.1,0,0.2c0,0.1,0,0.2,0,0.4
		c0,0.1,0,0.3,0,0.4c0,0.2,0,0.4,0,0.5c0,0.1,0,0.2,0,0.3c0,0.3,0,0.6,0,0.9c0,0.3,0,0.6,0,0.8c0,0.1,0,0.2,0.1,0.2
		c0,0.1,0.1,0.2,0.1,0.3c0,0.1,0,0.2-0.1,0.3c0,0.1-0.1,0.2-0.1,0.4c0,0.2,0,0.3-0.1,0.4c0,0.1,0,0.1,0,0.2c0,0,0,0.1-0.1,0.3
		c0,0.1,0,0.2,0,0.3c0,0.1,0,0.2,0,0.3c0,0.1-0.1,0.2-0.2,0.3c0.1,0.1,0.2,0.4,0.3,0.7c0,0.3,0,0.5-0.1,0.7c0.1,0.5,0.1,1,0,1.6
		c0,0.2,0,0.3,0,0.3c0,0,0,0.1,0,0.1c0,0.1-0.1,0.3-0.1,0.5c0,0.2-0.1,0.3-0.1,0.5c0,0.1,0,0.2,0,0.3c0,0.1,0,0.2,0,0.3
		c0,0,0,0.1-0.1,0.2c0,0.1-0.1,0.2-0.1,0.3c0,0.1,0,0.2,0,0.3c0,0.1,0,0.2,0,0.2c0,0.1-0.1,0.2-0.1,0.3c-0.1,0.1-0.1,0.2-0.2,0.3
		c0,0.1-0.1,0.2-0.1,0.4c0,0.1,0,0.2-0.1,0.3c-0.1,0.1-0.2,0.2-0.2,0.3c0,0,0,0.1-0.1,0.1c-0.1,0.1-0.2,0.2-0.3,0.4
		c-0.1,0.1-0.2,0.3-0.3,0.4c-0.2,0.2-0.4,0.3-0.6,0.3c-0.2,0-0.4,0-0.5-0.1c-0.1,0-0.2,0.1-0.3,0.2c-0.1,0.1-0.2,0.1-0.3,0.2
		c-0.1,0.1-0.3,0.2-0.5,0.3c-0.2,0.1-0.4,0.1-0.6,0.2c-0.2,0-0.4,0.1-0.8,0.1c-0.3,0-0.6,0-0.9,0c-0.1,0-0.2-0.1-0.3-0.1
		c-0.1,0-0.2-0.1-0.3-0.1c-0.2,0-0.5-0.1-0.6-0.1c-0.2,0-0.3-0.1-0.5-0.1c-0.2,0-0.3-0.1-0.4-0.1c-0.1,0-0.1,0-0.2-0.1
		c-0.1,0-0.2-0.1-0.3-0.2c-0.1-0.1-0.2-0.1-0.3-0.2c-0.3-0.1-0.5-0.1-0.7-0.2c-0.2-0.1-0.3-0.1-0.5-0.2c-0.1-0.2-0.2-0.3-0.2-0.3
		c0,0-0.1,0-0.1-0.1c-0.1,0-0.2-0.1-0.3-0.3c-0.1-0.1-0.2-0.2-0.3-0.3c-0.1-0.1-0.2-0.2-0.2-0.4c0-0.1-0.1-0.1-0.2-0.1
		s-0.2-0.1-0.2-0.2c0,0-0.1-0.1-0.1-0.3c0-0.1,0-0.2-0.1-0.3c0,0,0.1-0.1,0.1-0.2c0-0.1,0.1-0.2,0.1-0.3c0.1-0.1,0.2-0.3,0.3-0.4
		c0-0.1,0.1-0.2,0.1-0.3c0.1-0.2,0.2-0.3,0.3-0.4c0.1-0.1,0.2-0.1,0.2-0.2c0-0.1,0.1-0.2,0.1-0.3s0.1-0.2,0.2-0.3
		c0.1-0.1,0.2-0.2,0.3-0.3c0.1-0.1,0.2-0.1,0.3-0.1c0.2,0,0.4,0,0.5,0.2c0.1,0.2,0.3,0.3,0.4,0.4c0.2,0.1,0.3,0.2,0.3,0.3
		c0,0,0,0.1,0.1,0.1c0.1,0.1,0.2,0.2,0.3,0.2c0,0,0.1,0.1,0.1,0.1c0.1,0,0.3,0.1,0.4,0.1c0.2,0,0.4,0,0.5,0c0.2,0,0.4,0.1,0.5,0.1
		c0.1,0,0.3,0,0.4,0c0.1,0,0.2-0.1,0.3-0.1c0.1,0,0.2-0.1,0.3-0.1c0.2-0.2,0.3-0.3,0.4-0.4c0.1-0.1,0.2-0.2,0.2-0.3
		c0-0.1,0.1-0.2,0.1-0.3c0-0.1,0-0.3,0-0.4c0.2-0.1,0.3-0.3,0.3-0.5s0-0.5,0-0.8c0-0.1,0-0.3,0.1-0.4c0-0.2,0-0.3,0.1-0.3
		c0,0,0-0.1,0-0.1c0-0.1,0-0.2,0-0.4c0-0.1,0-0.2,0-0.4c0-0.1,0-0.2,0.1-0.3c0-0.1,0.1-0.2,0.1-0.3c0-0.1,0-0.2-0.1-0.3
		c0-0.1-0.1-0.2-0.1-0.3c0-0.2,0.1-0.3,0.2-0.5c0.1-0.1,0.1-0.3,0-0.6c0-0.3-0.1-0.4-0.1-0.5c0,0,0-0.1,0-0.1c0-0.1,0-0.2,0-0.3
		c0,0,0.1-0.1,0.1-0.1c0-0.3-0.1-0.5-0.1-0.6c0-0.1-0.1-0.2-0.1-0.3c0-0.1,0-0.3,0-0.4c0-0.2,0.1-0.3,0.1-0.4c0-0.1,0-0.1,0-0.2
		c0-0.1,0-0.1,0.1-0.2c0-0.3,0.1-0.6,0-0.9c0-0.3-0.1-0.6-0.1-0.9c0-0.1,0-0.2,0-0.3c0-0.1,0-0.2,0-0.3c0-0.2,0-0.3-0.1-0.5
		c0-0.2,0-0.4,0-0.7c0-0.1,0-0.1,0-0.2c0-0.1,0-0.1,0-0.2c0-0.3-0.1-0.4,0-0.5c0,0,0-0.1,0-0.1c0-0.2,0-0.4,0-0.5
		c0-0.1,0-0.3,0.1-0.4c0-0.2,0-0.4,0-0.5c0-0.1,0-0.2,0-0.4c0-0.2,0-0.3,0-0.4c0-0.1,0-0.2,0.1-0.2c0-0.2,0-0.3-0.1-0.5
		c0-0.2,0-0.3,0.1-0.5c-0.1-0.2-0.2-0.4-0.2-0.7c0-0.3,0-0.6,0.1-0.8c-0.1-0.2-0.2-0.6-0.2-0.9c0-0.4,0-0.8,0-1.1
		c0-0.3,0-0.4,0.1-0.5c0-0.1,0.1-0.2,0.1-0.3c0-0.2,0.1-0.4,0.1-0.4c0,0,0.1-0.1,0-0.2c0.1,0,0.2,0,0.3,0c0.1,0,0.2,0,0.3,0
		c0.1,0,0.2,0.1,0.3,0.2c0.1,0.1,0.2,0.2,0.3,0.2c0.4,0,0.9,0.1,1.3,0c0.5,0,0.9-0.1,1.3-0.1c0.1,0.1,0.2,0.3,0.4,0.4
		C329.3,29.4,329.4,29.5,329.5,29.7z"/>
	<path fill="#38BBED" d="M329.9,22.9c0.1,0.3,0.2,0.7,0.2,1.1c0,0.5-0.1,0.8-0.4,1c-0.1,0-0.1,0.1-0.1,0.2c0,0.1,0,0.1-0.1,0.2
		c-0.1,0.1-0.2,0.2-0.2,0.2c0,0-0.1,0.1-0.2,0.2c-0.3,0.3-0.5,0.5-0.7,0.6c-0.2,0.1-0.4,0.2-0.7,0.3c-0.1,0-0.3,0.1-0.4,0.1
		c-0.1,0-0.3,0.1-0.4,0.1c-0.2,0-0.4-0.1-0.6-0.2c-0.2-0.1-0.4-0.2-0.7-0.3c-0.1-0.1-0.2-0.2-0.3-0.3c-0.1-0.1-0.2-0.2-0.3-0.2
		c0-0.2-0.1-0.3-0.1-0.4c-0.1-0.1-0.1-0.2-0.2-0.3c0.1-0.3,0.1-0.6,0-0.8c0-0.3-0.1-0.5-0.1-0.6c0-0.1,0-0.2,0.1-0.3
		c0-0.1,0-0.2,0-0.3c0-0.1,0-0.2,0-0.3c0.1-0.1,0.2-0.2,0.2-0.3c0-0.1,0-0.1,0.1-0.2c0.2-0.1,0.3-0.2,0.4-0.3
		c0.1-0.2,0.2-0.3,0.3-0.4c0.3,0,0.6-0.1,0.7-0.3c0.2,0,0.4,0,0.6-0.1c0.2,0,0.3,0,0.5,0c0.2,0,0.4,0,0.6,0.1c0.2,0,0.4,0,0.7,0
		c0,0,0.1,0.1,0.2,0.1c0.1,0,0.1,0.1,0.2,0.1c0.2,0.2,0.3,0.4,0.4,0.5c0.1,0.1,0.2,0.3,0.3,0.6L329.9,22.9z"/>
	<path fill="#FFFFFF" d="M349.7,35.2c0,0.3,0.1,0.5,0.1,0.6c0,0.1,0,0.2,0,0.4c0,0.1-0.1,0.2-0.2,0.2c-0.1,0.1-0.2,0.1-0.2,0.2
		c-0.1,0-0.3,0-0.4,0c-0.1,0-0.3,0.1-0.4,0.2c-0.2-0.1-0.4-0.1-0.6,0c-0.3,0.1-0.5,0.1-0.7,0c-0.1,0.1-0.2,0.1-0.3,0.2
		c-0.3,0.1-0.6,0.2-0.9,0.2c-0.3,0-0.7,0-1,0.1c-0.2,0-0.5,0.1-0.7,0.1c-0.2,0.1-0.5,0.1-0.6,0.1c-0.2,0.1-0.4,0.1-0.5,0.2
		c-0.2,0-0.3,0-0.5,0c-0.1,0-0.3,0-0.5,0c-0.1,0-0.3,0-0.4,0.1c-0.1,0.1-0.3,0.1-0.4,0.1c-0.1,0-0.3,0-0.5,0.1
		c-0.2,0.1-0.3,0.1-0.3,0.1c-0.1,0-0.1,0-0.2,0c-0.1,0-0.3,0.1-0.4,0.1c-0.1,0.1-0.3,0-0.4-0.1c-0.1,0.1-0.1,0.1-0.2,0.2
		c-0.1,0-0.2,0.1-0.3,0.1c-0.1,0-0.2,0-0.2,0c-0.1,0-0.1,0-0.1,0c-0.1,0.1-0.2,0.1-0.3,0.1c-0.1,0-0.2,0.1-0.2,0.2
		c-0.1,0-0.1,0-0.2,0c-0.1,0-0.2,0-0.2,0c-0.3,0-0.5,0.1-0.6,0.1c-0.2,0.1-0.3,0.1-0.5,0.2c-0.2,0-0.3,0.1-0.5,0
		c-0.2,0-0.4,0-0.6,0.1c-0.1,0.2,0,0.4,0.1,0.7c0.1,0.3,0.2,0.5,0.4,0.6c0,0.1,0.1,0.2,0,0.2c0,0.1,0,0.2,0,0.3
		c0.2,0.2,0.4,0.3,0.5,0.4c0.1,0.1,0.2,0.2,0.3,0.2c0.1,0.1,0.3,0.3,0.5,0.4c0.2,0.1,0.3,0.2,0.5,0.4c0.1,0.1,0.1,0.2,0.2,0.2
		c0.1,0,0.2,0.1,0.3,0.2c0.2,0,0.3,0,0.5,0.1c0.1,0.1,0.3,0.1,0.5,0.2c0.3,0.1,0.4,0.1,0.6,0.2s0.2,0.1,0.4,0.1c0.1,0,0.2,0,0.3,0
		c0.1,0,0.1,0,0.2,0c0.1,0,0.2,0.1,0.4,0.1c0.1,0.1,0.3,0.1,0.4,0.1c0.2-0.1,0.4-0.1,0.5-0.1c0.1,0,0.2,0,0.3,0
		c0.3,0,0.5-0.2,0.7-0.4c0.1,0,0.2,0,0.2-0.1c0.1,0,0.1,0,0.2-0.1c0.2-0.2,0.3-0.3,0.4-0.3c0.1,0,0.2-0.1,0.2-0.1
		c0-0.1,0.1-0.1,0.1-0.1c0,0,0.1,0,0.1-0.1c0.1-0.1,0.2-0.1,0.3-0.2c0.1-0.1,0.2-0.2,0.2-0.3c0.1-0.1,0.2-0.2,0.3-0.4
		c0.2-0.2,0.3-0.4,0.4-0.6c0.1-0.3,0.2-0.5,0.4-0.7c0-0.3,0-0.5,0-0.6c0-0.2,0.1-0.3,0.1-0.5c-0.1-0.2-0.1-0.4,0-0.6
		c0-0.1,0.1-0.3,0.1-0.4c0.1,0,0.2-0.1,0.3-0.1c0.1,0,0.2-0.1,0.3,0c0.1,0,0.1,0,0.2,0.1c0.1,0,0.1,0,0.3,0.1c0.1,0,0.1,0,0.2,0
		c0.1,0,0.2,0,0.3,0c0.2,0,0.3,0,0.3,0s0.1,0,0.2,0c0.2,0,0.3,0,0.5,0c0.1-0.1,0.2-0.1,0.4-0.1c0.3,0.1,0.4,0.2,0.5,0.3
		c0.1,0.2,0,0.5-0.1,0.7c-0.1,0.2-0.1,0.4,0,0.4c0,0,0,0.1,0,0.2c0,0.1,0,0.1-0.1,0.2c0,0.1,0,0.1,0,0.2c0,0.1,0,0.3,0,0.4
		c0,0.1,0,0.2,0,0.4c-0.1,0.2-0.2,0.4-0.3,0.5c-0.1,0.1-0.2,0.2-0.2,0.3c0.1,0.1,0.1,0.2,0,0.2c-0.1,0.1-0.1,0.1-0.2,0.2
		c0,0.2-0.1,0.3-0.2,0.4c-0.1,0.1-0.2,0.2-0.3,0.4c-0.1,0.2-0.3,0.3-0.4,0.5c-0.2,0.1-0.3,0.3-0.4,0.4c-0.2,0.2-0.3,0.4-0.4,0.5
		c-0.1,0.1-0.2,0.2-0.3,0.2c-0.1,0.1-0.2,0.1-0.2,0.2c0,0-0.1,0.1-0.1,0.1c-0.1,0.1-0.2,0.1-0.3,0.1c-0.1,0-0.2,0.1-0.4,0.1
		c-0.2,0.1-0.4,0.2-0.5,0.3c-0.2,0.1-0.3,0.1-0.5,0.2c-0.1,0.1-0.2,0.1-0.3,0.2c-0.1,0-0.2,0.1-0.4,0.1c-0.2,0-0.4,0.1-0.5,0.1
		c-0.1,0.1-0.2,0.1-0.3,0c-0.2,0.1-0.4,0.2-0.5,0.3c-0.1,0.1-0.3,0.1-0.4,0.1c-0.1,0-0.1,0-0.2,0c-0.1,0-0.1,0-0.2,0
		c-0.4,0-0.7,0.1-1,0.1c-0.2,0-0.5,0-0.7,0c-0.1,0-0.1,0-0.2,0c-0.1,0-0.1,0-0.2-0.1c-0.2,0.1-0.4,0.1-0.6,0.1
		c-0.2-0.1-0.4-0.1-0.5-0.2c-0.1,0-0.1,0-0.2,0c-0.1,0-0.1,0-0.2,0c-0.2,0-0.3-0.1-0.5-0.1c-0.2,0-0.3-0.1-0.4-0.3
		c-0.2,0-0.3,0-0.4,0c-0.1-0.1-0.2-0.1-0.3-0.2c-0.2,0-0.3,0-0.5,0c-0.2-0.1-0.3-0.1-0.4-0.2c-0.2-0.2-0.4-0.3-0.6-0.4
		c-0.3-0.2-0.5-0.3-0.7-0.4c-0.2-0.1-0.3-0.2-0.5-0.2c-0.1-0.1-0.2-0.2-0.3-0.3c-0.1-0.1-0.2-0.1-0.3-0.2c-0.1-0.2-0.3-0.3-0.3-0.4
		c-0.1-0.1-0.1-0.1-0.2-0.1c-0.1-0.2-0.2-0.3-0.2-0.5s-0.1-0.3-0.2-0.5c-0.1-0.2-0.2-0.4-0.2-0.5c0-0.1-0.1-0.2-0.1-0.3
		c0-0.1-0.1-0.1-0.1-0.2s-0.1-0.1-0.1-0.2c0-0.1-0.1-0.2-0.1-0.3c0-0.1,0-0.2-0.1-0.3c0-0.1-0.1-0.2-0.1-0.3c0-0.1-0.1-0.2-0.1-0.3
		c0-0.1-0.1-0.3-0.1-0.5c0-0.2,0-0.3-0.1-0.5c0,0,0-0.1-0.1-0.2c0-0.1,0-0.1-0.1-0.2c0-0.1,0-0.2,0-0.3c0-0.1,0-0.2,0-0.3
		c-0.1-0.2-0.1-0.3-0.1-0.4c0-0.1,0-0.1-0.1-0.2c0-0.1,0-0.1,0.1-0.2c0-0.1,0-0.1,0-0.2c0-0.1,0-0.1,0-0.2c0-0.1,0-0.2,0-0.3
		c0.1-0.2,0.1-0.3,0.1-0.3c0,0,0-0.1,0.1-0.1c0-0.1,0-0.2,0-0.3c0-0.1,0-0.1,0.1-0.2c0.1-0.2,0.1-0.4,0.1-0.4c0,0,0-0.1,0-0.1
		c0-0.2,0-0.3,0-0.3c0,0,0-0.1,0-0.1c0-0.1,0-0.2,0-0.3c0-0.1,0-0.2,0-0.3c0-0.1,0-0.2,0.1-0.4c0-0.1,0.1-0.2,0.2-0.3
		c0-0.3,0.1-0.5,0.1-0.7c0-0.2,0.1-0.4,0.1-0.6c0.2-0.2,0.3-0.4,0.4-0.6c0.1-0.2,0.2-0.4,0.4-0.6c0-0.1,0.1-0.1,0.1-0.1
		c0,0,0.1-0.1,0.2-0.1c0.2-0.2,0.3-0.4,0.4-0.5c0.1-0.1,0.2-0.2,0.3-0.3c0.1-0.1,0.3-0.1,0.6-0.2c0.3-0.1,0.4-0.2,0.5-0.4
		c0.1,0,0.2-0.1,0.4-0.2c0.1-0.1,0.2-0.2,0.3-0.3c0.1-0.1,0.2-0.1,0.2-0.2c0.1-0.1,0.2-0.1,0.4-0.1c0.1,0,0.3,0,0.4-0.1
		c0.1,0,0.3-0.1,0.4-0.2c0.1,0,0.2-0.1,0.3-0.1c0.1,0,0.2-0.1,0.3-0.1c0.3,0,0.6-0.1,0.7-0.1c0.2,0,0.4-0.1,0.6-0.1
		c0.1,0,0.2-0.1,0.3-0.1c0.1-0.1,0.2-0.1,0.3-0.1c0.1,0,0.2,0,0.3,0c0.1,0,0.2,0,0.3,0c0.2,0,0.2,0,0.3,0c0,0,0.1,0,0.1,0
		c0.1,0,0.2,0,0.3,0c0.1,0,0.2,0.1,0.3,0.1c0.1,0,0.1,0,0.2,0c0.1,0,0.1,0,0.2,0c0.1,0,0.2,0,0.4,0.1c0.2,0,0.3,0,0.4,0
		c0.1,0,0.2,0.1,0.3,0.2c0.2,0,0.4,0.1,0.6,0.1c0.1,0.1,0.3,0.1,0.4,0.2c0.1,0,0.2,0.1,0.3,0.2c0.1,0.1,0.2,0.2,0.3,0.2
		c0,0.1,0.1,0.1,0.1,0.1c0,0,0.1,0.1,0.1,0.2c0.2,0.1,0.4,0.2,0.5,0.3c0.2,0.1,0.4,0.2,0.6,0.2c0.1,0.1,0.2,0.2,0.3,0.3
		c0.1,0.1,0.2,0.2,0.3,0.4c0.1,0.1,0.1,0.1,0.2,0.2c0.1,0.1,0.1,0.1,0.2,0.2c0,0,0.1,0.1,0.1,0.1c0.1,0,0.1,0.1,0.1,0.2
		c0.2,0.2,0.3,0.4,0.5,0.6c0.1,0.1,0.1,0.1,0.2,0.2c0.1,0.1,0.2,0.1,0.2,0.2c0,0.1,0.1,0.2,0.1,0.2c0,0.1,0,0.2,0.1,0.2
		c0.1,0.1,0.1,0.2,0.2,0.2c0,0.1,0.1,0.1,0.1,0.2c0.1,0.2,0.1,0.3,0.1,0.5c0,0.2,0.1,0.3,0.1,0.5c0,0.1,0.1,0.2,0.1,0.4
		c0,0.1,0.1,0.3,0.1,0.4c0,0.2,0.1,0.3,0.1,0.4L349.7,35.2z M344.8,33.8c0-0.1,0-0.1,0-0.2c-0.1-0.1-0.1-0.2-0.2-0.2
		c-0.1-0.1-0.2-0.2-0.2-0.2c-0.1,0-0.1-0.1-0.1-0.2c-0.1,0-0.2-0.1-0.3-0.1c-0.1,0-0.2-0.1-0.2-0.2c-0.1,0-0.2,0-0.2,0
		c0-0.1-0.1-0.1-0.1-0.1c-0.2-0.1-0.3-0.2-0.3-0.2c-0.1-0.1-0.1-0.2-0.2-0.2c-0.1,0-0.1,0-0.2,0c-0.1,0-0.1,0-0.1-0.1
		c-0.3,0.1-0.6,0.1-0.8,0c-0.2-0.1-0.4-0.2-0.6-0.3c-0.2,0.1-0.4,0.1-0.6,0.2c-0.2,0-0.4,0.1-0.6,0.1c-0.2-0.1-0.3-0.1-0.5,0
		c-0.1,0-0.3,0.1-0.5,0c-0.1,0-0.1,0-0.2-0.1c0-0.1-0.1-0.1-0.2-0.1c-0.1,0.1-0.3,0.1-0.4,0.1c-0.1,0-0.3,0-0.5,0
		c-0.1,0.1-0.3,0.2-0.5,0.3c-0.2,0.1-0.4,0.2-0.5,0.3c-0.1,0.1-0.2,0.2-0.3,0.4c-0.1,0.2-0.2,0.3-0.2,0.4c-0.1,0.2-0.2,0.4-0.3,0.6
		c-0.1,0.2-0.2,0.4-0.3,0.6c0,0.1,0.1,0.2,0,0.3c0,0.1,0,0.2,0,0.3c-0.1,0.1-0.2,0.3-0.2,0.5c0,0.2,0,0.4,0,0.7c0.1,0,0.3,0,0.5-0.1
		c0.2-0.1,0.4-0.1,0.6-0.2c0.1,0,0.1-0.1,0.2-0.1c0.1,0,0.1,0,0.2,0c0.3-0.1,0.6-0.2,0.8-0.3c0.2,0,0.4-0.1,0.6-0.2
		c0.2,0,0.4-0.1,0.6-0.2c0.2-0.1,0.4-0.1,0.6,0c0.2-0.2,0.5-0.3,0.8-0.3c0.3,0,0.5-0.1,0.7-0.1c0.2,0,0.3-0.1,0.3-0.1c0,0,0,0,0.1,0
		c0.6-0.2,1.2-0.3,1.8-0.4C343.6,34.2,344.2,34,344.8,33.8z"/>
	<path fill="#FFFFFF" d="M368.9,43.2c0,0.2,0,0.5-0.1,0.7c-0.1,0.2-0.3,0.3-0.6,0.4c-0.1,0.1-0.2,0.2-0.3,0.3s-0.3,0.2-0.5,0.3
		c-0.1,0.1-0.2,0.1-0.3,0.2c-0.1,0.1-0.2,0.2-0.4,0.3c-0.1,0-0.2,0.1-0.3,0.1c-0.1,0.1-0.2,0.1-0.3,0.2c-0.1,0.1-0.2,0.1-0.3,0.1
		c-0.1,0-0.1,0-0.1,0.1c-0.1,0-0.1,0-0.2,0.1c-0.1,0-0.1,0.1-0.2,0.1c-0.2,0.1-0.4,0.1-0.7,0.3c-0.3,0.1-0.6,0.2-0.9,0.2
		c-0.4,0-0.7,0-1.1,0c-0.2,0-0.3,0-0.4,0c-0.1,0-0.3,0-0.4,0c-0.1,0-0.3,0-0.4-0.1c-0.1-0.1-0.3-0.1-0.4-0.1c-0.2,0-0.3,0-0.5,0
		c-0.2,0-0.3,0-0.4,0c-0.3-0.1-0.4-0.1-0.6-0.1c-0.1,0-0.3,0-0.4-0.1c-0.1-0.1-0.2-0.1-0.3-0.1c-0.1,0-0.1,0-0.1,0
		c-0.1-0.1-0.2-0.1-0.2-0.1c0,0-0.1,0-0.1,0c-0.1-0.1-0.3-0.1-0.4-0.2c-0.1-0.1-0.2-0.1-0.4-0.2c-0.1-0.1-0.3-0.1-0.4-0.2
		c-0.3-0.1-0.5-0.2-0.7-0.3c-0.2-0.1-0.3-0.1-0.4-0.1c-0.2-0.2-0.4-0.4-0.6-0.6c-0.2-0.2-0.4-0.4-0.5-0.7c-0.1-0.1-0.2-0.2-0.3-0.3
		c-0.1-0.1-0.2-0.2-0.3-0.3c-0.1-0.1-0.1-0.2-0.2-0.2c0,0-0.1-0.1-0.1-0.1c0-0.1-0.1-0.2-0.2-0.2c-0.1-0.1-0.1-0.1-0.2-0.1
		c-0.1-0.2-0.2-0.3-0.3-0.4c-0.1-0.1-0.1-0.1-0.2-0.3c-0.1-0.1-0.1-0.2-0.2-0.3c-0.1-0.1-0.1-0.1-0.1-0.2c-0.1-0.2-0.2-0.4-0.2-0.5
		c0-0.1-0.1-0.2-0.1-0.3c-0.1-0.2-0.2-0.4-0.2-0.6c-0.1-0.3-0.1-0.6-0.2-0.8c-0.1-0.3,0-0.5,0.1-0.6c-0.1-0.3-0.1-0.5-0.1-0.8
		c0.1-0.1,0.1-0.3,0.1-0.3c0-0.1,0-0.1,0-0.2c0-0.1,0-0.2,0-0.2c0,0,0-0.1,0-0.2c0-0.1,0-0.2,0-0.5c0-0.3,0-0.5,0-0.7
		c0,0,0-0.1,0.1-0.1c0-0.1,0-0.1,0.1-0.2c0-0.2,0-0.3,0-0.3c0,0,0-0.1,0.1-0.1c0-0.2,0.1-0.4,0.1-0.6c0-0.2,0.1-0.4,0.2-0.6
		c0-0.1,0.1-0.2,0.1-0.3c0-0.1,0.1-0.2,0.2-0.2c-0.1-0.1-0.1-0.3,0-0.5c0.1-0.2,0.2-0.3,0.3-0.4c0-0.1,0-0.2,0-0.3
		c0-0.1,0.1-0.2,0.1-0.3c0.1-0.2,0.1-0.3,0.2-0.3c0,0,0.1-0.1,0.1-0.1c0-0.1,0.1-0.2,0.2-0.3c0.1-0.1,0.1-0.1,0.2-0.3
		c0.1-0.1,0.2-0.3,0.3-0.5c0.1-0.2,0.2-0.3,0.3-0.5c0.2-0.1,0.3-0.1,0.4-0.2c0-0.1,0.1-0.2,0.1-0.2c0.3-0.2,0.6-0.4,0.9-0.6
		c0.2-0.2,0.5-0.3,0.8-0.4c0.1-0.1,0.2-0.2,0.4-0.3c0.2-0.1,0.3-0.2,0.4-0.3c0.2,0,0.4-0.1,0.5-0.2c0.1-0.1,0.3-0.2,0.5-0.2
		c0.2-0.1,0.3-0.2,0.4-0.3c0.1,0,0.2,0,0.3,0c0.1,0,0.2,0,0.3-0.1c0.1,0,0.3-0.1,0.4-0.1c0.1-0.1,0.2-0.1,0.4-0.1c0.1,0,0.1,0,0.2,0
		c0.1,0,0.2,0,0.3,0c0.3,0,0.6-0.1,0.9,0c0.3,0,0.6,0,0.9,0c0.2,0.1,0.4,0.2,0.6,0.2c0.2,0,0.5,0.1,0.7,0.2c0.3,0,0.7,0.1,1.1,0.2
		c0.3,0.1,0.5,0.2,0.6,0.2c0.2,0.1,0.3,0.2,0.3,0.4c0.2,0,0.4,0.1,0.6,0.3c0.2,0.2,0.3,0.3,0.5,0.5c0.1,0.1,0.2,0.2,0.2,0.2
		c0.1,0.1,0.1,0.1,0.2,0.3c0.1,0.1,0.2,0.3,0.3,0.3c0.1,0.1,0.1,0.1,0.2,0.2c0.1,0.1,0.2,0.3,0.4,0.4c0.1,0.2,0.3,0.3,0.5,0.4
		c0,0.1,0,0.2,0,0.3c0,0.1,0,0.1,0,0.3c0.1,0,0.1,0.1,0.2,0.1c0.1,0,0.1,0.1,0.1,0.2v0.5c0,0.1-0.1,0.2-0.1,0.2c0,0-0.1,0.1-0.1,0.1
		c0,0.2,0,0.3-0.1,0.4c-0.1,0.1-0.2,0.2-0.2,0.4c-0.2,0.1-0.3,0.2-0.4,0.4c-0.1,0.2-0.3,0.3-0.5,0.4c-0.1,0-0.2,0-0.3-0.1
		c-0.1,0-0.2,0-0.3,0c-0.1-0.3-0.2-0.5-0.3-0.7c-0.1-0.2-0.1-0.4-0.2-0.5c-0.1-0.1-0.2-0.1-0.3-0.2c-0.1-0.1-0.2-0.1-0.3-0.2
		c0,0-0.1-0.1-0.2-0.1c-0.1,0-0.1-0.1-0.2-0.1c-0.1,0-0.1-0.1-0.1-0.1c0-0.1-0.1-0.1-0.2,0c-0.1,0-0.1-0.1-0.2-0.2
		c0-0.1-0.1-0.1-0.1-0.2c-0.3,0-0.6-0.1-1-0.1c-0.3,0-0.6-0.1-0.8-0.3c-0.1,0-0.3,0-0.6,0c-0.3,0-0.4-0.1-0.5-0.2
		c-0.2,0-0.4,0-0.6,0.1c-0.2,0-0.4,0-0.6,0c-0.1,0-0.2,0-0.3,0c-0.1,0-0.2,0-0.3,0.1c-0.2,0-0.4,0.1-0.6,0.2
		c-0.2,0.1-0.4,0.1-0.6,0.2c-0.1,0-0.1,0.1-0.2,0.2c-0.1,0.1-0.1,0.1-0.2,0.2c-0.1,0-0.2,0.1-0.2,0.1c-0.1,0-0.1,0.1-0.2,0.1
		c-0.1,0.1-0.3,0.2-0.4,0.4c-0.1,0.1-0.2,0.3-0.3,0.4c0,0-0.1,0.1-0.1,0.1c0,0-0.1,0.1-0.1,0.1c-0.1,0.1-0.2,0.2-0.3,0.4
		c-0.1,0.1-0.2,0.3-0.3,0.3c0,0.2-0.1,0.3-0.2,0.4c0,0.1,0,0.2,0,0.3c0,0.1-0.1,0.1-0.1,0.2c0,0.1-0.1,0.2-0.1,0.3
		c0,0.1,0,0.2,0,0.3c-0.1,0.1-0.1,0.1-0.2,0.2c0,0.1-0.1,0.2-0.1,0.3c-0.1,0.3-0.1,0.5-0.2,0.6c0,0.2-0.1,0.3-0.1,0.5
		c0,0.2,0,0.5-0.1,0.7c-0.1,0.3-0.1,0.5-0.1,0.7c0,0.1,0.1,0.3,0.1,0.5c0,0.2,0.1,0.4,0.1,0.5c0,0.1,0.1,0.3,0.1,0.4
		c0,0.1,0.1,0.3,0.1,0.4c0.1,0.1,0.2,0.2,0.2,0.3c0,0.1,0,0.1,0.1,0.2c0.1,0.1,0.1,0.2,0.1,0.2c0,0,0.1,0.1,0.1,0.1
		c0,0.1,0.1,0.1,0.2,0.3c0.1,0.1,0.1,0.2,0.2,0.3c0,0.1,0.1,0.1,0.1,0.2c0.1,0.1,0.1,0.1,0.1,0.2c0,0,0.1,0.1,0.2,0.1
		c0.1,0,0.1,0.1,0.1,0.2c0.1,0,0.3,0,0.4,0.1c0.1,0.1,0.2,0.1,0.3,0.2c0.1,0,0.2,0.1,0.3,0.1c0.1,0.1,0.2,0.1,0.3,0.1
		c0.1,0,0.2,0.1,0.4,0.2c0.2,0.1,0.4,0.1,0.5,0.1c0.2,0,0.4,0,0.5,0c0.1,0,0.2,0,0.2,0c0.1,0,0.3,0,0.4,0c0.1,0,0.3,0,0.4,0
		c0.2,0,0.3,0,0.5,0c0.1,0,0.3,0,0.4,0.1c0.1,0,0.2-0.1,0.3-0.1c0.1,0,0.2-0.1,0.3-0.1c0.1,0,0.2-0.1,0.3-0.1c0.1,0,0.2,0,0.3-0.1
		c0.1-0.1,0.2-0.2,0.3-0.2c0,0,0.1,0,0.1,0c0.2-0.2,0.4-0.3,0.6-0.3c0.2-0.1,0.3-0.1,0.4-0.1c0.1,0,0.2-0.1,0.3-0.2
		c0.1-0.1,0.2-0.1,0.3-0.1c0-0.1,0.1-0.2,0.3-0.2c0.1,0,0.3-0.1,0.4-0.3c0,0,0.1-0.1,0.2-0.1c0.1-0.1,0.2-0.1,0.2-0.1
		c0.1-0.1,0.2-0.2,0.2-0.3c0.1-0.1,0.1-0.2,0.2-0.2c0.1,0,0.2,0.1,0.2,0.1c0.1,0,0.2,0,0.3,0c0.1,0.2,0.2,0.3,0.3,0.5
		c0.1,0.2,0.2,0.4,0.4,0.5c0,0.1,0.1,0.2,0.2,0.2c0.1,0,0.1,0,0.1,0.1c0,0,0.1,0.1,0,0.2c0,0.1,0,0.1,0,0.2c0.1,0,0.2,0.1,0.3,0.2
		c0.1,0.1,0.2,0.1,0.3,0.1c0,0.1,0.1,0.2,0.2,0.3C368.8,43,368.9,43.1,368.9,43.2z"/>
	<path fill="#FFFFFF" d="M381.9,28.2c0,0.2,0,0.4,0,0.5c0,0.1,0,0.2,0,0.2c0,0.2-0.1,0.3-0.3,0.4c-0.1,0.1-0.2,0.1-0.3,0.2
		c-0.2-0.1-0.5-0.1-0.7-0.1c-0.2,0.1-0.4,0.1-0.6,0.2c0,0-0.1,0-0.2,0c-0.1,0-0.2,0-0.2,0c-0.2,0-0.4,0-0.6,0.1
		c-0.2,0.1-0.3,0.1-0.5,0.1c-0.1,0-0.2,0-0.3,0c-0.1,0-0.2,0-0.3,0.1c-0.1,0.2-0.1,0.5-0.1,0.7c0,0.3,0,0.5,0,0.8
		c0,0.4-0.1,0.7,0,0.9c0,0.2,0.1,0.5,0.1,0.6c0,0.2,0,0.4,0,0.6c0,0.2,0,0.4,0.1,0.6c-0.1,0.1-0.1,0.3-0.1,0.5c0,0.2,0,0.4,0,0.6
		c0,0.3,0,0.7,0,1.2c0,0.4,0.1,0.8,0.1,1.2c0,0.2,0,0.3-0.1,0.5c0,0.1,0,0.3-0.1,0.4c0,0.2-0.1,0.3,0,0.4c0,0,0,0.1,0,0.1
		c0,0.2,0,0.5,0,0.9c0,0.3,0,0.7,0,1c0,0.2,0,0.4,0,0.5c0,0.1,0,0.2,0,0.3c0,0.2,0.1,0.4,0.1,0.6c0,0.2,0,0.4-0.2,0.7
		c0,0.1,0,0.1,0.1,0.2c0,0.1,0.1,0.1,0.1,0.2c0,0.2-0.1,0.3,0,0.4c0,0.1,0.1,0.2,0.1,0.2c0,0.3-0.1,0.5,0,0.7c0,0.2,0,0.4,0.1,0.5
		c0,0.8-0.2,1.3-0.5,1.5c-0.3,0-0.6-0.1-0.9-0.1c-0.3,0-0.6,0-0.9,0c-0.1,0-0.3,0.1-0.4,0.1c-0.1,0-0.3,0-0.5-0.1
		c-0.1,0-0.2,0.1-0.3,0.1c0,0-0.1,0.1-0.2,0.1c-0.1,0-0.2,0-0.3-0.1c-0.1-0.1-0.2-0.1-0.3-0.1c0-0.3-0.1-0.7,0-1.1s0-0.9,0-1.4
		c0-0.1,0-0.2,0-0.3c0-0.1,0-0.2-0.1-0.3c0-0.2,0-0.4,0-0.5c0-0.2,0-0.4,0-0.6c0-0.1,0-0.2,0-0.2c0-0.1,0-0.2,0-0.2
		c0-0.1,0-0.2-0.1-0.2c0,0-0.1-0.1-0.1-0.2c0-0.3,0-0.6,0.1-0.9c0.1-0.3,0.1-0.5,0.2-0.8c0-0.3-0.1-0.5-0.1-0.6c0-0.1,0-0.3,0-0.4
		c0-0.1-0.1-0.2-0.1-0.3c0-0.1-0.1-0.2-0.1-0.4c0-0.1,0-0.2,0-0.2c0,0,0-0.1-0.1-0.3c0-0.4,0-0.8,0-1.1s0-0.7,0-1
		c-0.1-0.3-0.1-0.5-0.1-0.6c0-0.2,0-0.3,0-0.4c0-0.2,0-0.4-0.1-0.6c0-0.2,0-0.4,0-0.6c0-0.1,0-0.2,0-0.3c0-0.1,0-0.2,0-0.3
		c0-0.1,0-0.2-0.1-0.3c0-0.1-0.1-0.2-0.1-0.3c0-0.2,0-0.4,0.1-0.6s0.1-0.4,0.1-0.6c0-0.1,0-0.2-0.1-0.2c0-0.1,0-0.2,0-0.2
		c0-0.2,0-0.5,0.1-0.7c0.1-0.2,0.1-0.4,0-0.7c-0.5,0.1-0.9,0.2-1.2,0.3c-0.1,0-0.2,0-0.3,0.1c-0.1,0-0.2,0-0.3,0.1
		c-0.2,0-0.4,0.1-0.5,0.1c-0.1,0-0.3,0-0.4-0.1c-0.2-0.2-0.4-0.4-0.4-0.5c0-0.2,0-0.4,0.1-0.5c0.1-0.1,0.2-0.2,0.3-0.4
		c0-0.1,0-0.2,0-0.2c0,0,0.1-0.1,0.1-0.3c0-0.1,0-0.3,0-0.4c0-0.1,0-0.3,0.1-0.4c0-0.1,0.1-0.3,0.2-0.4c0.1-0.1,0.1-0.2,0.1-0.4
		c0-0.2,0-0.3,0-0.5c0-0.2,0-0.3,0-0.5c0.1-0.4,0.4-0.6,0.9-0.5c0.1,0,0.3,0.1,0.4,0.1c0.1,0,0.2,0.1,0.3,0.2c0.2,0,0.4,0,0.5,0.1
		c0.1,0.1,0.3,0.1,0.5,0.1c0.2-0.2,0.2-0.5,0.2-0.9c0-0.4,0-0.8,0-1.2c0-0.2,0.1-0.4,0-0.5c0-0.1,0-0.2-0.1-0.3c0-0.4,0-0.7,0-1
		c0-0.1,0-0.2,0.1-0.2c0-0.1,0-0.2,0-0.2c0-0.2,0-0.4-0.1-0.5c0-0.1,0-0.3-0.1-0.3s-0.1-0.1-0.1-0.2c0,0-0.1-0.1-0.1-0.1
		c0,0,0-0.1,0-0.2c0.2-0.2,0.3-0.3,0.4-0.2c0.1,0,0.2,0,0.3,0c0.2,0,0.4-0.1,0.5-0.1c0.1,0,0.3,0,0.5,0c0.2,0,0.4-0.1,0.5,0
		c0.1,0,0.3,0.1,0.4,0.1c0.1,0,0.2-0.1,0.3-0.1c0.1,0,0.1-0.1,0.2-0.1c0.1,0,0.2,0.1,0.3,0c0.1,0,0.2,0,0.3,0.1
		c0.1,0.2,0.2,0.3,0.3,0.3c0,0,0.1,0.1,0.1,0.1c0,0.2,0.1,0.5,0,0.8c0,0.4-0.1,0.7-0.1,0.9c0,0.1,0,0.2,0,0.4c0,0.1,0,0.2,0,0.4
		c0,0.1,0,0.2,0,0.3c0,0.1,0,0.2,0,0.3c0.1,0.2,0.1,0.4,0.1,0.5c0,0.1,0,0.2,0,0.2c0,0.2,0.1,0.3,0.1,0.5c0,0.1,0,0.3-0.2,0.5
		c0,0.1,0.1,0.3,0,0.4c0,0.1,0,0.3-0.1,0.5c0,0.1,0,0.2,0,0.3c0,0.1,0,0.2,0,0.3c0,0.1,0,0.2-0.1,0.3c0,0.1,0,0.2,0,0.3
		c0.2,0,0.4,0,0.5-0.1c0.1-0.1,0.3-0.2,0.4-0.2c0.1,0,0.3-0.1,0.5-0.1c0.2,0,0.3,0,0.5-0.2c0.1,0.1,0.3,0.1,0.4,0
		c0.1-0.1,0.3-0.1,0.4,0.1c0.1-0.1,0.3-0.3,0.6-0.3s0.5-0.1,0.7,0c0.1,0.2,0.2,0.3,0.2,0.4c0,0.1,0.1,0.1,0.1,0.2c0,0,0,0.1,0,0.2
		c0,0.1,0,0.2,0,0.3c0,0.2,0.1,0.3,0.1,0.4c0,0.1,0,0.1,0,0.2c0,0.2,0.1,0.3,0.1,0.5c0,0.1,0.1,0.3,0.1,0.4L381.9,28.2z"/>
	<path fill="#FFFFFF" d="M59.6,45.2c-0.2,0-0.3-0.1-0.4-0.2C59,44.7,59,44.3,59.1,44c0.1-0.4,0.1-0.7,0.1-1.1c0-0.1,0-0.2,0-0.2
		c0-0.1,0-0.2-0.1-0.2c0-0.2,0-0.3-0.1-0.5c0-0.2,0-0.3-0.1-0.5c0-0.2,0-0.5,0-0.7c0-0.2,0-0.3,0-0.5l-0.7-3.5l-0.4-4.6l0.5-2.2
		l0.5-0.8c0-0.1,0-0.1,0-0.2c0-0.3,0-0.6-0.1-0.9c0-0.1,0-0.2-0.1-0.4c0-0.1,0-0.3,0-0.6c0,0,0-0.1,0-0.2c0-0.1-0.1-0.2-0.1-0.5
		c0,0,0-0.1,0-0.2c0-0.1,0-0.2,0-0.4c0-0.2,0-0.4,0-0.6c0-0.2,0-0.4,0-0.6c0,0,0-0.1-0.1-0.2c0-0.1,0-0.1,0-0.2c0-0.1,0-0.2-0.1-0.2
		c0-0.1,0-0.1,0-0.2c0-0.1,0-0.3,0-0.4c0-0.1,0-0.3,0-0.4c0-0.1,0-0.1-0.1-0.2c0-0.1,0-0.3,0-0.5V22c0-0.1,0.1-0.1,0.2-0.1
		c0.1,0,0.1-0.1,0.1-0.2c0-0.1-0.1-0.2-0.1-0.3c0-0.1-0.1-0.2-0.1-0.3c-0.1,0-0.2-0.1-0.4-0.2c-0.2-0.1-0.3-0.1-0.4-0.1
		c-0.1,0-0.2,0.1-0.3,0.1c-0.1,0.1-0.2,0.1-0.3,0.1c-0.4,0-0.7,0-1.1,0c-0.4,0-0.7,0-1.2-0.1c-0.1,0.1-0.2,0.2-0.3,0.3
		c0,0.2-0.1,0.3-0.1,0.5c0,0,0.1,0.1,0.1,0.1c0.1,0,0.1,0.1,0,0.2c-0.1,0.2-0.1,0.4-0.2,0.7c-0.1,0.2-0.1,0.4-0.1,0.6
		c0,0.1-0.1,0.1-0.1,0.2c0,0.1-0.1,0.1-0.1,0.2c0.1,0.1,0.1,0.2,0,0.3c-0.1,0.1-0.1,0.2-0.1,0.4c0,0.1,0,0.2,0.1,0.4
		c0,0.1,0,0.2-0.1,0.3c0.1,0.1,0.1,0.3,0.1,0.4c0,0.1,0,0.3,0,0.4c0,0.1,0,0.1,0,0.2c0,0.1,0,0.2,0,0.4c0,0,0,0.1,0,0.1
		c0,0.1,0,0.2,0,0.3c0,0,0,0.1,0.1,0.1c0,0,0,0.1,0,0.3c0,0.1,0,0.1,0,0.2c0,0.1,0,0.2,0,0.2c0,0.2,0,0.5,0,0.7c0,0.2,0,0.5,0.1,0.7
		c0,0.2,0,0.3,0.1,0.5c0,0.1,0,0.3,0,0.4c0,0,0,0.1,0,0.2c0,0.1,0,0.2,0,0.4c0,0.1,0,0.2,0,0.3c0,0.1,0,0.2,0,0.3
		c0,0.1,0,0.2,0.1,0.4c0,0.1,0,0.3,0,0.5c0,0.2,0,0.4,0,0.6c0,0.2,0,0.4,0.1,0.5c0,0.3,0.1,0.5,0.1,0.7c0,0.2,0,0.5,0,0.8
		c0,0.1,0,0.2,0.1,0.3c0,0.1,0,0.2,0,0.3c0,0.1,0,0.2-0.1,0.3c0,0.1,0,0.3,0,0.4c0,0.1,0,0.2,0,0.3c0,0,0,0.1,0,0.2
		c0,0.1,0,0.2,0,0.3c0,0.1,0,0.2,0,0.2c0,0.1,0,0.1,0,0.2c0,0.2,0,0.4,0,0.6c0.1,0.1,0.1,0.3,0.1,0.5C55,38.3,55,38.3,55,38.4
		c0,0.1,0,0.2,0,0.2c0,0.2,0,0.3-0.1,0.5c0,0.1,0,0.3,0.1,0.4c-0.1,0.1-0.1,0.2-0.1,0.4c0,0.1,0,0.3,0,0.4c0,0.2-0.1,0.4-0.1,0.6
		c-0.1,0.2,0,0.3,0.1,0.5c-0.2,0.3-0.3,0.7-0.2,1.2c0,0.5,0.1,0.9,0.1,1.3c0,0.2,0,0.4,0,0.5s0,0.3,0,0.5v0.6c0,0.1,0,0.3,0,0.4
		c0,0.1,0.1,0.2,0.2,0.3c0.1,0,0.2,0,0.1,0c0-0.1,0.1,0,0.2,0.1c0.5,0.1,1.1,0.1,1.6,0c0.5-0.1,1.1-0.1,1.6,0
		c0.1,0.1,0.3,0.1,0.5,0.2c0.2,0,0.4,0,0.6,0c0.1,0,0.1-0.1,0.1-0.2c0-0.1,0-0.2,0-0.2c0.2,0,0.3,0,0.3-0.3L60,45.4
		C59.9,45.3,59.7,45.2,59.6,45.2z"/>
	<path fill="#FFFFFF" d="M106.7,35.4c0-0.1,0-0.2,0-0.3c0-0.1-0.1-0.2-0.1-0.3c0-0.1,0-0.2,0-0.3c0-0.1,0-0.2,0-0.3
		c0-0.2-0.1-0.3-0.2-0.5c-0.1-0.2-0.1-0.3,0-0.5c-0.1-0.2-0.2-0.4-0.3-0.7c-0.1-0.3-0.1-0.5-0.2-0.6c-0.1-0.1-0.2-0.3-0.3-0.4
		c-0.1-0.1-0.1-0.3-0.2-0.4c-0.1-0.1-0.1-0.2-0.2-0.3c-0.1-0.1-0.1-0.2-0.2-0.3c0,0,0-0.1,0-0.1c0-0.1-0.1-0.2-0.2-0.3
		c0,0-0.1-0.1-0.1-0.2c0-0.1-0.1-0.2-0.1-0.4c-0.1-0.1-0.1-0.1-0.2-0.2c-0.1-0.1-0.2-0.1-0.2-0.2c-0.1-0.1-0.2-0.2-0.3-0.3
		c-0.1-0.1-0.2-0.3-0.3-0.6c0,0-0.1-0.1-0.2-0.1c-0.1,0-0.2-0.1-0.3-0.2c-0.1-0.1-0.2-0.1-0.2-0.2c-0.1,0-0.2-0.1-0.3-0.1
		c-0.1,0-0.2-0.1-0.2-0.1c-0.1-0.1-0.2-0.1-0.3-0.1c-0.2-0.1-0.3-0.2-0.5-0.3c-0.1-0.1-0.3-0.2-0.6-0.2c-0.1-0.1-0.2-0.2-0.3-0.3
		c-0.2,0-0.3-0.1-0.4-0.2c-0.4-0.1-0.8-0.1-1.2-0.2c-0.5-0.1-0.8-0.1-1.1,0.1c-0.1-0.1-0.1-0.1-0.2-0.1c0,0-0.1,0-0.2,0
		c-0.1,0-0.2,0-0.3,0c-0.1,0-0.2,0-0.3,0c-0.1,0-0.3,0-0.4,0c-0.2,0-0.3,0-0.3,0.1c0,0-0.1,0-0.1,0c0,0-0.2,0-0.4,0.1
		c-0.3,0.1-0.5,0.1-0.8,0.2c-0.3,0-0.5,0.1-0.7,0.2c-0.1,0-0.2,0.1-0.3,0.1c-0.1,0-0.1,0.1-0.2,0.1c-0.1,0.1-0.2,0.1-0.3,0.2
		C93.4,27,93.2,27,93,27.1c0-0.4,0-0.9,0-1.3c0-0.4,0-0.9,0-1.3c0-0.2-0.1-0.4-0.1-0.6c0-0.2-0.1-0.3-0.1-0.5c0-0.1,0-0.3,0-0.5
		c0-0.2,0-0.3,0-0.4c0-0.1,0-0.2-0.1-0.3c0-0.1,0-0.2-0.1-0.3c0,0,0-0.1,0-0.2c0-0.1,0-0.3-0.1-0.5c0-0.1,0-0.3,0-0.4
		c0-0.1,0-0.3-0.1-0.4c0,0,0-0.1,0-0.1c0,0-0.1-0.1-0.2-0.2c-0.2,0-0.3,0-0.5,0c-0.2,0-0.3,0-0.5,0c-0.1,0-0.2,0-0.3,0.1
		c-0.1,0-0.2,0-0.3,0c-0.1,0-0.2,0-0.3,0c-0.1,0-0.2,0-0.2,0.1c-0.1,0-0.1-0.1-0.2-0.1c0-0.1-0.2,0-0.4,0c0-0.1,0-0.1-0.1-0.1
		c-0.1,0-0.2,0.1-0.3,0.2c0,0.1-0.1,0.1-0.1,0.2c0,0.1-0.1,0.2-0.1,0.2c0,0.2,0,0.5,0,0.8c-0.1,0.3-0.1,0.5,0,0.8
		c-0.1,0.1-0.2,0.2-0.2,0.4c0,0.3-0.1,0.6-0.1,0.9c0,0.3,0,0.6,0,0.9c0,0.1,0,0.2,0,0.3l0.5,0.5l1,2.1l0.5,4.6V37L90,40.2l-1.2,4.3
		c0.1,0,0.2,0,0.2,0.1c0,0.1,0,0.2,0.1,0.2c0.1,0.1,0.2,0.1,0.3,0.1c0.1,0,0.2,0.1,0.3,0.1c0.1-0.1,0.2-0.1,0.4,0
		c0.1,0.1,0.3,0.1,0.5,0.1c0.2,0.2,0.4,0.3,0.8,0.3c0.4,0,0.7-0.1,1-0.2c0.1-0.1,0.2-0.3,0.1-0.6c-0.1-0.2,0-0.5,0.1-0.7
		c0.1,0.1,0.3,0.2,0.5,0.3c0.2,0.1,0.4,0.3,0.6,0.4c0.1,0.1,0.2,0.1,0.3,0.2c0.1,0,0.2,0.1,0.3,0.1c0.1,0,0.2,0.1,0.3,0
		c0.1,0,0.3,0,0.5,0c0.1,0.1,0.3,0.2,0.4,0.2c0.1,0,0.2,0,0.3,0c0.1,0,0.1-0.1,0.2-0.1c0.2,0,0.3,0,0.4,0c0.1,0,0.2,0,0.3-0.1
		c0.3,0.1,0.6,0.1,0.9,0.1c0.3,0,0.6-0.1,1-0.1c0.1,0,0.1-0.1,0.2-0.1c0-0.1,0.1-0.1,0.2-0.1c0.2,0,0.3,0,0.4,0
		c0.1-0.1,0.2-0.1,0.3-0.1c0.2,0,0.3,0,0.5,0c0.2-0.1,0.3-0.1,0.4-0.2c0.1,0,0.1-0.1,0.2-0.1c0.1,0,0.1-0.1,0.3-0.2
		c0.2-0.1,0.3-0.2,0.5-0.3c0.2-0.1,0.3-0.1,0.5-0.3c0.2-0.1,0.5-0.3,0.7-0.4c0.2-0.2,0.4-0.3,0.6-0.5c0-0.1,0.1-0.1,0.1-0.2
		c0-0.1,0.1-0.1,0.1-0.2c0.1,0,0.2,0,0.3,0c0-0.1,0.1-0.1,0.2-0.1c0.1-0.3,0.3-0.5,0.5-0.6c0.2-0.2,0.3-0.4,0.4-0.8
		c0.1,0,0.2-0.1,0.3-0.2c0.1-0.1,0.1-0.2,0.2-0.3c0.1-0.1,0.1-0.2,0.2-0.3c0.1-0.1,0.1-0.2,0.2-0.3c0-0.1,0.1-0.2,0.1-0.2
		c0-0.1,0.1-0.1,0.1-0.3c0.1-0.3,0.2-0.6,0.3-1s0.2-0.7,0.2-1.1c0.1-0.1,0.2-0.3,0.2-0.5c0-0.2,0-0.4,0.1-0.6c0-0.2,0-0.3,0-0.5
		C106.7,35.7,106.7,35.5,106.7,35.4z M103.5,37.4c-0.1,0.1-0.1,0.2-0.1,0.3c0,0.1-0.1,0.2-0.1,0.4c0,0.1-0.1,0.2-0.2,0.3
		c-0.1,0.1-0.1,0.3-0.3,0.5c0,0.1-0.1,0.2-0.1,0.2c0,0.1-0.1,0.2-0.2,0.3c0,0,0,0-0.1,0.1c0,0-0.1,0.1-0.1,0.2c0,0-0.1,0.1-0.1,0.1
		c0,0.1-0.1,0.1-0.1,0.1c0,0.1-0.1,0.1-0.1,0.2c0,0.1,0,0.1-0.1,0.2c-0.1,0.1-0.2,0.2-0.3,0.3c-0.1,0.1-0.3,0.2-0.4,0.3
		c-0.1,0.1-0.2,0.2-0.3,0.3c-0.1,0.1-0.2,0.2-0.3,0.3c-0.1,0.1-0.3,0.1-0.4,0.1c-0.1,0-0.3,0-0.5,0.1c-0.3,0-0.7,0.1-1,0.1
		c-0.4,0-0.7,0-1.1,0c-0.2,0-0.4-0.1-0.5-0.1c-0.1-0.1-0.3-0.2-0.6-0.3c-0.1,0-0.2-0.1-0.2-0.2c-0.1-0.1-0.2-0.1-0.3-0.1
		c-0.1-0.1-0.3-0.3-0.5-0.4c-0.2-0.1-0.4-0.2-0.6-0.4c0,0-0.1-0.1-0.1-0.2c0-0.1-0.1-0.1-0.2-0.2c-0.1-0.1-0.2-0.1-0.3-0.2
		c-0.1,0-0.1-0.1-0.2-0.2c-0.1-0.1-0.1-0.2-0.2-0.4c0-0.1-0.2-0.3-0.3-0.6c0-0.1-0.1-0.2-0.1-0.3c0-0.1-0.1-0.2-0.2-0.5
		c0,0,0-0.1-0.1-0.1c0-0.1-0.1-0.2-0.1-0.4c0-0.1-0.1-0.2-0.1-0.3c-0.1-0.1-0.1-0.2,0-0.3c-0.2-0.4-0.3-0.9-0.3-1.4
		c0-0.2,0.1-0.5,0.1-0.8c0.1-0.3,0.1-0.6,0.2-1c0,0,0-0.1,0-0.2c0-0.1,0.1-0.2,0.2-0.4c0-0.1,0.1-0.2,0.1-0.2c0-0.1,0.1-0.1,0.1-0.2
		c0.1-0.2,0.2-0.4,0.4-0.6c0.1-0.2,0.3-0.4,0.4-0.6c0.1-0.1,0.3-0.2,0.4-0.3c0.1-0.1,0.2-0.2,0.3-0.3c0.1-0.1,0.2-0.2,0.3-0.3
		c0.1-0.1,0.2-0.2,0.3-0.3c0.2,0,0.3-0.1,0.4-0.2c0.1-0.1,0.2-0.2,0.4-0.2c0,0,0.1,0,0.2,0c0.1,0,0.3,0,0.5-0.1
		c0.1,0,0.3-0.1,0.4-0.1c0.2,0,0.3,0,0.4,0c0.1,0.1,0.2,0.2,0.3,0.2c0.1,0,0.3,0,0.3,0c0.1,0,0.2,0.1,0.2,0.2c0,0.1,0.1,0.2,0.2,0.2
		c0.3-0.1,0.5-0.1,0.7-0.1c0.2,0,0.4,0.1,0.7,0.3c0,0,0.1,0,0.2,0.1c0.1,0,0.2,0.1,0.3,0.2c0.1,0,0.2,0.1,0.4,0.1
		c0.1,0,0.1,0.1,0.1,0.2c0,0.1,0.1,0.1,0.1,0.2c0,0,0.1,0.1,0.1,0.1c0.1,0,0.1,0.1,0.1,0.1c0.2,0,0.3,0.1,0.3,0.2
		c0.1,0.1,0.2,0.1,0.3,0.1c0,0.1,0.1,0.3,0.2,0.4c0.1,0.1,0.2,0.2,0.3,0.3c0,0.1,0,0.2,0,0.3c0.1,0.1,0.1,0.1,0.1,0.2
		c0,0.1,0.1,0.2,0.1,0.3c0,0.1,0.1,0.1,0.2,0.2c0,0.1,0,0.3,0,0.4c0,0.1,0.1,0.2,0.1,0.3c0,0.1,0,0.1,0,0.2c0,0.1,0,0.2,0.1,0.5
		c0,0.1,0,0.3,0,0.4c0,0.1,0,0.2,0.1,0.3c0,0.1,0,0.1,0,0.2c0,0,0,0.1,0,0.2c0,0.1,0,0.1,0,0.2c0,0.1,0,0.1,0,0.2
		c0,0.2,0,0.5-0.1,0.7C103.4,37,103.5,37.2,103.5,37.4z"/>
	<path fill="#FFFFFF" d="M161.7,38.4l-0.5-5.4l0.2-0.9c-0.2-0.1-0.4-0.3-0.6-0.4c-0.1,0-0.1-0.1-0.2-0.1c-0.1,0-0.1-0.1-0.2-0.2
		c-0.2-0.1-0.4-0.3-0.6-0.4c-0.2-0.1-0.5-0.3-0.8-0.5c-0.1,0-0.2-0.1-0.3-0.1c-0.1,0-0.2-0.1-0.3-0.2c-0.2,0-0.3,0-0.4,0
		c-0.1-0.1-0.2-0.1-0.3,0c0-0.1-0.1-0.2-0.2-0.3s-0.2-0.2-0.2-0.3c-0.2-0.1-0.4-0.2-0.6-0.4c-0.2-0.2-0.4-0.3-0.7-0.4
		c-0.1,0-0.1-0.1-0.2-0.2s-0.2-0.1-0.5-0.1c0-0.1,0-0.2-0.1-0.2c-0.1,0-0.2-0.1-0.4-0.3c-0.3-0.2-0.5-0.4-0.8-0.5
		c0-0.1-0.1-0.2-0.1-0.2c-0.1,0-0.1-0.1-0.1-0.3c-0.1,0-0.3-0.1-0.3-0.1c-0.1-0.1-0.2-0.1-0.3-0.2c-0.1-0.1-0.1-0.2-0.2-0.3
		c-0.1-0.1-0.1-0.1-0.3-0.2c-0.1-0.3-0.2-0.5-0.4-0.7c-0.1-0.2-0.2-0.5-0.3-0.8c-0.1-0.2-0.1-0.5,0-0.8c0-0.3,0.1-0.6,0.1-0.8
		c0-0.3,0-0.4,0.1-0.5c0-0.1,0.1-0.3,0.3-0.4c0.1-0.1,0.3-0.3,0.4-0.6c0.1,0,0.3-0.1,0.3-0.2c0.1-0.1,0.2-0.2,0.3-0.2
		c0.1,0,0.1,0,0.2,0c0.1,0,0.2,0,0.3,0c0.1,0,0.2-0.1,0.2-0.1c0.1,0,0.2-0.1,0.2-0.1c0.1,0,0.2,0,0.3,0c0.1,0,0.2,0,0.3,0
		c0.2,0,0.5,0,0.8,0c0.3,0,0.7,0,1.1,0.1c0,0,0.1,0.1,0.1,0.1c0.1,0,0.2,0,0.3,0.1c0.1,0,0.1,0.1,0.2,0.2c0.1,0.1,0.2,0.1,0.2,0.2
		c0.1,0.1,0.1,0.1,0.2,0.2c0.1,0.1,0.1,0.1,0.2,0.2c0,0,0.1,0,0.2,0.1c0.1,0,0.2,0.1,0.3,0.3c0.1,0,0.1,0.1,0.2,0.2
		c0.1,0.1,0.2,0.1,0.2,0.2c0.1,0.1,0.1,0.2,0.2,0.3c0.1,0.1,0.1,0.2,0.2,0.3c0.1,0.1,0.1,0.2,0.1,0.3c0,0.1,0.1,0.2,0.1,0.3
		c0.3,0.1,0.6,0.1,1,0.1c0.4-0.3,0.6-0.7,0.6-1.2c0-0.1,0.1-0.1,0.2-0.1c0.1,0,0.1-0.1,0.1-0.2c0.1-0.2,0.2-0.4,0.3-0.5
		c0.1-0.1,0.2-0.3,0.3-0.5c0.1,0,0.3-0.2,0.3-0.4c0-0.1,0.1-0.2,0.2-0.2c0.1,0,0.1-0.1,0.2-0.2c0-0.3,0.1-0.5,0.2-0.7
		c0.1-0.2,0.2-0.4,0.1-0.6c-0.1-0.2-0.2-0.3-0.4-0.4c-0.1,0-0.1-0.1-0.2-0.1c-0.1,0-0.2,0-0.3-0.1c-0.2-0.1-0.4-0.1-0.6-0.2
		c-0.2,0-0.5-0.1-0.9-0.2c-0.1-0.1-0.3-0.2-0.4-0.3c-0.1-0.1-0.3-0.2-0.4-0.3c-0.1,0-0.2,0-0.3,0c-0.1,0-0.1,0-0.2-0.1
		c-0.2-0.1-0.4-0.2-0.7-0.3c-0.2-0.1-0.6-0.2-1.1-0.2c-0.3-0.2-0.6-0.3-1-0.3c-0.1,0-0.2-0.1-0.3-0.1c-0.1-0.1-0.2-0.1-0.3-0.1
		c-0.5,0.1-0.9,0.2-1.4,0.1c-0.1,0-0.2,0-0.3-0.1c-0.1,0-0.2-0.1-0.3-0.1c-0.2,0-0.4,0-0.6,0c-0.2,0-0.3,0.1-0.5,0.1
		c-0.2,0.1-0.4,0.1-0.6,0.1c-0.2,0-0.4,0.1-0.6,0.1c0,0-0.1,0-0.1,0.1c-0.1,0-0.2,0.1-0.4,0.1c-0.1,0-0.1,0-0.2,0.1
		c-0.1,0.1-0.2,0.1-0.5,0.3c-0.1,0.1-0.3,0.2-0.5,0.3c-0.2,0.1-0.3,0.3-0.5,0.4c-0.1,0.1-0.3,0.2-0.6,0.5c-0.1,0.1-0.2,0.3-0.2,0.4
		c0,0.1-0.2,0.3-0.3,0.4c0,0.2-0.1,0.4-0.2,0.6c-0.1,0.2-0.2,0.4-0.3,0.7c-0.1,0.2-0.2,0.5-0.3,0.7c0,0.1-0.1,0.3-0.2,0.5
		c-0.1,0.2-0.1,0.4,0,0.6c0,0.1,0,0.3,0,0.5c0,0.2,0,0.4,0,0.6c0.1,0.2,0.1,0.3,0.2,0.5c0.1,0.2,0.1,0.3,0.1,0.5
		c0.1,0,0.1,0,0.1,0.1c0,0.1,0.1,0.3,0.2,0.6c0,0.1,0,0.2,0,0.3c0,0.1-0.1,0.2-0.1,0.3c0.1,0.2,0.2,0.4,0.3,0.6
		c0,0.2,0.1,0.4,0.2,0.6c0,0,0.1,0.1,0.1,0.1c0.1,0.1,0.2,0.2,0.3,0.3c0.1,0.1,0.1,0.2,0.2,0.3c0.1,0.1,0.1,0.2,0.1,0.3
		c0.4,0.3,0.8,0.8,1,1.3c0.2,0.1,0.3,0.2,0.4,0.3c0.1,0.1,0.2,0.3,0.3,0.5c0.4,0.2,0.8,0.5,1.2,0.8c0.4,0.3,0.7,0.6,1.1,0.8
		c0.2,0.1,0.4,0.2,0.6,0.3c0.1,0,0.2,0.1,0.4,0.3c0.1,0,0.2,0.1,0.2,0.1c0,0,0.1,0.1,0.2,0.2c0.2,0.1,0.4,0.3,0.6,0.4
		c0.2,0.1,0.3,0.3,0.3,0.6c0.1,0,0.2,0.1,0.3,0.1c0.1,0,0.2,0,0.3,0.1c0.1,0.4,0.3,0.6,0.6,0.8c0.3,0.2,0.5,0.3,0.8,0.5
		c0.1,0.2,0.2,0.4,0.4,0.5c0.2,0.1,0.3,0.2,0.4,0.3c0.1,0.2,0.1,0.4,0.2,0.6c0.1,0.2,0.1,0.3,0.2,0.6c0,0.1,0,0.1-0.1,0.3
		c0,0.1,0,0.2,0,0.3c0,0.1,0,0.3,0,0.4c0,0.1,0,0.2,0,0.3c0,0.1,0,0.1,0,0.1s-0.1,0.2-0.1,0.3c-0.1,0.3-0.2,0.5-0.3,0.6
		c-0.1,0.1-0.3,0.3-0.5,0.5c-0.2,0.1-0.3,0.2-0.5,0.3c-0.2,0.1-0.4,0.2-0.6,0.2c-0.4,0.1-0.7,0.2-1,0.3c-0.3,0-0.7,0.1-1.2,0.1
		c-0.1,0-0.2,0-0.3,0c-0.1,0-0.2,0-0.3,0c-0.1,0-0.3,0-0.4,0c-0.1,0-0.2,0-0.3,0c-0.1,0-0.2-0.1-0.4-0.2c-0.2-0.1-0.4-0.2-0.5-0.3
		c-0.2-0.1-0.5-0.3-0.8-0.5c-0.3-0.2-0.5-0.4-0.6-0.5c-0.1-0.1-0.2-0.2-0.3-0.4c-0.1-0.1-0.2-0.3-0.3-0.6c-0.2-0.5-0.5-0.8-0.8-1
		c-0.2-0.1-0.4-0.1-0.4-0.1s-0.1,0-0.3,0c-0.1,0.1-0.1,0.1-0.2,0.2c-0.1,0.1-0.1,0.2-0.2,0.3c-0.1,0-0.1,0.1-0.2,0.1
		c-0.1,0-0.2,0.1-0.4,0.3c-0.1,0.1-0.3,0.1-0.4,0.2c-0.1,0.1-0.2,0.1-0.4,0.1c0,0.2-0.1,0.3-0.3,0.4c-0.2,0.1-0.3,0.2-0.4,0.2
		c-0.1,0.1-0.2,0.1-0.3,0.1c-0.1,0-0.2,0.1-0.3,0.1c-0.1,0.1-0.1,0.1-0.1,0.2c0,0.1-0.1,0.1-0.2,0.2c0.1,0.4,0.2,0.8,0.5,1
		c0.2,0.2,0.5,0.5,0.7,0.8l0.1,0.5c0.2,0.1,0.3,0.3,0.4,0.5c0.1,0.2,0.3,0.4,0.5,0.6c0,0,0.1,0.1,0.1,0.1c0.1,0,0.1,0.1,0.2,0.2
		c0.1,0.1,0.3,0.2,0.4,0.2c0.1,0,0.3,0.1,0.3,0.1c0.1,0.1,0.1,0.2,0.2,0.2c0,0,0.1,0.1,0.2,0.2c0.1,0,0.2,0,0.2-0.1
		c0-0.1,0.1-0.1,0.3,0c0.1,0,0.1,0.1,0.1,0.2c0,0.1,0,0.2,0.1,0.2c0.2,0,0.4,0,0.5,0.2c0.1,0.1,0.3,0.2,0.6,0.1
		c0.1,0.1,0.2,0.2,0.3,0.2c0.1,0,0.3,0.1,0.5,0.2c0.1,0,0.2,0.1,0.3,0.1c0.1,0.1,0.2,0.1,0.3,0.1c0.1,0,0.3,0,0.4,0
		c0.1,0,0.3,0,0.4,0c0.1,0,0.2,0.1,0.4,0.1c0.1,0,0.2,0.1,0.4,0.1c0.3,0,0.6,0.1,0.9,0.1c0.3,0,0.6,0,0.9,0.1
		c0.2-0.1,0.4-0.2,0.5-0.3c0.2,0.1,0.4,0.1,0.6,0.1c0.2,0,0.4,0,0.6,0c0.3,0,0.6,0,0.8,0c0.2,0,0.5-0.1,0.7-0.2c0.1,0,0.2,0,0.3,0.1
		c0.1,0,0.2,0,0.4,0c0.1,0,0.1,0,0.2-0.1c0.1,0,0.2-0.1,0.5-0.2c0.2-0.1,0.4-0.1,0.6-0.2c0.2-0.1,0.4-0.2,0.7-0.4
		c0.1-0.1,0.3-0.1,0.4-0.2c0.1,0,0.2-0.1,0.3-0.1c0-0.1,0.1-0.1,0.2-0.3c0.1-0.1,0.2-0.2,0.2-0.3c0.1-0.1,0.3-0.3,0.4-0.4
		c0.1-0.1,0.2-0.3,0.3-0.4c0.1-0.1,0.2-0.3,0.4-0.5c0.1-0.1,0.1-0.1,0.2-0.2L161.7,38.4z"/>
	<path fill="#FFFFFF" d="M219.3,38.2l-0.4-4.9l0.5-2.3l0.5-0.7c0,0,0,0,0-0.1c0,0,0-0.1,0-0.3c-0.1-0.1-0.1-0.2-0.2-0.4
		c-0.1-0.1-0.1-0.3-0.2-0.4c0-0.1-0.1-0.2,0-0.2c0-0.1,0-0.1,0-0.2c-0.1-0.1-0.2-0.2-0.2-0.3c-0.1-0.1-0.1-0.2-0.3-0.3
		c0-0.1-0.1-0.2-0.1-0.3c0-0.1-0.1-0.2-0.1-0.3c-0.2-0.2-0.4-0.4-0.6-0.6c-0.2-0.2-0.5-0.4-0.9-0.6c0,0-0.1-0.1-0.1-0.1
		c0,0-0.1-0.1-0.2-0.1c-0.1,0-0.1-0.1-0.2-0.1c-0.1,0-0.1-0.1-0.2-0.1c-0.3-0.1-0.6-0.2-0.8-0.2c-0.3,0-0.5,0-0.8-0.1
		c-0.1,0-0.2-0.1-0.3-0.1c-0.1,0-0.2-0.1-0.3-0.1c-0.1,0-0.2-0.1-0.3-0.1c-0.1,0-0.2-0.1-0.3-0.1c-0.1,0-0.1,0-0.3,0
		c-0.1,0-0.3,0-0.5-0.1c0,0-0.1,0-0.2-0.1c-0.1,0-0.1,0-0.2-0.1c0,0-0.1,0-0.2,0c-0.1,0-0.3,0-0.5-0.1c-0.1,0-0.3-0.1-0.4-0.1
		c-0.1,0-0.4,0-0.6,0.1c-0.1,0-0.2,0-0.3,0.1c-0.1,0-0.2,0-0.3,0c-0.1,0-0.1,0-0.2,0c-0.1,0-0.2,0-0.2,0c-0.3,0-0.5,0-0.7,0
		c-0.2,0-0.4,0.1-0.8,0.2c-0.7,0-1.1,0.1-1.4,0.4c-0.1-0.1-0.2-0.1-0.3,0c-0.1,0.1-0.2,0.1-0.3,0.2c0,0-0.1,0-0.2,0
		c-0.1,0-0.2,0.1-0.4,0.2c-0.1,0.1-0.2,0.1-0.3,0.2c-0.1,0.1-0.2,0.2-0.2,0.2c-0.2,0.1-0.4,0.2-0.6,0.4c0,0-0.1,0.1-0.1,0.2
		c0,0.1-0.1,0.1-0.2,0.2c0,0-0.1,0.1-0.1,0.1c0,0-0.1,0.1-0.3,0.2c-0.1,0.1-0.3,0.2-0.3,0.4c-0.1,0.1-0.2,0.3-0.3,0.5
		c-0.1,0-0.2,0-0.2,0.2c0,0.1-0.1,0.2-0.3,0.3c-0.1,0.1-0.1,0.2-0.2,0.3c-0.1,0.1-0.1,0.2-0.3,0.2c0,0.2-0.1,0.4-0.2,0.5
		c-0.1,0.2-0.1,0.4-0.1,0.6c0,0-0.1,0.1-0.1,0.2c0,0.1-0.1,0.1-0.1,0.2c0,0.3-0.1,0.6-0.2,0.9c-0.1,0.3-0.1,0.5,0,0.9
		c-0.1,0-0.1,0.1-0.1,0.2s0,0.2,0,0.4c0,0.1-0.1,0.2-0.1,0.4c0,0.1-0.1,0.2-0.1,0.4v0.6c0,0.1,0,0.2,0,0.3c0,0.1,0,0.2,0,0.3
		c0,0.2,0,0.4,0.1,0.5c0.1,0.1,0.1,0.3,0,0.4c0.1,0.1,0.1,0.2,0.1,0.3s0.1,0.2,0.1,0.3c0,0.1,0,0.2,0,0.3c0.1,0.1,0.1,0.2,0.1,0.3
		c0,0.2,0.1,0.3,0,0.5c0,0.2,0,0.3,0,0.5c0,0.1,0.1,0.1,0.1,0.2c0.1,0,0.1,0.1,0.1,0.2c0,0.1,0,0.2,0,0.4c0,0.1,0.1,0.3,0.1,0.5
		c0,0.2,0.1,0.3,0.1,0.4c0,0.1,0.1,0.2,0.1,0.2c0.1,0.1,0.2,0.3,0.4,0.6c0,0,0,0.1,0.1,0.1c0,0,0.1,0.1,0.3,0.3c0,0.1,0,0.2,0,0.2
		c0,0,0.1,0.1,0.1,0.2c0.1,0.1,0.2,0.2,0.3,0.2c0.1,0.1,0.2,0.3,0.4,0.5c0,0.1,0.1,0.1,0.1,0.2c0,0.1,0.1,0.1,0.1,0.2
		c0,0,0.1,0.1,0.2,0.1c0.1,0,0.2,0.1,0.4,0.3c0,0,0.1,0.1,0.2,0.1c0.1,0,0.1,0,0.2,0.1c0,0,0.1,0.1,0.2,0.2c0.1,0.1,0.2,0.2,0.3,0.4
		c0.2,0,0.4,0.1,0.5,0.2c0.1,0.1,0.4,0.2,0.7,0.3c0.2,0.1,0.4,0.3,0.6,0.3c0.2,0.1,0.4,0.1,0.7,0.2c0,0,0.1,0,0.1,0
		c0.1,0,0.2,0,0.3,0.1c0.1,0,0.3,0,0.4,0c0.2,0.2,0.5,0.3,0.9,0.3c0.4,0,0.7-0.1,1.1-0.2c0.2,0,0.4,0,0.5,0c0.1-0.1,0.3-0.1,0.4-0.1
		c0,0,0.1,0,0.2,0c0.1,0,0.2,0,0.4,0c0,0,0.1,0,0.1-0.1c0,0,0.1-0.1,0.3-0.1c0.2,0,0.4,0,0.6,0c0.2,0,0.4,0,0.5-0.1
		c0.1,0,0.2-0.1,0.3-0.1s0.3,0,0.5,0c0.2,0,0.3,0,0.5-0.1c0.1-0.1,0.3-0.1,0.4-0.2c0,0,0.1,0,0.1,0c0.1,0,0.1,0,0.3-0.1
		c0.3-0.1,0.5-0.2,0.6-0.3c0.1-0.1,0.3-0.2,0.5-0.4c0.1,0,0.1,0.1,0.2,0c0,0,0.1,0,0.2,0c0.1-0.1,0.2-0.2,0.3-0.3
		c0.1-0.1,0.2-0.1,0.3-0.3c0.1-0.2,0.3-0.4,0.3-0.6c0.1-0.2,0.2-0.3,0.3-0.4c0.1-0.1,0.2-0.2,0.3-0.3c0-0.1,0-0.2,0-0.2
		c0,0,0-0.1,0-0.2c0.1-0.2,0.3-0.4,0.4-0.6c0.1-0.2,0.2-0.5,0.3-0.7c0.1-0.2,0.1-0.4,0.2-0.6c0-0.1,0.1-0.2,0.1-0.4L219.3,38.2z
		 M217,34c0,0.2,0,0.5-0.1,0.7c0,0.1,0,0.2-0.1,0.3c0,0.1-0.1,0.2-0.1,0.3c0,0.2-0.1,0.4-0.1,0.6c0,0.2-0.1,0.3-0.2,0.4
		c0,0.1,0,0.3,0,0.4c0,0.1-0.1,0.3-0.1,0.5c0,0,0,0.1,0,0.2c0,0.1-0.1,0.2-0.1,0.4c0,0.1-0.1,0.3-0.2,0.4c-0.1,0.1-0.1,0.3-0.2,0.4
		c-0.1,0.2-0.2,0.5-0.3,0.7c-0.1,0.2-0.2,0.4-0.4,0.7c0,0.1-0.1,0.1-0.2,0.2c-0.1,0.1-0.1,0.1-0.2,0.2c-0.1,0.1-0.1,0.2-0.2,0.3
		c-0.1,0.1-0.2,0.2-0.3,0.3c-0.1,0.1-0.1,0.1-0.2,0.2c-0.1,0.1-0.1,0.1-0.1,0.3c-0.1,0-0.2,0-0.3,0.1c-0.1,0.1-0.2,0.1-0.3,0.2
		c-0.1,0-0.2,0.1-0.3,0.2c-0.1,0.1-0.3,0.1-0.4,0.1c-0.1,0-0.2,0-0.3-0.1c-0.1,0-0.2,0-0.3,0c-0.1,0-0.2,0-0.2,0c0,0-0.1,0-0.2,0.1
		c-0.1,0-0.2,0-0.2-0.1c0-0.1-0.1-0.1-0.2-0.1c-0.2,0-0.4,0-0.5-0.1c-0.1-0.1-0.3-0.1-0.5-0.1c-0.1-0.2-0.3-0.3-0.5-0.3
		c-0.2,0-0.4-0.1-0.5-0.1c0,0-0.1-0.1-0.1-0.1c-0.1,0-0.1-0.1-0.2-0.1c-0.1,0-0.1-0.1-0.2-0.1c-0.1,0-0.2-0.1-0.3-0.2
		c-0.1,0-0.1-0.1-0.2-0.2s-0.1-0.1-0.3-0.2c0,0-0.1-0.1-0.1-0.1c-0.1,0-0.1-0.1-0.1-0.1c-0.1-0.1-0.2-0.2-0.3-0.3
		c-0.1-0.1-0.2-0.2-0.3-0.2c0-0.1,0-0.2-0.1-0.3c-0.1-0.1-0.1-0.1-0.1-0.2c0,0,0-0.1,0-0.1c0,0-0.1-0.1-0.2-0.2c0-0.2,0-0.4-0.1-0.5
		c-0.1-0.1-0.1-0.3-0.1-0.4c-0.1,0-0.1-0.1-0.1-0.2c0-0.1-0.1-0.2-0.2-0.2c0-0.1,0-0.2,0-0.3c-0.1-0.1-0.1-0.1-0.1-0.2
		c0,0,0-0.1,0-0.1c0,0,0-0.2-0.1-0.3c0-0.1,0-0.3,0-0.5c0-0.1,0-0.3,0-0.4c0-0.1-0.1-0.2-0.1-0.4c0-0.1,0-0.2,0-0.3
		c0-0.1,0-0.2-0.1-0.2c0.1-0.2,0.2-0.5,0.2-0.8c0-0.3,0-0.7,0.2-1.1c0-0.1,0.1-0.3,0.1-0.4c0-0.2,0.1-0.3,0.1-0.4
		c0.1-0.2,0.2-0.3,0.3-0.4c0.1-0.1,0.2-0.3,0.2-0.4c0.2-0.1,0.3-0.2,0.5-0.4c0.1-0.2,0.4-0.4,0.7-0.6c0.1,0,0.2-0.1,0.2-0.2
		c0.1-0.1,0.1-0.1,0.2-0.2c0,0,0.1-0.1,0.2-0.2c0.1-0.1,0.2-0.2,0.4-0.2c0.2-0.1,0.4-0.2,0.6-0.3c0.2-0.1,0.4-0.2,0.6-0.4
		c0,0,0.1,0,0.2,0c0.1,0,0.1,0,0.1,0.1c0.1,0,0.1-0.1,0.2-0.1c0.1,0,0.1-0.1,0.2-0.1c0.2,0.1,0.5,0.1,0.7,0.1
		c0.2-0.1,0.4-0.1,0.6-0.2c0.1,0,0.2,0,0.2,0.1c0,0.1,0.1,0.1,0.1,0.1c0.1,0,0.2,0,0.2,0c0,0,0.1,0,0.2,0.1c0.1,0.1,0.2,0.2,0.2,0.3
		c0.1,0.1,0.1,0.2,0.2,0.3c0.2,0,0.3,0,0.4,0c0.1-0.1,0.2-0.1,0.4-0.1c0.1,0,0.2,0.1,0.2,0.1c0.1,0,0.1,0.1,0.2,0.1
		c0.2,0,0.4,0.1,0.6,0.1c0.2,0.1,0.4,0.2,0.6,0.4c0,0.1,0.1,0.2,0.2,0.2c0.1,0,0.1,0.1,0.2,0.2c0.1,0,0.1,0.1,0.1,0.2
		c0,0.1,0.1,0.2,0.1,0.2c0,0.2,0.1,0.3,0,0.5c0,0.2,0,0.3,0,0.4c0,0.3,0.1,0.5,0.2,0.7c0.1,0.2,0.1,0.4,0.2,0.7c0,0.1,0,0.2,0,0.2
		c0,0,0,0.2,0,0.4C217,33.6,217,33.8,217,34z"/>
	<path fill="#FFFFFF" d="M181.8,42c0,0.2,0,0.5-0.1,0.7c-0.1,0.2-0.3,0.4-0.6,0.4c-0.1,0.1-0.2,0.2-0.4,0.4s-0.3,0.3-0.5,0.4
		c-0.1,0.1-0.2,0.1-0.3,0.2c-0.1,0.1-0.3,0.2-0.4,0.3c-0.1,0-0.2,0.1-0.3,0.1c-0.1,0.1-0.2,0.1-0.3,0.2c-0.1,0.1-0.2,0.1-0.3,0.1
		c-0.1,0-0.1,0-0.1,0.1c-0.1,0-0.1,0-0.2,0.1c-0.1,0-0.1,0.1-0.2,0.1c-0.2,0.1-0.5,0.2-0.7,0.3c-0.3,0.1-0.6,0.2-1,0.2
		c-0.4,0-0.7,0-1.1,0c-0.2,0-0.3,0-0.5,0c-0.1,0-0.3,0-0.4,0c-0.1,0-0.3,0-0.4-0.1c-0.1-0.1-0.3-0.1-0.4-0.1c-0.2,0-0.3,0-0.5,0
		c-0.2,0-0.3,0-0.4,0c-0.3-0.1-0.5-0.1-0.6-0.1c-0.1,0-0.3,0-0.4-0.1c-0.2-0.1-0.3-0.1-0.3-0.1c-0.1,0-0.1,0-0.1,0
		c-0.1-0.1-0.2-0.1-0.2-0.1c0,0-0.1,0-0.1,0c-0.2-0.1-0.3-0.1-0.4-0.2c-0.1-0.1-0.2-0.1-0.4-0.2c-0.1-0.1-0.3-0.1-0.4-0.2
		c-0.3-0.1-0.5-0.2-0.7-0.3c-0.2-0.1-0.3-0.1-0.4-0.1c-0.2-0.2-0.4-0.4-0.6-0.6c-0.2-0.2-0.4-0.4-0.5-0.7c-0.1-0.1-0.2-0.2-0.3-0.3
		c-0.1-0.1-0.2-0.2-0.3-0.3c-0.1-0.1-0.1-0.2-0.2-0.2c0,0-0.1-0.1-0.1-0.1c0-0.1-0.1-0.2-0.2-0.2c-0.1-0.1-0.1-0.1-0.2-0.1
		c-0.1-0.2-0.2-0.4-0.3-0.4c-0.1-0.1-0.1-0.2-0.2-0.3c-0.1-0.1-0.1-0.2-0.2-0.3c-0.1-0.1-0.1-0.1-0.1-0.2c-0.1-0.2-0.2-0.4-0.2-0.5
		c0-0.1-0.1-0.2-0.1-0.3c-0.1-0.2-0.2-0.4-0.2-0.6c-0.1-0.3-0.1-0.6-0.2-0.9c-0.1-0.3,0-0.5,0.1-0.7c-0.1-0.3-0.1-0.6-0.1-0.9
		c0.1-0.2,0.1-0.3,0.1-0.3c0-0.1,0-0.1,0-0.2c0-0.1,0-0.2,0-0.2c0,0,0-0.1,0-0.2c0-0.1,0-0.2,0-0.5c0-0.3,0-0.5,0-0.7
		c0,0,0-0.1,0.1-0.1c0-0.1,0-0.1,0.1-0.2c0-0.2,0-0.3,0-0.4c0,0,0-0.1,0.1-0.1c0-0.2,0.1-0.4,0.1-0.6c0-0.2,0.1-0.5,0.2-0.7
		c0-0.1,0.1-0.2,0.1-0.3c0-0.1,0.1-0.2,0.2-0.2c-0.1-0.1-0.1-0.3,0-0.5c0.1-0.2,0.2-0.3,0.3-0.4c0-0.1,0-0.2,0-0.4
		c0-0.1,0.1-0.3,0.1-0.4c0.1-0.2,0.1-0.3,0.2-0.3c0,0,0.1-0.1,0.1-0.1c0-0.1,0.1-0.2,0.2-0.3s0.1-0.2,0.2-0.3
		c0.1-0.2,0.2-0.3,0.3-0.5c0.1-0.2,0.2-0.3,0.3-0.5c0.2-0.1,0.3-0.1,0.4-0.2c0-0.1,0.1-0.2,0.1-0.2c0.4-0.2,0.6-0.4,0.9-0.6
		c0.2-0.2,0.5-0.3,0.8-0.4c0.1-0.1,0.2-0.2,0.4-0.3c0.2-0.1,0.3-0.2,0.4-0.3c0.2,0,0.4-0.1,0.5-0.2c0.1-0.1,0.3-0.2,0.5-0.2
		c0.2-0.1,0.3-0.2,0.4-0.3c0.1,0,0.2,0,0.3,0c0.1,0,0.2,0,0.3-0.1c0.2,0,0.3-0.1,0.4-0.1c0.1-0.1,0.2-0.1,0.4-0.1c0.1,0,0.1,0,0.2,0
		c0.1,0,0.2,0,0.3,0c0.3,0,0.6-0.1,0.9,0c0.3,0,0.6,0,1,0c0.2,0.2,0.4,0.2,0.6,0.2c0.3,0,0.5,0.1,0.7,0.2c0.4,0,0.7,0.1,1.1,0.2
		c0.3,0.1,0.5,0.2,0.6,0.2c0.2,0.1,0.3,0.2,0.4,0.4c0.2,0,0.4,0.1,0.6,0.3c0.2,0.2,0.3,0.3,0.5,0.5c0.1,0.1,0.2,0.2,0.2,0.2
		c0.1,0.1,0.1,0.2,0.2,0.3c0.1,0.2,0.2,0.3,0.3,0.3c0.1,0.1,0.1,0.1,0.2,0.2c0.1,0.1,0.2,0.3,0.4,0.4c0.1,0.2,0.3,0.3,0.5,0.4
		c0,0.1,0,0.2,0,0.3c0,0.1,0,0.2,0,0.3c0.1,0,0.1,0.1,0.2,0.1c0.1,0,0.1,0.1,0.1,0.2v0.6c0,0.1-0.1,0.2-0.1,0.2c0,0-0.1,0.1-0.1,0.1
		c0,0.2,0,0.3-0.1,0.4c-0.1,0.1-0.2,0.2-0.2,0.4c-0.2,0.1-0.3,0.2-0.5,0.4s-0.3,0.3-0.5,0.4c-0.1,0-0.2,0-0.3-0.1
		c-0.1,0-0.2,0-0.3,0c-0.1-0.3-0.2-0.6-0.3-0.8c-0.1-0.2-0.1-0.4-0.2-0.5c-0.1-0.1-0.2-0.1-0.3-0.2c-0.1-0.1-0.2-0.1-0.3-0.2
		c0,0-0.1-0.1-0.2-0.1c-0.1,0-0.1-0.1-0.2-0.1c-0.1,0-0.1-0.1-0.1-0.1c0-0.1-0.1-0.1-0.2,0c-0.1,0-0.1-0.1-0.2-0.2
		c0-0.1-0.1-0.1-0.1-0.2c-0.3,0-0.7-0.1-1-0.1c-0.4,0-0.6-0.1-0.8-0.3c-0.1,0-0.3,0-0.6,0c-0.3,0-0.5-0.1-0.6-0.2
		c-0.2,0-0.4,0-0.6,0.1c-0.2,0-0.4,0-0.6,0c-0.1,0-0.2,0-0.3,0c-0.1,0-0.2,0-0.3,0.1c-0.2,0-0.4,0.1-0.6,0.2
		c-0.2,0.1-0.4,0.1-0.6,0.2c-0.1,0-0.1,0.1-0.2,0.2c-0.1,0.1-0.1,0.1-0.2,0.2c-0.1,0-0.2,0.1-0.2,0.1c-0.1,0-0.1,0.1-0.2,0.1
		c-0.2,0.1-0.3,0.2-0.4,0.4c-0.1,0.2-0.2,0.3-0.3,0.5c0,0-0.1,0.1-0.1,0.1c0,0-0.1,0.1-0.1,0.1c-0.1,0.1-0.2,0.2-0.3,0.4
		c-0.1,0.2-0.2,0.3-0.3,0.4c0,0.2-0.1,0.4-0.2,0.4c0,0.1,0,0.2,0,0.3c0,0.1-0.1,0.2-0.1,0.2c0,0.1-0.1,0.2-0.1,0.3
		c0,0.1,0,0.2,0,0.3c-0.1,0.1-0.1,0.1-0.2,0.2c0,0.1-0.1,0.2-0.1,0.3c-0.1,0.3-0.2,0.5-0.2,0.7c0,0.2-0.1,0.3-0.1,0.5
		c0,0.2,0,0.5-0.1,0.8c-0.1,0.3-0.1,0.5-0.1,0.8c0,0.2,0.1,0.3,0.1,0.5c0,0.2,0.1,0.4,0.1,0.5c0,0.2,0.1,0.3,0.1,0.4
		c0,0.1,0.1,0.3,0.1,0.4c0.1,0.1,0.2,0.2,0.2,0.3c0,0.1,0,0.1,0.1,0.2c0.1,0.1,0.1,0.2,0.1,0.2c0,0,0.1,0.1,0.1,0.1
		c0,0.1,0.1,0.2,0.2,0.3c0.1,0.1,0.1,0.2,0.2,0.3c0,0.1,0.1,0.1,0.1,0.2c0.1,0.1,0.1,0.2,0.1,0.2c0,0,0.1,0.1,0.2,0.1
		c0.1,0,0.1,0.1,0.1,0.2c0.2,0,0.3,0,0.4,0.1c0.1,0.1,0.2,0.1,0.3,0.2c0.1,0,0.2,0.1,0.3,0.1c0.1,0.1,0.2,0.1,0.3,0.1
		c0.1,0,0.2,0.1,0.4,0.2c0.2,0.1,0.4,0.1,0.5,0.1c0.2,0,0.4,0,0.5,0s0.2,0,0.2,0c0.2,0,0.3,0,0.4,0c0.1,0,0.3,0,0.4,0
		c0.2,0,0.3,0,0.5,0c0.1,0,0.3,0,0.4,0.1c0.1,0,0.2-0.1,0.3-0.1c0.1,0,0.2-0.1,0.3-0.1c0.1,0,0.2-0.1,0.3-0.1c0.1,0,0.2,0,0.3-0.1
		c0.1-0.1,0.2-0.2,0.3-0.2c0,0,0.1,0,0.1,0c0.2-0.2,0.4-0.3,0.6-0.3c0.2-0.1,0.3-0.1,0.4-0.1c0.1,0,0.2-0.1,0.3-0.2
		c0.1-0.1,0.2-0.1,0.3-0.1c0-0.1,0.1-0.2,0.3-0.2c0.1,0,0.3-0.1,0.4-0.3c0,0,0.1-0.1,0.2-0.1c0.1-0.1,0.2-0.1,0.2-0.1
		c0.1-0.1,0.2-0.2,0.2-0.3c0.1-0.1,0.1-0.2,0.2-0.2c0.1,0,0.2,0.1,0.2,0.1c0.1,0,0.2,0,0.3,0c0.1,0.2,0.2,0.4,0.3,0.5
		c0.1,0.2,0.2,0.4,0.4,0.5c0,0.1,0.1,0.2,0.2,0.2c0.1,0,0.1,0,0.1,0.1c0,0,0.1,0.1,0,0.2c0,0.1,0,0.1,0,0.2c0.1,0,0.2,0.1,0.3,0.2
		c0.1,0.1,0.2,0.1,0.3,0.1c0,0.1,0.1,0.2,0.2,0.3C181.7,41.7,181.8,41.8,181.8,42z"/>
	<path fill="#FFFFFF" d="M239.3,32.9c0,0.3,0,0.5,0.1,0.6c0.1,0.2,0,0.3,0,0.4c0.1,0.1,0.2,0.2,0.2,0.4c0,0.2,0,0.3-0.1,0.5
		c0,0.1,0,0.2,0,0.3c0,0.1,0,0.2,0,0.3c-0.1,0.2-0.1,0.4-0.2,0.5c0,0.1-0.1,0.1-0.1,0.1c0,0.1,0,0.3,0,0.4c0,0.1-0.1,0.3-0.1,0.4
		c0,0.2,0,0.3-0.1,0.3c0,0,0,0.1,0,0.1c0,0.2,0,0.4,0,0.5c0,0.1,0,0.1-0.1,0.2c0,0.2-0.1,0.4-0.1,0.6c0,0.2-0.1,0.4-0.1,0.6
		c-0.1,0.2-0.1,0.5-0.2,0.7c-0.1,0.2-0.2,0.4-0.3,0.6c0,0.1,0,0.2,0,0.2c0,0,0,0.1,0,0.2c-0.1,0.1-0.2,0.2-0.2,0.3
		c-0.1,0.1-0.1,0.2-0.2,0.4c0,0.2-0.1,0.4-0.3,0.6c-0.1,0.1-0.2,0.2-0.2,0.3c-0.1,0.1-0.2,0.2-0.3,0.3c-0.1,0-0.2,0-0.2,0.1
		c0,0-0.1,0-0.2,0c-0.1,0.2-0.3,0.3-0.4,0.5c-0.1,0.1-0.3,0.2-0.6,0.3c-0.1,0.1-0.2,0.1-0.3,0.1c-0.1,0-0.1,0-0.1,0
		c-0.1,0.1-0.2,0.1-0.4,0.2c-0.1,0.1-0.3,0.1-0.4,0.1c-0.2,0-0.4,0-0.5,0.1c-0.1,0-0.2,0.1-0.3,0.1c-0.2,0.1-0.3,0.1-0.5,0.1
		c-0.2,0-0.4,0-0.5,0.1c-0.2,0-0.3,0-0.3,0.1c0,0-0.1,0.1-0.1,0.1c-0.2,0-0.3,0-0.4,0c-0.1,0-0.1,0-0.2,0c-0.1,0-0.2,0.1-0.4,0.2
		c-0.1,0.1-0.3,0.1-0.5,0.1c-0.3,0.1-0.7,0.2-1,0.3c-0.3,0-0.6,0-0.9-0.2c-0.1,0.1-0.2,0.1-0.4,0.1c-0.1,0-0.2,0-0.3-0.1
		c-0.1,0-0.1,0-0.1,0c-0.2,0-0.4-0.1-0.6-0.1c-0.2-0.1-0.4-0.1-0.6-0.3c-0.3-0.1-0.5-0.2-0.7-0.2c-0.1-0.1-0.3-0.1-0.5-0.1
		c-0.1-0.1-0.2-0.2-0.3-0.3c-0.1-0.1-0.1-0.1-0.2-0.2c0,0-0.1-0.1-0.2-0.1c-0.1,0-0.1,0-0.2-0.1c-0.2-0.1-0.3-0.2-0.4-0.3
		c-0.1,0-0.1-0.1-0.2-0.1c0,0-0.1-0.1-0.1-0.1c0-0.1-0.1-0.1-0.1-0.2c-0.2-0.2-0.4-0.4-0.4-0.5c-0.1-0.1-0.2-0.2-0.3-0.2
		c0-0.1-0.1-0.2-0.1-0.2c0,0,0-0.1,0-0.2c-0.2-0.1-0.2-0.2-0.3-0.2c0,0,0-0.1-0.1-0.1c-0.2-0.2-0.3-0.4-0.4-0.5
		c0-0.1-0.1-0.1-0.1-0.2c0-0.1-0.1-0.2-0.1-0.4c-0.1-0.2-0.1-0.4-0.2-0.5c-0.1-0.1-0.1-0.2,0-0.4c0-0.1-0.1-0.1-0.2-0.2
		c-0.1,0-0.1-0.1-0.1-0.2c-0.1-0.2-0.1-0.3-0.1-0.5c0-0.2,0-0.3-0.1-0.5c0-0.1-0.1-0.2-0.1-0.3c-0.1-0.1-0.1-0.2,0-0.3
		c-0.1-0.1-0.1-0.1-0.2-0.2c0-0.1-0.1-0.2-0.2-0.2c0-0.1,0-0.3-0.1-0.4c-0.1-0.1-0.1-0.3-0.1-0.5c0-0.1,0-0.2,0-0.3
		c0-0.1,0-0.2,0-0.3l-0.1-0.6c0-0.1,0-0.3,0-0.4c0-0.1,0-0.2,0.1-0.3c0-0.1,0-0.3,0-0.4s0-0.2,0.1-0.2c-0.1-0.3-0.1-0.6-0.1-0.8
		c0.1-0.3,0.1-0.5,0.1-0.8c0,0,0.1-0.1,0.1-0.2c0-0.1,0-0.1,0.1-0.2c0-0.2,0-0.5,0-0.6c0.1-0.2,0.1-0.3,0.1-0.5
		c0.1-0.1,0.2-0.1,0.2-0.2c0-0.1,0.1-0.2,0.1-0.3c0.1-0.1,0.2-0.2,0.2-0.3c0-0.1,0.1-0.2,0.2-0.2c0.1-0.2,0.2-0.4,0.2-0.5
		c0.1-0.1,0.2-0.3,0.3-0.4c0.2-0.1,0.2-0.2,0.3-0.2c0,0,0.1-0.1,0.1-0.1c0.1-0.1,0.1-0.1,0.1-0.2c0-0.1,0.1-0.1,0.1-0.2
		c0.2-0.2,0.3-0.3,0.5-0.4c0.1-0.1,0.1-0.2,0.2-0.3c0.1-0.1,0.2-0.2,0.3-0.2c0.2-0.1,0.3-0.2,0.3-0.2c0.1,0,0.1,0,0.1,0
		c0.1-0.1,0.1-0.1,0.2-0.2c0.1-0.1,0.2-0.1,0.3,0c0.2-0.3,0.6-0.5,1.3-0.5c0.3-0.1,0.6-0.2,0.7-0.3c0.2-0.1,0.4-0.1,0.6-0.1
		c0.1,0,0.2,0,0.2,0c0.1,0,0.1,0,0.2,0c0.1,0,0.2,0,0.3-0.1c0.1,0,0.2-0.1,0.3-0.1c0.3-0.1,0.5-0.1,0.6-0.1c0.1,0,0.3,0,0.4,0
		c0.2,0,0.4,0.1,0.5,0c0.1,0,0.2,0,0.2,0c0.1,0,0.1,0,0.2,0c0.1,0,0.1,0,0.2,0.1c0.2,0,0.4,0.1,0.5,0.1c0.1,0,0.2,0,0.2,0
		c0.1,0,0.2,0,0.2,0c0.1,0,0.2,0.1,0.3,0.1c0.1,0,0.2,0,0.3,0.1c0.1,0,0.2,0,0.3,0.1c0.3,0,0.6,0,0.8,0c0.2,0,0.5,0,0.8,0.1
		c0,0,0.1,0,0.2,0.1c0.1,0,0.1,0.1,0.2,0.1c0.1,0,0.2,0,0.2,0.1c0,0,0.1,0.1,0.1,0.1c0.4,0.2,0.7,0.3,0.9,0.5
		c0.2,0.2,0.4,0.3,0.6,0.5c0,0.1,0,0.2,0.1,0.3c0,0.1,0.1,0.2,0.1,0.2c0.1,0.1,0.2,0.2,0.3,0.2c0.1,0.1,0.1,0.2,0.2,0.2
		c0,0,0.1,0.1,0.1,0.2c0,0.1,0,0.1,0.1,0.2c0.1,0.1,0.1,0.2,0.2,0.4c0.1,0.1,0.2,0.2,0.2,0.4c0,0.2,0,0.3,0.1,0.3
		c0,0,0.1,0.1,0.1,0.3c0.1,0.1,0.1,0.2,0.2,0.4c0.1,0.2,0.2,0.3,0.4,0.3c0,0.1,0,0.2,0.1,0.3c0.1,0.1,0.1,0.2,0.2,0.4
		c0,0.2,0.1,0.3,0.1,0.5c0,0.2,0,0.3,0,0.4c0,0.3,0,0.4,0.1,0.5C239.2,32.7,239.3,32.8,239.3,32.9z M235.6,32.9c0-0.2-0.1-0.3,0-0.3
		c0,0,0-0.1,0-0.2c-0.1-0.2-0.1-0.4-0.2-0.6c-0.1-0.2-0.2-0.4-0.3-0.7c0-0.1-0.1-0.3-0.1-0.4c0-0.1,0-0.3-0.1-0.5
		c-0.1,0-0.1-0.1-0.2-0.2c0-0.1-0.1-0.2-0.1-0.2c-0.1-0.1-0.1-0.1-0.2-0.2c-0.1,0-0.1-0.1-0.2-0.2c-0.2-0.1-0.4-0.2-0.6-0.3
		c-0.2,0-0.4,0-0.6,0c-0.1,0-0.2-0.1-0.2-0.1c-0.1,0-0.1-0.1-0.2-0.1c-0.2,0-0.3,0-0.3,0.1c-0.1,0.1-0.2,0.1-0.4,0.1
		c-0.1,0-0.2-0.1-0.3-0.2c-0.1-0.1-0.2-0.2-0.3-0.3c-0.1,0-0.2,0-0.2,0c0,0-0.1,0-0.2,0c-0.1,0-0.1-0.1-0.1-0.1c0-0.1-0.1-0.1-0.2,0
		c-0.2,0.1-0.4,0.1-0.6,0.2c-0.2,0.1-0.4,0.1-0.7,0c-0.1,0-0.2,0.1-0.2,0.1c0,0.1-0.1,0.1-0.2,0.2c0-0.1-0.1-0.1-0.1-0.1
		c-0.1,0-0.2,0-0.2,0c-0.1,0.2-0.3,0.3-0.5,0.4c-0.2,0.1-0.4,0.2-0.6,0.3c-0.2,0.1-0.3,0.2-0.3,0.3c-0.1,0.1-0.1,0.2-0.1,0.2
		c-0.1,0.1-0.1,0.1-0.1,0.2c0,0.1-0.1,0.1-0.2,0.2c-0.3,0.2-0.5,0.4-0.6,0.6c-0.1,0.2-0.3,0.3-0.4,0.4c0,0.2-0.1,0.3-0.2,0.4
		c-0.1,0.1-0.2,0.3-0.2,0.4c0,0.1-0.1,0.3-0.1,0.4c0,0.2,0,0.3-0.1,0.4c-0.1,0.4-0.1,0.8-0.1,1c0,0.3,0,0.5-0.1,0.8
		c0.1,0,0.1,0.1,0.1,0.2c0,0.1,0,0.2,0,0.3c0.1,0.1,0.1,0.2,0.1,0.3c0,0.1,0,0.2,0,0.4c0,0.2,0,0.4,0.1,0.5c0.1,0.1,0.2,0.2,0.2,0.3
		c0,0,0,0.1,0,0.1c0,0.1,0.1,0.1,0.1,0.2c0.1,0.1,0.1,0.2,0,0.3c0.1,0,0.2,0.1,0.2,0.2c0,0.1,0.1,0.2,0.2,0.2c0,0.1,0,0.3,0.1,0.4
		c0.1,0.1,0.1,0.3,0.1,0.5c0.1,0.1,0.2,0.1,0.2,0.2c0,0,0,0.1,0,0.1c0,0,0.1,0.1,0.2,0.1c0.1,0.1,0.1,0.1,0.1,0.2
		c0.1,0,0.2,0.1,0.3,0.2c0.1,0.1,0.2,0.2,0.3,0.3c0,0,0.1,0.1,0.1,0.1c0.1,0,0.1,0.1,0.1,0.1c0.1,0.1,0.2,0.1,0.3,0.2
		c0.1,0.1,0.1,0.1,0.2,0.2c0.1,0.1,0.2,0.2,0.3,0.2c0.1,0,0.2,0,0.2,0.1c0.1,0,0.1,0.1,0.2,0.1c0.1,0,0.1,0.1,0.1,0.1
		c0.2,0.1,0.3,0.1,0.5,0.1c0.2,0,0.4,0.1,0.5,0.2c0.2,0,0.3,0,0.5,0c0.1,0,0.3,0,0.5,0c0.1,0,0.1,0,0.2,0.1c0,0.1,0.1,0.1,0.2,0.1
		c0.1,0,0.2-0.1,0.2-0.1c0,0,0.1,0,0.2-0.1c0.1,0,0.2,0,0.3,0c0.1,0,0.2,0,0.3,0c0.1,0,0.2-0.1,0.3-0.2c0.1-0.1,0.2-0.1,0.3-0.2
		c0.1-0.1,0.2-0.1,0.3-0.2c0.1-0.1,0.2-0.1,0.3-0.1c0-0.1,0-0.2,0.1-0.3c0.1-0.1,0.1-0.1,0.2-0.2c0.1-0.1,0.2-0.2,0.2-0.3
		c0.1-0.1,0.1-0.2,0.2-0.3c0-0.1,0.1-0.2,0.1-0.2c0.1-0.1,0.1-0.1,0.1-0.2c0.1-0.2,0.2-0.4,0.3-0.7c0.1-0.2,0.2-0.5,0.2-0.7
		c0-0.1,0.1-0.2,0.1-0.4c0-0.1,0.1-0.3,0.1-0.4c0-0.2,0-0.4,0-0.4c0-0.1,0-0.1,0-0.2c0-0.2,0-0.3,0.1-0.5c0-0.1,0-0.3,0-0.4
		c0.1-0.1,0.1-0.3,0.1-0.4c0-0.2,0-0.3,0-0.5c0-0.1,0-0.2,0.1-0.3c0-0.1,0-0.2,0-0.3c0-0.2,0-0.4,0-0.6
		C235.6,33.2,235.6,33,235.6,32.9z"/>
	<path fill="#FFFFFF" d="M86.8,35.4c0,7.4-5,12.5-12.4,12.5s-12.8-5.1-12.8-12.5s5.4-13.2,12.8-13C84.7,22.6,86.8,27.9,86.8,35.4z"
		/>
	<path fill="#38BBED" d="M87.6,35.3c0-0.1,0.1-0.3,0.2-0.6c0-0.1,0-0.2-0.1-0.4c-0.1-0.1-0.1-0.3-0.1-0.4c0-0.2,0-0.5,0-0.7
		c0-0.2-0.1-0.4-0.3-0.5c0.1-0.2,0.1-0.4,0-0.6c-0.1-0.2-0.1-0.5-0.1-0.8c0-0.1-0.1-0.2-0.1-0.4c-0.1-0.1-0.1-0.4-0.1-0.7
		c0-0.2-0.1-0.4-0.1-0.6c0-0.2-0.1-0.4-0.1-0.6c-0.1-0.2-0.1-0.3-0.3-0.5c-0.1-0.1-0.2-0.3-0.2-0.5c-0.2-0.1-0.4-0.2-0.6-0.4
		c-0.1-0.2-0.2-0.4-0.3-0.5c-0.1-0.2-0.2-0.3-0.2-0.3c0,0-0.1-0.2-0.1-0.4c-0.1-0.1-0.2-0.3-0.4-0.4c-0.1-0.2-0.2-0.3-0.3-0.5
		c-0.1-0.1-0.1-0.2-0.1-0.3c0-0.1,0-0.2-0.1-0.2c-0.1-0.1-0.3-0.2-0.4-0.3c-0.1-0.1-0.2-0.2-0.4-0.3c-0.1-0.1-0.2-0.2-0.2-0.3
		c-0.1-0.1-0.1-0.2-0.1-0.4c-0.3-0.2-0.6-0.4-0.9-0.6c-0.3-0.2-0.8-0.4-1.3-0.6c-0.1,0-0.1-0.1-0.2-0.1c-0.1,0-0.2-0.1-0.3-0.1
		c-0.1,0-0.2-0.1-0.3-0.1c-0.1,0-0.2-0.1-0.2-0.1c-0.4-0.1-0.8-0.1-1.2,0c-0.3,0.1-0.7,0.1-1.1,0.1c-0.1,0-0.2,0-0.4-0.1
		c-0.1,0-0.2,0-0.4-0.1c-0.1,0-0.3-0.1-0.4-0.1c-0.1,0-0.2,0-0.4,0c-0.1,0-0.2,0-0.4,0c-0.1,0-0.4,0-0.7,0c-0.1,0-0.1,0-0.2-0.1
		c-0.1,0-0.2,0-0.3,0c-0.1,0-0.2,0-0.3,0.1c-0.1,0-0.4,0-0.7,0c-0.2,0-0.4,0-0.6,0c-0.2,0-0.5,0.1-0.9,0.3c-0.1,0.1-0.3,0.1-0.4,0.2
		c-0.1,0.1-0.3,0.1-0.4,0.1c-0.1,0-0.2,0-0.3,0c-0.1,0-0.2,0-0.3,0c-0.4,0-0.7,0.1-0.9,0.2c-0.2,0.1-0.6,0.2-1,0.4
		c-0.9,0.1-1.5,0.4-1.8,0.8c-0.2-0.1-0.3,0-0.5,0.1c-0.1,0.1-0.3,0.2-0.3,0.3c-0.1,0-0.1,0-0.2,0.1c-0.1,0-0.2,0.2-0.4,0.3
		c-0.1,0.1-0.3,0.2-0.4,0.3c-0.1,0.1-0.2,0.2-0.3,0.4c-0.2,0.2-0.5,0.4-0.7,0.6c0,0.1-0.1,0.1-0.1,0.2c0,0.1-0.1,0.2-0.2,0.3
		c0,0.1-0.1,0.1-0.2,0.2c-0.1,0-0.2,0.1-0.4,0.3c-0.2,0.2-0.3,0.3-0.4,0.5c-0.1,0.2-0.2,0.4-0.3,0.7c-0.2,0-0.2,0.1-0.3,0.3
		c0,0.2-0.1,0.3-0.3,0.5c-0.1,0.2-0.1,0.3-0.2,0.5c-0.1,0.1-0.2,0.3-0.3,0.4c0,0.2-0.1,0.5-0.1,0.7c-0.1,0.2-0.1,0.5,0,0.8
		c0,0.1-0.1,0.2-0.1,0.3c0,0.1,0,0.2-0.1,0.3c0.1,0.4,0,0.8,0,1.1c-0.1,0.4,0,0.7,0.1,1.1c-0.1,0.1-0.1,0.2-0.1,0.3
		c0,0.1,0,0.3,0,0.5c0,0.2-0.1,0.3-0.1,0.5c0,0.2,0,0.3,0,0.5l0.1,0.8c0,0.2,0,0.3,0,0.4c0,0.1,0,0.2,0,0.3c0,0.2,0.1,0.4,0.2,0.6
		c0.1,0.2,0.1,0.3,0.1,0.5c0.1,0.1,0.2,0.2,0.3,0.3c0.1,0.1,0.1,0.2,0.3,0.3c0,0.2,0,0.3,0.1,0.4c0.1,0.1,0.2,0.2,0.2,0.4
		c0.1,0.2,0.1,0.4,0.2,0.6c0,0.2,0.1,0.4,0.2,0.7c0,0.1,0.1,0.2,0.2,0.2c0.1,0,0.2,0.1,0.2,0.2c0,0.2,0,0.3,0.1,0.5
		c0.1,0.2,0.2,0.4,0.3,0.6c0.1,0.2,0.2,0.4,0.2,0.5c0,0.1,0.1,0.2,0.2,0.3c0.2,0.1,0.4,0.3,0.6,0.6c0,0,0.1,0.1,0.1,0.1
		c0,0.1,0.2,0.2,0.4,0.3c0,0.2,0,0.3,0.1,0.3c0.1,0.1,0.1,0.1,0.2,0.3c0.1,0.1,0.3,0.2,0.4,0.3c0.1,0.1,0.4,0.3,0.7,0.6
		c0.1,0.1,0.1,0.2,0.2,0.2c0.1,0.1,0.1,0.1,0.2,0.2c0.1,0.1,0.2,0.1,0.3,0.1c0.1,0,0.3,0.1,0.6,0.3c0.1,0.1,0.1,0.1,0.2,0.1
		c0.1,0,0.2,0,0.2,0.1c0.1,0.1,0.2,0.1,0.3,0.2c0.1,0.1,0.3,0.2,0.5,0.4c0.3,0,0.5,0,0.8,0.1c0.2,0.1,0.5,0.2,1,0.3
		c0.3,0.1,0.6,0.2,0.9,0.3c0.3,0.1,0.6,0.1,0.9,0.1c0.1,0,0.1,0,0.2,0c0.1,0,0.2,0,0.4,0c0.2,0,0.4,0,0.6-0.1
		c0.3,0.2,0.7,0.2,1.2,0.1c0.5-0.1,1-0.2,1.5-0.4c0.3,0,0.5,0,0.7-0.1c0.2-0.1,0.3-0.2,0.5-0.2c0.1,0,0.1-0.1,0.2-0.1
		c0.1,0,0.3,0,0.5-0.1c0.1,0,0.1,0,0.2-0.1c0.1-0.1,0.2-0.1,0.4-0.1c0.3-0.1,0.5-0.1,0.8-0.1c0.3,0,0.5-0.1,0.7-0.2
		c0.1-0.1,0.3-0.1,0.4-0.2c0.1-0.1,0.3-0.1,0.7-0.1c0.2,0,0.4-0.1,0.6-0.2c0.2-0.1,0.3-0.2,0.5-0.3c0.1,0,0.1-0.1,0.2-0.1
		c0.1,0,0.2-0.1,0.4-0.1c0.4-0.2,0.6-0.3,0.8-0.5c0.2-0.2,0.4-0.4,0.6-0.6c0.1,0,0.2,0,0.2,0c0,0,0.1-0.1,0.3-0.1
		c0.1-0.2,0.2-0.3,0.4-0.4c0.1-0.1,0.2-0.2,0.3-0.4c0.2-0.3,0.3-0.5,0.3-0.8c0.1-0.3,0.2-0.4,0.3-0.6c0.1-0.1,0.2-0.3,0.3-0.4
		c0-0.2,0-0.3,0-0.3c0,0,0-0.1-0.1-0.3c0.2-0.2,0.3-0.5,0.4-0.8c0.1-0.3,0.2-0.6,0.3-0.9c0-0.3,0.1-0.5,0.1-0.8
		c0-0.3,0.1-0.5,0.1-0.8c0-0.1,0-0.2,0.1-0.3c0-0.1,0-0.3,0-0.6c0-0.1,0-0.1,0-0.2c0-0.1,0.1-0.2,0.1-0.5c0-0.2,0.1-0.4,0.1-0.6
		c0-0.2,0-0.4,0-0.5C87.5,35.5,87.6,35.4,87.6,35.3z M68.7,44.1c-0.4,1.2,0.2,0.2-1,0c-1.3-0.2-1.8-0.5-1.8-0.5l-1.3-1.3l-0.8-0.9
		c0,0-0.9-1-0.8-1.4c0.1-0.4,0-1,0-1l-0.8-1.6c0,0,0-0.5,0-1.8c0-1.3-0.3-2.1,0-2.2c0.3-0.1,0.1-0.5,0.1-1.4c0-0.8,0.7-0.9,0.8-2.4
		c0.2-1.5,2.1-2.5,2.1-2.5l1.1-1.1c0,0,0.3,1.4,0.8,1.4c0.5,0-0.3-0.6,0.5,0c0.8,0.6,0.4-0.7,0.8,0.6c0.4,1.4,0,2.2,0,2.2l0.2,2.3
		c-1.7,0.8-1.7-0.6-1.7,0.8c0,1.5,0.8,1.3,0,1.5c-0.8,0.2,0.4,1.8-0.2,2c-0.6,0.2,0-0.1-1.6,0c-1.6,0.1-1.5-0.6-1.6,0.1
		S63,37.6,63,37.6s1.2,1.2,1.8,2.3c0.6,1.2,0.8,2.2,1,2.2c0.2,0,1.2,0.8,1.2,0.8S69.1,42.9,68.7,44.1z M68.4,35.9
		C68.4,35.9,68.4,35.9,68.4,35.9C68.4,35.9,68.4,35.9,68.4,35.9C68.4,35.9,68.4,35.9,68.4,35.9z M68.8,35.7l-0.4,0.1c0,0,0,0,0,0
		c0-0.1-0.1-0.4-0.3-1.2c-0.5-1.7,0.4-0.1,0.4-0.1s0.6,0.2,0.5,0.7C68.8,35.7,69.2,35.6,68.8,35.7z M70.7,23.8
		c0.6-0.3,0.8-0.9,0.8-0.9h0.8c0,0,0.8-0.4,1.5,0c0.8,0.4,1.1,0,1.1,0h1.2h1c0,0,1.9,0.2,1.8,1.2c-0.1,1.1,0,0-1.6,0.1
		c-1.6,0.1,0,0-1.1,0.3c-1.1,0.3-1.3,0-1.3,0l-1.7,0.7h-1.7l-0.6-0.7h-0.6C70.3,24.6,70.2,24.1,70.7,23.8z M77.1,46.6
		c-0.6,0-1.6-0.2-2.1,0c-0.5,0.2,0.4,0.8-1.5,0.7s-1.9-0.1-1.9-0.1l-1.7-0.9c0,0,2.2-1.1,3.1-1.1c0.8,0,0.8-0.3,2.2,0
		c1.4,0.3,1.7-0.1,1.7-0.1h1.6c0,0,1.4-1.2,2,0.1C80.4,45.2,77.8,46.6,77.1,46.6z M81.7,38.4c-0.2,0.2,0,0.8,0,0.8s0,0-0.5-0.2
		c-0.5-0.2,0-1.5,0-1.5S81.9,38.2,81.7,38.4z M84.8,39.8c0,0-0.3-0.7,0-0.7V39.8z M85.3,29.4c-0.6-0.5-1.3,1.5-1.3,1.5l-1.3,1.7v1.2
		c0,0,0,0-0.7,1.8c-0.7,1.8-2.3-1.1-2.1,1.7s-1.1,2.5-2,3c-0.8,0.5-2.5,0.3-2.8,0.8c-0.4,0.5-2,1-2,1s-0.7-2.8,1.1-2.9
		c1.8-0.1,0-2.5,0-2.5V34L72.3,33l-1.3-1.2v-0.9l1.3-2.6l1.2-0.9l4-1.7l2.6-0.2c0,0,0,0,1.3,0.2c1.3,0.2,1.3-0.8,1.3-0.8l1.1,0.8
		l0.4,1.1l0.6,0.7l0.5,0.5l0.6,0.9l0.2,1C85.9,29.9,85.9,29.9,85.3,29.4z"/>
</g>
</svg>
